<?xml version="1.0" encoding="UTF-8"?>
<svg width="74px" height="55px" viewBox="0 0 74 55" version="1.1" xmlns="http://www.w3.org/2000/svg" xmlns:xlink="http://www.w3.org/1999/xlink">
    <!-- Generator: sketchtool 42 (36781) - http://www.bohemiancoding.com/sketch -->
    <title>FC9FE870-5C3B-4E88-83D3-F9FC13046757</title>
    <desc>Created with sketchtool.</desc>
    <defs></defs>
    <g id="Page-1" stroke="none" stroke-width="1" fill="none" fill-rule="evenodd">
        <g id="1400-Company-Dev-Marketing-Page-v5-Hover" transform="translate(-1593.000000, -2670.000000)" fill="#FFFFFF">
            <g id="aws" transform="translate(1593.000000, 2670.000000)">
                <path d="M13.57,54 L10.91,54 L9.92999999,51.44 L3.80999999,51.44 L2.82999999,54 L0.169999993,54 L5.40999999,40.66 L8.32999999,40.66 L13.57,54 Z M9.26999999,49.38 L6.86999999,43.02 L4.46999999,49.38 L9.26999999,49.38 Z M26.64,54 L24.14,54 L21.54,44.16 L18.96,54 L16.46,54 L12.64,40.66 L15.26,40.66 L17.86,50.94 L20.62,40.66 L22.48,40.66 L25.24,50.94 L27.82,40.66 L30.44,40.66 L26.64,54 Z M36.37,54.24 C39.97,54.24 41.53,52.34 41.53,50.12 C41.53,45.14 33.77,46.68 33.77,44.2 C33.77,43.2 34.65,42.54 36.03,42.54 C37.43,42.54 38.85,43.02 39.89,44.06 L41.23,42.32 C39.99,41.12 38.31,40.46 36.23,40.46 C33.31,40.46 31.37,42.16 31.37,44.36 C31.37,49.28 39.15,47.54 39.15,50.34 C39.15,51.22 38.39,52.16 36.47,52.16 C34.61,52.16 33.17,51.3 32.25,50.32 L30.95,52.12 C32.13,53.38 33.91,54.24 36.37,54.24 Z M49.87,54 L49.87,40.66 L48.73,40.66 L48.73,54 L49.87,54 Z M57.04,54.24 C54.22,54.24 52.4,51.98 52.4,49.16 C52.4,46.34 54.22,44.1 57.04,44.1 C59.9,44.1 61.7,46.34 61.7,49.16 C61.7,51.98 59.9,54.24 57.04,54.24 Z M57.04,53.3 C59.32,53.3 60.58,51.32 60.58,49.16 C60.58,47.02 59.32,45.04 57.04,45.04 C54.8,45.04 53.52,47.02 53.52,49.16 C53.52,51.32 54.8,53.3 57.04,53.3 Z M68.79,54 L68.79,41.7 L73.15,41.7 L73.15,40.66 L63.27,40.66 L63.27,41.7 L67.63,41.7 L67.63,54 L68.79,54 Z" id="AWS-IoT"></path>
                <g id="logo" transform="translate(21.000000, 0.000000)">
                    <path d="M15,7.0619469 L17,7.0619469 L17,31.2789195 C17,31.8335605 16.5561352,32.2831858 16,32.2831858 L16,32.2831858 C15.4477153,32.2831858 15,31.845424 15,31.2789195 L15,7.0619469 Z" id="Rectangle-18"></path>
                    <rect id="Rectangle-18-Copy" x="11" y="14.6283186" width="2" height="17.6548673"></rect>
                    <path d="M8.75,13.8548233 C8.75,13.3069616 9.19386482,12.8628319 9.75,12.8628319 L9.75,12.8628319 C10.3022847,12.8628319 10.75,13.316903 10.75,13.8548233 L10.75,17.419513 C10.75,17.9673747 10.3061352,18.4115044 9.75,18.4115044 L9.75,18.4115044 C9.19771525,18.4115044 8.75,17.9574333 8.75,17.419513 L8.75,13.8548233 Z" id="Rectangle-18-Copy-3" transform="translate(9.750000, 15.637168) rotate(-270.000000) translate(-9.750000, -15.637168) "></path>
                    <path d="M21.25,13.8548233 C21.25,13.3069616 21.6938648,12.8628319 22.25,12.8628319 L22.25,12.8628319 C22.8022847,12.8628319 23.25,13.316903 23.25,13.8548233 L23.25,17.419513 C23.25,17.9673747 22.8061352,18.4115044 22.25,18.4115044 L22.25,18.4115044 C21.6977153,18.4115044 21.25,17.9574333 21.25,17.419513 L21.25,13.8548233 Z" id="Rectangle-18-Copy-4" transform="translate(22.250000, 15.637168) rotate(-270.000000) translate(-22.250000, -15.637168) "></path>
                    <rect id="Rectangle-18-Copy-2" x="19" y="14.6283186" width="2" height="17.6548673"></rect>
                    <path d="M30,18.8111028 C28.6384425,24.6474966 23.334937,29 17,29 C10.665063,29 5.36155753,24.6474966 4,18.8111028 C4.22092597,18.8607444 4.45089687,18.886961 4.68708043,18.886961 C5.17760723,18.886961 5.64133597,18.7738768 6.05289343,18.5727162 C7.28404715,23.401854 11.7183682,26.9773922 17,26.9773922 C22.2816318,26.9773922 26.7159528,23.401854 27.9471066,18.5727162 C28.358664,18.7738768 28.8223928,18.886961 29.3129196,18.886961 C29.5491031,18.886961 29.779074,18.8607444 30,18.8111028 Z M30,12.8949958 C28.8462262,7.94927897 24.8618414,4.06910554 19.8178677,3 C19.985275,3.3741291 20.0782299,3.78789268 20.0782299,4.22305448 C20.0782299,4.53199631 20.0313783,4.83015291 19.9442959,5.11099879 C23.872842,6.15443631 26.9533844,9.23555781 27.9471066,13.1333824 C28.358664,12.9322219 28.8223928,12.8191376 29.3129196,12.8191376 C29.5491031,12.8191376 29.779074,12.8453542 30,12.8949958 Z M4,12.8949958 C5.15377376,7.94927897 9.13815865,4.06910554 14.1821323,3 C14.014725,3.3741291 13.9217701,3.78789268 13.9217701,4.22305448 C13.9217701,4.53199631 13.9686217,4.83015291 14.0557041,5.11099879 C10.127158,6.15443631 7.04661561,9.23555781 6.05289343,13.1333824 C5.64133597,12.9322219 5.17760723,12.8191376 4.68708043,12.8191376 C4.45089687,12.8191376 4.22092597,12.8453542 4,12.8949958 Z" id="Combined-Shape"></path>
                    <path d="M16,8 C13.790861,8 12,6.209139 12,4 C12,1.790861 13.790861,0 16,0 C18.209139,0 20,1.790861 20,4 C20,6.209139 18.209139,8 16,8 Z M16,6 C17.1045695,6 18,5.1045695 18,4 C18,2.8954305 17.1045695,2 16,2 C14.8954305,2 14,2.8954305 14,4 C14,5.1045695 14.8954305,6 16,6 Z" id="Combined-Shape"></path>
                    <path d="M4,20 C1.790861,20 0,18.209139 0,16 C0,13.790861 1.790861,12 4,12 C6.209139,12 8,13.790861 8,16 C8,18.209139 6.209139,20 4,20 Z M4,18 C5.1045695,18 6,17.1045695 6,16 C6,14.8954305 5.1045695,14 4,14 C2.8954305,14 2,14.8954305 2,16 C2,17.1045695 2.8954305,18 4,18 Z" id="Combined-Shape-Copy-5"></path>
                    <path d="M28,20 C25.790861,20 24,18.209139 24,16 C24,13.790861 25.790861,12 28,12 C30.209139,12 32,13.790861 32,16 C32,18.209139 30.209139,20 28,20 Z M28,18 C29.1045695,18 30,17.1045695 30,16 C30,14.8954305 29.1045695,14 28,14 C26.8954305,14 26,14.8954305 26,16 C26,17.1045695 26.8954305,18 28,18 Z" id="Combined-Shape-Copy-6"></path>
                </g>
            </g>
        </g>
    </g>
</svg>