<svg width="96" height="96" viewBox="0 0 96 96" xmlns="http://www.w3.org/2000/svg" xmlns:xlink="http://www.w3.org/1999/xlink"><title>8714D530-425D-4B18-B56B-5B912FA6E5E4</title><defs><circle id="b" cx="34" cy="34" r="34"/><filter x="-50%" y="-50%" width="200%" height="200%" filterUnits="objectBoundingBox" id="a"><feOffset dy="10" in="SourceAlpha" result="shadowOffsetOuter1"/><feGaussianBlur stdDeviation="7" in="shadowOffsetOuter1" result="shadowBlurOuter1"/><feColorMatrix values="0 0 0 0 0 0 0 0 0 0 0 0 0 0 0 0 0 0 0.10082654 0" in="shadowBlurOuter1"/></filter><linearGradient x1="0%" y1="0%" y2="100%" id="c"><stop stop-color="#485252" offset="0%"/><stop stop-color="#454D50" offset="30.079%"/><stop stop-color="#3F424D" offset="100%"/></linearGradient></defs><g transform="translate(14 4)" fill="none" fill-rule="evenodd"><use fill="#000" filter="url(#a)" xlink:href="#b"/><use fill="#FFF" xlink:href="#b"/><path d="M44.054 32.166c-.256.585-.56 1.146-.907 1.678-.618 1.174-1.326 2.593-1.69 3.578-.73 1.97-.818 3.224-.818 3.224-.12.75-.835 1.354-1.619 1.354H26.98c-.784 0-1.5-.605-1.62-1.354 0 0-.087-1.253-.817-3.224-.364-.985-1.072-2.404-1.69-3.578a11.477 11.477 0 0 1-.907-1.678c-.15-.27-.24-.43-.177-.43A11.29 11.29 0 0 1 21 27.633C21 21.208 26.373 16 33 16s12 5.208 12 11.632c0 1.445-.272 2.828-.706 4.105l-.24.43zM26 44.5c0-.828.675-1.5 1.498-1.5h11.004c.827 0 1.498.666 1.498 1.5 0 .828-.675 1.5-1.498 1.5H27.498A1.495 1.495 0 0 1 26 44.5zm1 4c0-.828.68-1.5 1.496-1.5h9.008c.826 0 1.496.666 1.496 1.5 0 .828-.68 1.5-1.496 1.5h-9.008A1.494 1.494 0 0 1 27 48.5zm3.31 3.122c-.17-.344.013-.622.39-.622h4.6c.387 0 .562.277.39.622l-.88 1.756c-.17.344-.631.622-1.006.622h-1.608c-.384 0-.834-.277-1.007-.622l-.878-1.756z" fill="url(#c)"/><path d="M32 34.997c0-.55.444-.997 1-.997.552 0 1 .453 1 .997V42h-2v-7.003z" fill="#FFF"/><rect fill="#FFF" transform="rotate(45 35.536 32.536)" x="34.536" y="28.536" width="2" height="8" rx="1"/><rect fill="#FFF" transform="scale(-1 1) rotate(45 0 -41.184)" x="29.536" y="28.536" width="2" height="8" rx="1"/></g></svg>