<svg width="44" height="27" viewBox="0 0 44 27" xmlns="http://www.w3.org/2000/svg"><title>7B3FD8B0-AC13-4E86-8F6E-BF73FB986CDC</title><g fill="#837AEA" fill-rule="evenodd"><circle cx="41" cy="3" r="3"/><path d="M16.547 23.035a9.175 9.175 0 0 1-2.08.863L13.847 27h-3.693l-.62-3.102a9.175 9.175 0 0 1-2.08-.863L4.82 24.791 2.21 22.18l1.755-2.633a9.175 9.175 0 0 1-.863-2.08L0 16.847v-3.693l3.102-.62a9.175 9.175 0 0 1 .863-2.08L2.209 7.82 4.82 5.21l2.633 1.755a9.175 9.175 0 0 1 2.08-.863L10.153 3h3.693l.62 3.102a9.175 9.175 0 0 1 2.08.863l2.634-1.756 2.61 2.611-1.755 2.633c.368.649.66 1.346.863 2.08l3.102.62v3.693l-3.102.62a9.175 9.175 0 0 1-.863 2.08l1.756 2.634-2.611 2.61-2.633-1.755zM12 19.615a4.615 4.615 0 1 0 0-9.23 4.615 4.615 0 0 0 0 9.23z"/></g></svg>