<svg width="96" height="96" viewBox="0 0 96 96" xmlns="http://www.w3.org/2000/svg" xmlns:xlink="http://www.w3.org/1999/xlink"><title>1FD5FE64-33E4-4B05-AD6A-341BAADDE8FA</title><defs><circle id="b" cx="34" cy="34" r="34"/><filter x="-50%" y="-50%" width="200%" height="200%" filterUnits="objectBoundingBox" id="a"><feOffset dy="10" in="SourceAlpha" result="shadowOffsetOuter1"/><feGaussianBlur stdDeviation="7" in="shadowOffsetOuter1" result="shadowBlurOuter1"/><feColorMatrix values="0 0 0 0 0 0 0 0 0 0 0 0 0 0 0 0 0 0 0.10082654 0" in="shadowBlurOuter1"/></filter></defs><g fill="none" fill-rule="evenodd"><g transform="translate(14 4)"><use fill="#000" filter="url(#a)" xlink:href="#b"/><use fill="#FFF" xlink:href="#b"/></g><path d="M53.683 48.044c-.81.46-1.682.824-2.6 1.078L50.308 53h-4.616l-.775-3.878a11.468 11.468 0 0 1-2.6-1.078l-3.292 2.194-3.263-3.263 2.194-3.292c-.46-.81-.824-1.682-1.078-2.6L33 40.308v-4.616l3.878-.775c.254-.918.618-1.79 1.078-2.6l-2.194-3.292 3.263-3.263 3.292 2.194c.81-.46 1.682-.824 2.6-1.078L45.692 23h4.616l.775 3.878c.918.254 1.79.618 2.6 1.078l3.292-2.194 3.263 3.263-2.194 3.292c.46.81.824 1.682 1.078 2.6l3.878.775v4.616l-3.878.775c-.254.918-.618 1.79-1.078 2.6l2.194 3.292-3.263 3.263-3.292-2.194zM48 44a6 6 0 1 0 0-12 6 6 0 0 0 0 12z" fill="#464F51"/></g></svg>