<svg width="96" height="96" viewBox="0 0 96 96" xmlns="http://www.w3.org/2000/svg" xmlns:xlink="http://www.w3.org/1999/xlink"><title>97B119AE-B9C8-428D-A956-2B7311274682</title><defs><circle id="b" cx="34" cy="34" r="34"/><filter x="-50%" y="-50%" width="200%" height="200%" filterUnits="objectBoundingBox" id="a"><feOffset dy="10" in="SourceAlpha" result="shadowOffsetOuter1"/><feGaussianBlur stdDeviation="7" in="shadowOffsetOuter1" result="shadowBlurOuter1"/><feColorMatrix values="0 0 0 0 0 0 0 0 0 0 0 0 0 0 0 0 0 0 0.10082654 0" in="shadowBlurOuter1"/></filter><linearGradient x1="0%" y1="0%" y2="100%" id="c"><stop stop-color="#485252" offset="0%"/><stop stop-color="#454D50" offset="30.079%"/><stop stop-color="#3F424D" offset="100%"/></linearGradient></defs><g fill="none" fill-rule="evenodd"><g transform="translate(14 4)"><use fill="#000" filter="url(#a)" xlink:href="#b"/><use fill="#FFF" xlink:href="#b"/></g><path d="M29 27.608c0-.888.712-1.608 1.603-1.608h16.794c.885 0 1.603.722 1.603 1.608v23.784C49 52.28 48.288 53 47.397 53H30.603A1.607 1.607 0 0 1 29 51.392V27.608zM33 31c0 .556.449 1 1.002 1h9.996a.999.999 0 1 0 0-2h-9.996c-.546 0-1.002.448-1.002 1zm0 4c0 .556.449 1 1.002 1h9.996a.999.999 0 1 0 0-2h-9.996c-.546 0-1.002.448-1.002 1zm0 4c0 .556.449 1 1.002 1h9.996a.999.999 0 1 0 0-2h-9.996c-.546 0-1.002.448-1.002 1zm0 4c0 .556.449 1 1.003 1h4.994A.994.994 0 0 0 40 43c0-.556-.449-1-1.003-1h-4.994A.994.994 0 0 0 33 43z" fill="url(#c)" transform="translate(14 4)"/><path d="M44 24v-1.392c0-.886-.718-1.608-1.603-1.608H25.603c-.891 0-1.603.72-1.603 1.608v23.784c0 .886.718 1.608 1.603 1.608H27V24.993a1 1 0 0 1 .992-.993H44z" fill="url(#c)" opacity=".4" transform="translate(14 4)"/><path d="M39 19v-1.392c0-.886-.718-1.608-1.603-1.608H20.603c-.891 0-1.603.72-1.603 1.608v23.784c0 .886.718 1.608 1.603 1.608H22V19.993a1 1 0 0 1 .992-.993H39z" fill="url(#c)" opacity=".4" transform="translate(14 4)"/></g></svg>