<?xml version="1.0" encoding="UTF-8"?>
<svg width="23px" height="23px" viewBox="0 0 23 23" version="1.1" xmlns="http://www.w3.org/2000/svg" xmlns:xlink="http://www.w3.org/1999/xlink">
    <!-- Generator: sketchtool 41.2 (35397) - http://www.bohemiancoding.com/sketch -->
    <title>B509A2D0-97E1-421D-920B-3523669B78F9</title>
    <desc>Created with sketchtool.</desc>
    <defs></defs>
    <g id="Visual" stroke="none" stroke-width="1" fill="none" fill-rule="evenodd">
        <g id="States-/-Assets" transform="translate(-1522.000000, -3203.000000)" fill="#FFFFFF">
            <path d="M1533.45144,3213.11027 L1523.61792,3203.27674 C1523.24815,3202.90698 1522.64912,3202.90805 1522.27899,3203.27818 C1521.90628,3203.6509 1521.90821,3204.24777 1522.27754,3204.61711 L1532.11107,3214.45064 L1522.27754,3224.28416 C1521.90821,3224.6535 1521.90628,3225.25037 1522.27899,3225.62309 C1522.64912,3225.99322 1523.24815,3225.9943 1523.61792,3225.62453 L1533.45144,3215.79101 L1543.28497,3225.62453 C1543.65473,3225.9943 1544.25376,3225.99322 1544.6239,3225.62309 C1544.99661,3225.25037 1544.99468,3224.6535 1544.62534,3224.28416 L1534.79181,3214.45064 L1544.62534,3204.61711 C1544.99468,3204.24777 1544.99661,3203.6509 1544.6239,3203.27818 C1544.25376,3202.90805 1543.65473,3202.90698 1543.28497,3203.27674 L1533.45144,3213.11027 Z" id="close_button"></path>
        </g>
    </g>
</svg>