<svg xmlns="http://www.w3.org/2000/svg" width="401" height="340" viewBox="0 0 401 340">
    <defs>
        <filter id="a" width="137.4%" height="145.6%" x="-18.7%" y="-22.8%" filterUnits="objectBoundingBox">
            <feOffset in="SourceAlpha" result="shadowOffsetOuter1"/>
            <feGaussianBlur in="shadowOffsetOuter1" result="shadowBlurOuter1" stdDeviation="20"/>
            <feColorMatrix in="shadowBlurOuter1" result="shadowMatrixOuter1" values="0 0 0 0 0 0 0 0 0 0 0 0 0 0 0 0 0 0 0.299932065 0"/>
            <feMerge>
                <feMergeNode in="shadowMatrixOuter1"/>
                <feMergeNode in="SourceGraphic"/>
            </feMerge>
        </filter>
        <linearGradient id="b" x1="50%" x2="50%" y1="0%" y2="98.105%">
            <stop offset="0%" stop-color="#E8D585"/>
            <stop offset="100%" stop-color="#CEA75D"/>
        </linearGradient>
        <linearGradient id="c" x1="0%" y1="58.029%" y2="58.029%">
            <stop offset="0%" stop-color="#DFD07E"/>
            <stop offset="100%" stop-color="#CDA65D"/>
        </linearGradient>
        <linearGradient id="d" x1="0%" y1="50%" y2="50%">
            <stop offset="0%" stop-color="#AA7D1E"/>
            <stop offset="100%" stop-color="#FFF5AB"/>
        </linearGradient>
        <filter id="e" width="166.6%" height="102.1%" x="-33.3%" y="-1.1%" filterUnits="objectBoundingBox">
            <feGaussianBlur in="SourceGraphic" stdDeviation=".8"/>
        </filter>
        <filter id="f" width="166.6%" height="102.1%" x="-33.3%" y="-1.1%" filterUnits="objectBoundingBox">
            <feGaussianBlur in="SourceGraphic" stdDeviation=".8"/>
        </filter>
        <filter id="g" width="166.6%" height="102.1%" x="-33.3%" y="-1.1%" filterUnits="objectBoundingBox">
            <feGaussianBlur in="SourceGraphic" stdDeviation=".8"/>
        </filter>
        <filter id="h" width="166.6%" height="102.1%" x="-33.3%" y="-1.1%" filterUnits="objectBoundingBox">
            <feGaussianBlur in="SourceGraphic" stdDeviation=".8"/>
        </filter>
        <filter id="i" width="166.6%" height="102.1%" x="-33.3%" y="-1.1%" filterUnits="objectBoundingBox">
            <feGaussianBlur in="SourceGraphic" stdDeviation=".8"/>
        </filter>
        <filter id="j" width="166.6%" height="102.1%" x="-33.3%" y="-1.1%" filterUnits="objectBoundingBox">
            <feGaussianBlur in="SourceGraphic" stdDeviation=".8"/>
        </filter>
        <filter id="k" width="166.6%" height="102.1%" x="-33.3%" y="-1.1%" filterUnits="objectBoundingBox">
            <feGaussianBlur in="SourceGraphic" stdDeviation=".8"/>
        </filter>
        <filter id="l" width="199.9%" height="102.1%" x="-50%" y="-1.1%" filterUnits="objectBoundingBox">
            <feGaussianBlur in="SourceGraphic" stdDeviation=".8"/>
        </filter>
        <filter id="m" width="199.9%" height="102.1%" x="-50%" y="-1.1%" filterUnits="objectBoundingBox">
            <feGaussianBlur in="SourceGraphic" stdDeviation=".8"/>
        </filter>
        <filter id="n" width="199.9%" height="102.1%" x="-50%" y="-1.1%" filterUnits="objectBoundingBox">
            <feGaussianBlur in="SourceGraphic" stdDeviation=".8"/>
        </filter>
        <filter id="o" width="199.9%" height="102.1%" x="-50%" y="-1.1%" filterUnits="objectBoundingBox">
            <feGaussianBlur in="SourceGraphic" stdDeviation=".8"/>
        </filter>
        <filter id="p" width="199.9%" height="102.1%" x="-50%" y="-1.1%" filterUnits="objectBoundingBox">
            <feGaussianBlur in="SourceGraphic" stdDeviation=".8"/>
        </filter>
        <filter id="q" width="199.9%" height="102.1%" x="-50%" y="-1.1%" filterUnits="objectBoundingBox">
            <feGaussianBlur in="SourceGraphic" stdDeviation=".8"/>
        </filter>
        <filter id="r" width="166.6%" height="102.1%" x="-33.3%" y="-1.1%" filterUnits="objectBoundingBox">
            <feGaussianBlur in="SourceGraphic" stdDeviation=".8"/>
        </filter>
        <filter id="s" width="166.6%" height="102.1%" x="-33.3%" y="-1.1%" filterUnits="objectBoundingBox">
            <feGaussianBlur in="SourceGraphic" stdDeviation=".8"/>
        </filter>
        <filter id="t" width="166.6%" height="102.1%" x="-33.3%" y="-1.1%" filterUnits="objectBoundingBox">
            <feGaussianBlur in="SourceGraphic" stdDeviation=".8"/>
        </filter>
        <filter id="u" width="166.6%" height="102.1%" x="-33.3%" y="-1.1%" filterUnits="objectBoundingBox">
            <feGaussianBlur in="SourceGraphic" stdDeviation=".8"/>
        </filter>
        <filter id="v" width="166.6%" height="102.1%" x="-33.3%" y="-1.1%" filterUnits="objectBoundingBox">
            <feGaussianBlur in="SourceGraphic" stdDeviation=".8"/>
        </filter>
        <filter id="w" width="166.6%" height="102.1%" x="-33.3%" y="-1.1%" filterUnits="objectBoundingBox">
            <feGaussianBlur in="SourceGraphic" stdDeviation=".8"/>
        </filter>
        <filter id="x" width="166.6%" height="102.1%" x="-33.3%" y="-1.1%" filterUnits="objectBoundingBox">
            <feGaussianBlur in="SourceGraphic" stdDeviation=".8"/>
        </filter>
        <filter id="y" width="199.9%" height="102.1%" x="-50%" y="-1.1%" filterUnits="objectBoundingBox">
            <feGaussianBlur in="SourceGraphic" stdDeviation=".8"/>
        </filter>
        <filter id="z" width="199.9%" height="102.1%" x="-50%" y="-1.1%" filterUnits="objectBoundingBox">
            <feGaussianBlur in="SourceGraphic" stdDeviation=".8"/>
        </filter>
        <filter id="A" width="199.9%" height="102.1%" x="-50%" y="-1.1%" filterUnits="objectBoundingBox">
            <feGaussianBlur in="SourceGraphic" stdDeviation=".8"/>
        </filter>
        <filter id="B" width="199.9%" height="102.1%" x="-50%" y="-1.1%" filterUnits="objectBoundingBox">
            <feGaussianBlur in="SourceGraphic" stdDeviation=".8"/>
        </filter>
    </defs>
    <g fill="none" fill-rule="evenodd" filter="url(#a)" transform="translate(40 37)">
        <path fill="#292926" d="M2.4 16.012h316.2a2.4 2.4 0 0 1 2.4 2.4V260.6a2.4 2.4 0 0 1-2.4 2.4H2.4a2.4 2.4 0 0 1-2.4-2.4V18.412a2.4 2.4 0 0 1 2.4-2.4z"/>
        <path fill="url(#b)" d="M.8 18.014h19.213a.8.8 0 0 1 .8.8v3.203H0v-3.203a.8.8 0 0 1 .8-.8z" transform="translate(256.16)"/>
        <path fill="url(#c)" d="M4.402 2.402h12.009a.8.8 0 0 1 .8.8v14.812H3.602V3.202a.8.8 0 0 1 .8-.8z" transform="translate(256.16)"/>
        <path fill="url(#b)" d="M6.804 0h7.205a.8.8 0 0 1 .8.8v1.602H6.004V.8a.8.8 0 0 1 .8-.8z" transform="translate(256.16)"/>
        <path fill="url(#d)" d="M2.802 16.012h15.21v1.201H2.801v-1.2zm0-2.001h15.21v1.2H2.801v-1.2zm0-2.002h15.21v1.201H2.801v-1.2zm0-2.001h15.21v1.2H2.801v-1.2zm0-2.002h15.21v1.201H2.801v-1.2zm0-2.001h15.21v1.2H2.801v-1.2zm0-2.002h15.21v1.201H2.801V4.003z" transform="translate(256.16)"/>
        <path fill="url(#b)" d="M.8 18.014h19.213a.8.8 0 0 1 .8.8v3.203H0v-3.203a.8.8 0 0 1 .8-.8z" transform="translate(44.027)"/>
        <path fill="url(#c)" d="M4.402 2.402h12.009a.8.8 0 0 1 .8.8v14.812H3.602V3.202a.8.8 0 0 1 .8-.8z" transform="translate(44.027)"/>
        <path fill="url(#b)" d="M6.804 0h7.205a.8.8 0 0 1 .8.8v1.602H6.004V.8a.8.8 0 0 1 .8-.8z" transform="translate(44.027)"/>
        <path fill="url(#d)" d="M2.802 16.012h15.21v1.201H2.801v-1.2zm0-2.001h15.21v1.2H2.801v-1.2zm0-2.002h15.21v1.201H2.801v-1.2zm0-2.001h15.21v1.2H2.801v-1.2zm0-2.002h15.21v1.201H2.801v-1.2zm0-2.001h15.21v1.2H2.801v-1.2zm0-2.002h15.21v1.201H2.801V4.003z" transform="translate(44.027)"/>
        <g>
            <path fill="#3A3A36" d="M4.802 20.015h7.205v238.982H4.802a.8.8 0 0 1-.8-.8V20.815a.8.8 0 0 1 .8-.8zM27.216 20.416h6.405v238.18h-6.405a.8.8 0 0 1-.8-.8V21.217a.8.8 0 0 1 .8-.8z"/>
            <path fill="#52524B" d="M12.007 20.015l14.41 2.002v234.978l-14.41 2.002zM33.62 20.366l13.61 1.6v234.58l-13.61 2zM53.633 20.015l12.808 1.601v234.98l-12.808 1.6zM72.045 20.015l12.007 1.201v235.38l-12.007 1.6zM88.855 20.015l10.407 1.201v235.38l-10.407 1.6zM103.264 20.015l8.806 1.201v235.38l-8.806 1.6zM115.272 20.015l8.005 1.201v235.38l-8.005 1.6zM126.479 20.015l7.204 1.201v235.38l-7.204 1.6zM136.885 20.015l5.604 1.201v235.38l-5.604 1.6zM145.69 20.015l5.604 1.201v235.38l-5.603 1.6zM154.496 20.015l4.803 1.201v235.38l-4.803 1.6z"/>
            <path fill="#1F1F1C" d="M16.01 7.205l7.204 1.201v222.17l-7.204 1.2z" filter="url(#e)" opacity=".147" transform="translate(4.002 20.015)"/>
            <path fill="#1F1F1C" d="M103.665 7.205l7.204 1.201v222.17l-7.204 1.2z" filter="url(#f)" opacity=".147" transform="translate(4.002 20.015)"/>
            <path fill="#1F1F1C" d="M37.623 7.205l7.205 1.201v222.17l-7.205 1.2z" filter="url(#g)" opacity=".147" transform="translate(4.002 20.015)"/>
            <path fill="#1F1F1C" d="M56.835 7.205l7.205 1.201v222.17l-7.205 1.2z" filter="url(#h)" opacity=".147" transform="translate(4.002 20.015)"/>
            <path fill="#1F1F1C" d="M75.247 7.205l7.204 1.201v222.17l-7.204 1.2z" filter="url(#i)" opacity=".147" transform="translate(4.002 20.015)"/>
            <path fill="#1F1F1C" d="M89.656 7.205l7.204 1.201v222.17l-7.204 1.2z" filter="url(#j)" opacity=".147" transform="translate(4.002 20.015)"/>
            <path fill="#1F1F1C" d="M115.672 7.205l7.205 1.201v222.17l-7.205 1.2z" filter="url(#k)" opacity=".147" transform="translate(4.002 20.015)"/>
            <path fill="#1F1F1C" d="M126.88 7.205l4.802 1.201v222.17l-4.803 1.2z" filter="url(#l)" opacity=".147" transform="translate(4.002 20.015)"/>
            <path fill="#1F1F1C" d="M135.284 7.205l4.803 1.201v222.17l-4.803 1.2z" filter="url(#m)" opacity=".147" transform="translate(4.002 20.015)"/>
            <path fill="#1F1F1C" d="M144.49 7.205l4.803 1.201v222.17l-4.803 1.2z" filter="url(#n)" opacity=".147" transform="translate(4.002 20.015)"/>
            <path fill="#1F1F1C" d="M106.466 7.205l4.803 1.201v222.17l-4.803 1.2z" filter="url(#o)" opacity=".147" transform="translate(4.002 20.015)"/>
            <path fill="#3A3A36" d="M151.294 20.015h3.202v238.181h-3.202zM142.488 20.015h3.202v238.181h-3.202zM133.683 20.015h3.202v238.181h-3.202zM123.276 20.015h3.202v238.181h-3.202zM112.87 20.015h2.402v238.181h-2.402a.8.8 0 0 1-.8-.8V20.816a.8.8 0 0 1 .8-.8zM100.062 20.015h3.202v238.181h-3.202a.8.8 0 0 1-.8-.8V20.816a.8.8 0 0 1 .8-.8zM84.852 20.015h4.003v238.181h-4.003a.8.8 0 0 1-.8-.8V20.816a.8.8 0 0 1 .8-.8zM67.241 20.015h4.804v238.181H67.24a.8.8 0 0 1-.8-.8V20.816a.8.8 0 0 1 .8-.8zM48.03 20.015h5.603v238.181H48.03a.8.8 0 0 1-.8-.8V20.816a.8.8 0 0 1 .8-.8z"/>
        </g>
        <g>
            <path fill="#1F1F1C" d="M153.296 7.205l4.803 1.201v222.17l-4.803 1.2z" filter="url(#p)" opacity=".147" transform="matrix(-1 0 0 1 316.998 20.015)"/>
            <path fill="#3A3A36" d="M316.198 20.015h-7.205v238.982h7.205a.8.8 0 0 0 .8-.8V20.815a.8.8 0 0 0-.8-.8zM293.784 20.416h-6.405v238.18h6.405a.8.8 0 0 0 .8-.8V21.217a.8.8 0 0 0-.8-.8z"/>
            <path fill="#52524B" d="M308.993 20.015l-14.41 2.002v234.978l14.41 2.002zM287.38 20.366l-13.61 1.6v234.58l13.61 2zM267.367 20.015l-12.808 1.601v234.98l12.808 1.6zM248.955 20.015l-12.007 1.201v235.38l12.007 1.6zM232.145 20.015l-10.407 1.201v235.38l10.407 1.6zM217.736 20.015l-8.806 1.201v235.38l8.806 1.6zM205.728 20.015l-8.005 1.201v235.38l8.005 1.6zM194.521 20.015l-7.204 1.201v235.38l7.204 1.6zM184.115 20.015l-5.604 1.201v235.38l5.604 1.6zM175.31 20.015l-5.604 1.201v235.38l5.603 1.6zM166.504 20.015l-4.803 1.201v235.38l4.803 1.6z"/>
            <path fill="#1F1F1C" d="M152.895 7.205l4.803 1.201v222.17l-4.803 1.2z" filter="url(#q)" opacity=".147" transform="matrix(-1 0 0 1 316.998 20.015)"/>
            <path fill="#1F1F1C" d="M16.01 7.205l7.204 1.201v222.17l-7.204 1.2z" filter="url(#r)" opacity=".147" transform="matrix(-1 0 0 1 316.998 20.015)"/>
            <path fill="#1F1F1C" d="M103.665 7.205l7.204 1.201v222.17l-7.204 1.2z" filter="url(#s)" opacity=".147" transform="matrix(-1 0 0 1 316.998 20.015)"/>
            <path fill="#1F1F1C" d="M37.623 7.205l7.205 1.201v222.17l-7.205 1.2z" filter="url(#t)" opacity=".147" transform="matrix(-1 0 0 1 316.998 20.015)"/>
            <path fill="#1F1F1C" d="M56.835 7.205l7.205 1.201v222.17l-7.205 1.2z" filter="url(#u)" opacity=".147" transform="matrix(-1 0 0 1 316.998 20.015)"/>
            <path fill="#1F1F1C" d="M75.247 7.205l7.204 1.201v222.17l-7.204 1.2z" filter="url(#v)" opacity=".147" transform="matrix(-1 0 0 1 316.998 20.015)"/>
            <path fill="#1F1F1C" d="M89.656 7.205l7.204 1.201v222.17l-7.204 1.2z" filter="url(#w)" opacity=".147" transform="matrix(-1 0 0 1 316.998 20.015)"/>
            <path fill="#1F1F1C" d="M115.672 7.205l7.205 1.201v222.17l-7.205 1.2z" filter="url(#x)" opacity=".147" transform="matrix(-1 0 0 1 316.998 20.015)"/>
            <path fill="#1F1F1C" d="M126.88 7.205l4.802 1.201v222.17l-4.803 1.2z" filter="url(#y)" opacity=".147" transform="matrix(-1 0 0 1 316.998 20.015)"/>
            <path fill="#1F1F1C" d="M135.284 7.205l4.803 1.201v222.17l-4.803 1.2z" filter="url(#z)" opacity=".147" transform="matrix(-1 0 0 1 316.998 20.015)"/>
            <path fill="#1F1F1C" d="M144.49 7.205l4.803 1.201v222.17l-4.803 1.2z" filter="url(#A)" opacity=".147" transform="matrix(-1 0 0 1 316.998 20.015)"/>
            <path fill="#1F1F1C" d="M106.466 7.205l4.803 1.201v222.17l-4.803 1.2z" filter="url(#B)" opacity=".147" transform="matrix(-1 0 0 1 316.998 20.015)"/>
            <path fill="#3A3A36" d="M169.706 20.015h-3.202v238.181h3.202zM178.512 20.015h-3.202v238.181h3.202zM187.317 20.015h-3.202v238.181h3.202zM197.724 20.015h-3.202v238.181h3.202zM208.13 20.015h-2.402v238.181h2.402a.8.8 0 0 0 .8-.8V20.816a.8.8 0 0 0-.8-.8zM220.938 20.015h-3.202v238.181h3.202a.8.8 0 0 0 .8-.8V20.816a.8.8 0 0 0-.8-.8zM236.148 20.015h-4.003v238.181h4.003a.8.8 0 0 0 .8-.8V20.816a.8.8 0 0 0-.8-.8zM253.759 20.015h-4.804v238.181h4.804a.8.8 0 0 0 .8-.8V20.816a.8.8 0 0 0-.8-.8zM272.97 20.015h-5.603v238.181h5.604a.8.8 0 0 0 .8-.8V20.816a.8.8 0 0 0-.8-.8z"/>
        </g>
        <path fill="#3A3A36" d="M159.299 20.015h2.401v238.181h-2.401z"/>
    </g>
</svg>
