<svg xmlns="http://www.w3.org/2000/svg" xmlns:xlink="http://www.w3.org/1999/xlink" width="225" height="178" viewBox="0 0 225 178">
    <defs>
        <linearGradient id="a" x1="50%" x2="50%" y1="0%" y2="100%">
            <stop offset="0%" stop-color="#414141"/>
            <stop offset="100%" stop-color="#7F7F7F"/>
        </linearGradient>
        <circle id="b" cx="175" cy="50" r="50"/>
    </defs>
    <g fill="none" fill-rule="evenodd">
        <g>
            <use fill="url(#a)" xlink:href="#b"/>
            <circle cx="175" cy="50" r="45.2" stroke="#DEDEDE" stroke-width="9.6"/>
        </g>
        <path fill="#DEDEDE" d="M132 73l16 16-20 4z"/>
        <path stroke="#FFF" stroke-width="4.8" d="M155.4 45.414h38.2a4.8 4.8 0 0 1 4.8 4.8v12.13a4.8 4.8 0 0 1-4.8 4.8h-38.2a4.8 4.8 0 0 1-4.8-4.8v-12.13a4.8 4.8 0 0 1 4.8-4.8z"/>
        <path fill="#FFF" d="M192.417 34.215a3.574 3.574 0 0 1 1.194 2.67v6.092h-1.194v1.209h-4.778v-1.21h-1.195v-6.09c0-1.062.462-2.015 1.195-2.671V22.389a2.389 2.389 0 0 1 4.778 0v11.826zM155.389 68.58h7.167V70.8a1.2 1.2 0 0 1-1.2 1.2h-4.767a1.2 1.2 0 0 1-1.2-1.2v-2.219zm31.055 0h7.167V70.8a1.2 1.2 0 0 1-1.2 1.2h-4.767a1.2 1.2 0 0 1-1.2-1.2v-2.219zm-17.916-9.883c-1.32 0-2.39-1.083-2.39-2.419s1.07-2.419 2.39-2.419 2.389 1.083 2.389 2.42c0 1.335-1.07 2.418-2.39 2.418zm27.517-4.808v4.778h-6.056a1.2 1.2 0 0 1-1.2-1.2V55.09a1.2 1.2 0 0 1 1.2-1.2h6.056zm-34.684 4.808c-1.32 0-2.389-1.083-2.389-2.419s1.07-2.419 2.39-2.419c1.318 0 2.388 1.083 2.388 2.42 0 1.335-1.07 2.418-2.389 2.418z"/>
        <path fill="#7FCBCF" d="M42.316 87h53.368c8.494 0 16.49 7.872 23.988 23.615 2.156-2.288 3.953-3.454 5.39-3.634 2.157-.27 7.817.437 9.973 1.346 2.1.886 2.965 2.884 2.965 3.77 0 2.692-.325 4.382-3.504 5.922-1.316.638-3.72 1.261-7.214 1.868 4.77 1.932 7.444 3.534 8.023 4.805 1.347 2.962 2.088 18.568-.54 23.962-.168.346-.348.688-.538 1.025v20.783c0 4.163-3.38 7.538-7.547 7.538h-13.477c-4.168 0-7.547-3.375-7.547-7.538v-4.233a85.036 85.036 0 0 1-3.773.733c-7.897 1.349-18.858 2.007-32.883 1.973-14.025.034-24.986-.624-32.883-1.973-1.26-.216-2.52-.46-3.773-.733v4.233c0 4.163-3.38 7.538-7.547 7.538H11.32c-4.168 0-7.547-3.375-7.547-7.538v-20.783c-.19-.337-.37-.679-.539-1.025-2.627-5.394-1.886-21-.539-23.962.579-1.271 3.253-2.873 8.023-4.805-3.493-.607-5.898-1.23-7.214-1.868C.325 116.48 0 114.79 0 112.096c0-.885.865-2.883 2.965-3.769 2.156-.909 7.816-1.615 9.973-1.346 1.437.18 3.234 1.346 5.39 3.634C25.826 94.872 33.822 87 42.316 87zm51.155 5.923H44.53c-7.705 0-14.903 8.436-21.593 25.308h92.128c-6.69-16.872-13.888-25.308-21.593-25.308zm-65.7 53.307c3.666 1.26 11.228-.003 12.423-3.47 1.195-3.467-6.348-9.044-12.422-11.133-6.074-2.089-9.733-.7-9.733 5.217 0 5.916 6.067 8.125 9.733 9.386zm82.457 0c3.666-1.26 9.733-3.47 9.733-9.386 0-5.917-3.659-7.306-9.733-5.217-6.074 2.09-13.617 7.666-12.422 11.133 1.195 3.467 8.757 4.73 12.422 3.47z"/>
    </g>
</svg>
