<svg xmlns="http://www.w3.org/2000/svg" width="174" height="256" viewBox="0 0 174 256">
    <defs>
        <linearGradient id="a" x1="50%" x2="50%" y1="0%" y2="100%">
            <stop offset="0%" stop-opacity="0"/>
            <stop offset="99.735%" stop-opacity=".8"/>
        </linearGradient>
        <linearGradient id="b" x1="50%" x2="50%" y1="0%" y2="100%">
            <stop offset="0%" stop-opacity="0"/>
            <stop offset="100%" stop-opacity=".804"/>
        </linearGradient>
    </defs>
    <g fill="none" fill-rule="evenodd">
        <path fill="url(#a)" d="M0 0h77v256H0z" opacity=".2" transform="matrix(1 0 0 -1 0 256)"/>
        <path fill="url(#b)" d="M97 0h77v256H97z" opacity=".2"/>
        <g fill="#7FCBCF" fill-rule="nonzero">
            <path d="M91.429 121.215c-.403 5.592 1.692 11.313 5.637 15.304.54.523 1.482.455 1.976-.097.598-.507.609-1.521.026-2.044-3.29-3.414-5.07-8.234-4.717-12.967.254-3.932 1.95-7.741 4.666-10.594.26-.254.473-.578.491-.95.11-.936-.868-1.8-1.784-1.598-.328.057-.602.268-.82.509-3.203 3.34-5.17 7.824-5.475 12.437z"/>
            <path d="M96.92 121.077c-.467 4.284 1.115 8.732 4.18 11.764.542.473 1.428.414 1.915-.112.588-.48.654-1.447.12-1.991-1.915-1.941-3.132-4.565-3.331-7.286-.275-3.305.98-6.68 3.312-9.033.574-.543.509-1.554-.102-2.042-.497-.526-1.407-.57-1.934-.065-2.337 2.332-3.823 5.485-4.16 8.765z"/>
            <path d="M102.338 121.71c-.269 2.704.768 5.498 2.728 7.38.537.515 1.461.455 1.958-.088.595-.492.635-1.48.077-2.015-1.09-1.06-1.779-2.53-1.862-4.05-.123-1.726.56-3.472 1.774-4.698.34-.301.548-.749.494-1.207-.075-1.064-1.497-1.802-2.35-1.07-1.608 1.48-2.604 3.582-2.82 5.748z"/>
        </g>
        <g fill="#7FCBCF" fill-rule="nonzero">
            <path d="M85.27 121.215c.403 5.592-1.692 11.313-5.638 15.304-.54.523-1.482.455-1.976-.097-.598-.507-.609-1.521-.026-2.044 3.291-3.414 5.07-8.234 4.717-12.967-.254-3.932-1.95-7.741-4.666-10.594-.26-.254-.473-.578-.49-.95-.11-.936.867-1.8 1.783-1.598.329.057.602.268.821.509 3.203 3.34 5.17 7.824 5.474 12.437z"/>
            <path d="M79.778 121.077c.467 4.284-1.114 8.732-4.18 11.764-.541.473-1.428.414-1.914-.112-.589-.48-.655-1.447-.121-1.991 1.916-1.941 3.132-4.565 3.332-7.286.274-3.305-.981-6.68-3.313-9.033-.574-.543-.509-1.554.102-2.042.498-.526 1.408-.57 1.935-.065 2.336 2.332 3.822 5.485 4.16 8.765z"/>
            <path d="M74.36 121.71c.27 2.704-.767 5.498-2.728 7.38-.537.515-1.46.455-1.957-.088-.596-.492-.636-1.48-.078-2.015 1.09-1.06 1.78-2.53 1.862-4.05.123-1.726-.56-3.472-1.774-4.698-.34-.301-.547-.749-.493-1.207.074-1.064 1.497-1.802 2.35-1.07 1.607 1.48 2.603 3.582 2.819 5.748z"/>
        </g>
        <path fill="#FFF" d="M62.575 96.797V37.5a7.5 7.5 0 0 0-7.5-7.5H22.178a7.5 7.5 0 0 0-7.5 7.5v59.297H8.39s-1.197 3.894.599 5.092c1.065.711 3.711 1 5.688 1.118v27.322c0 5.8 4.7 10.5 10.5 10.5h26.897c5.8 0 10.5-4.7 10.5-10.5v-27.328c1.966-.12 4.547-.412 5.597-1.112 1.796-1.198.598-5.092.598-5.092h-6.195zm-14.668 36.095c0-3.277 2.077-3.144 4.64-3.144 2.562 0 4.64 1.408 4.64 3.144 0 1.737-2.078 3.145-4.64 3.145-2.563 0-4.64.133-4.64-3.145zm-18.56 0c0 3.277-2.078 3.144-4.64 3.144-2.563 0-4.64-1.408-4.64-3.144 0-1.737 2.077-3.145 4.64-3.145 2.562 0 4.64-.133 4.64 3.145zM55.7 107.167a1.8 1.8 0 0 1-1.311 2.046c-4.165 1.108-9.419 1.663-15.762 1.663-6.344 0-11.598-.555-15.763-1.663a1.8 1.8 0 0 1-1.31-2.046l2.406-13.94a1.8 1.8 0 0 1 2.074-1.47c3.462.587 7.66.88 12.593.88 4.932 0 9.13-.293 12.592-.88a1.8 1.8 0 0 1 2.074 1.47l2.407 13.94zm-.013-60.923l-2.387 13.4a1.8 1.8 0 0 1-2.064 1.46c-3.466-.57-7.67-.854-12.61-.854-4.94 0-9.143.284-12.609.854a1.8 1.8 0 0 1-2.064-1.46l-2.387-13.4a1.8 1.8 0 0 1 1.324-2.06c4.16-1.069 9.406-1.603 15.737-1.603 6.33 0 11.576.534 15.736 1.604a1.8 1.8 0 0 1 1.324 2.059zm3.296 44.191a1.2 1.2 0 0 1-2.168.71l-3.288-4.485a1.2 1.2 0 0 1-.232-.71V66.308a1.2 1.2 0 0 1 .232-.71l3.288-4.484a1.2 1.2 0 0 1 2.168.71v28.612zm-40.713 0V61.823a1.2 1.2 0 0 1 2.168-.71l3.288 4.485a1.2 1.2 0 0 1 .232.71V85.95a1.2 1.2 0 0 1-.232.71l-3.288 4.484a1.2 1.2 0 0 1-2.168-.71z"/>
        <path fill="#DEDEDE" d="M159.414 158.203V217.5a7.5 7.5 0 0 1-7.5 7.5h-32.898a7.5 7.5 0 0 1-7.5-7.5v-59.297h-6.286s-1.198-3.894.598-5.092c1.066-.711 3.712-1 5.688-1.118v-27.322c0-5.8 4.701-10.5 10.5-10.5h26.898c5.799 0 10.5 4.7 10.5 10.5v27.328c1.966.12 4.547.412 5.596 1.112 1.796 1.198.599 5.092.599 5.092h-6.195zm-14.669-36.095c0 3.277 2.078 3.144 4.64 3.144 2.563 0 4.64-1.408 4.64-3.144 0-1.737-2.077-3.145-4.64-3.145-2.562 0-4.64-.133-4.64 3.145zm-18.56 0c0-3.277-2.077-3.144-4.64-3.144-2.563 0-4.64 1.408-4.64 3.144 0 1.737 2.077 3.145 4.64 3.145 2.563 0 4.64.133 4.64-3.145zm26.353 25.725a1.8 1.8 0 0 0-1.31-2.046c-4.165-1.108-9.419-1.663-15.763-1.663-6.343 0-11.598.555-15.762 1.663a1.8 1.8 0 0 0-1.31 2.046l2.405 13.94a1.8 1.8 0 0 0 2.074 1.47c3.463-.587 7.66-.88 12.593-.88s9.13.293 12.593.88a1.8 1.8 0 0 0 2.074-1.47l2.406-13.94zm-.012 60.923l-2.388-13.4a1.8 1.8 0 0 0-2.063-1.46c-3.466.57-7.67.854-12.61.854-4.94 0-9.143-.284-12.609-.854a1.8 1.8 0 0 0-2.064 1.46l-2.387 13.4a1.8 1.8 0 0 0 1.324 2.06c4.16 1.069 9.406 1.603 15.736 1.603s11.576-.534 15.737-1.604a1.8 1.8 0 0 0 1.324-2.059zm3.296-44.191a1.2 1.2 0 0 0-2.168-.71l-3.288 4.485a1.2 1.2 0 0 0-.232.71v19.643c0 .255.081.503.232.71l3.288 4.484a1.2 1.2 0 0 0 2.168-.71v-28.612zm-40.713 0v28.612a1.2 1.2 0 0 0 2.167.71l3.288-4.485a1.2 1.2 0 0 0 .232-.71V169.05a1.2 1.2 0 0 0-.232-.71l-3.288-4.484a1.2 1.2 0 0 0-2.167.71z"/>
    </g>
</svg>
