<svg xmlns="http://www.w3.org/2000/svg" xmlns:xlink="http://www.w3.org/1999/xlink" width="186" height="186" viewBox="0 0 186 186">
    <defs>
        <circle id="a" cx="74" cy="74" r="74"/>
    </defs>
    <g fill="none" fill-rule="evenodd">
        <circle cx="93" cy="93" r="88.2" stroke="#7FCBCF" stroke-width="9.6"/>
        <g transform="translate(19 19)">
            <mask id="b" fill="#fff">
                <use xlink:href="#a"/>
            </mask>
            <path fill="#FFF" d="M5.526 57.822c-3.065 0-4.376-2.901-4.376-5.654 0-2.754 1.311-5.638 4.376-5.638 3.065 0 4.376 2.884 4.376 5.638 0 2.753-1.311 5.654-4.376 5.654zm0-1.705c1.786 0 2.426-1.868 2.426-3.95 0-2.08-.64-3.933-2.426-3.933S3.1 50.086 3.1 52.168c0 2.081.64 3.95 2.426 3.95zm11.393 1.508V46.694h-1.672l-3.147 3.18 1.115 1.163L15 49.185v8.44h1.918zm7.508 0V46.694h-1.672l-3.146 3.18 1.114 1.163 1.787-1.852v8.44h1.917zm7.492.197c-3.065 0-4.376-2.901-4.376-5.654 0-2.754 1.311-5.638 4.376-5.638 3.065 0 4.376 2.884 4.376 5.638 0 2.753-1.311 5.654-4.376 5.654zm0-1.705c1.786 0 2.426-1.868 2.426-3.95 0-2.08-.64-3.933-2.426-3.933s-2.426 1.852-2.426 3.934c0 2.081.64 3.95 2.426 3.95zm11.376 1.705c-3.064 0-4.376-2.901-4.376-5.654 0-2.754 1.312-5.638 4.376-5.638 3.065 0 4.376 2.884 4.376 5.638 0 2.753-1.31 5.654-4.376 5.654zm0-1.705c1.787 0 2.426-1.868 2.426-3.95 0-2.08-.64-3.933-2.426-3.933s-2.425 1.852-2.425 3.934c0 2.081.639 3.95 2.425 3.95zm11.393 1.508V46.694h-1.672l-3.146 3.18 1.114 1.163 1.786-1.852v8.44h1.918zm7.492.197c-3.065 0-4.376-2.901-4.376-5.654 0-2.754 1.311-5.638 4.376-5.638 3.065 0 4.376 2.884 4.376 5.638 0 2.753-1.311 5.654-4.376 5.654zm0-1.705c1.786 0 2.426-1.868 2.426-3.95 0-2.08-.64-3.933-2.426-3.933s-2.426 1.852-2.426 3.934c0 2.081.64 3.95 2.426 3.95zm11.393 1.508V46.694H71.9l-3.147 3.18 1.115 1.163 1.786-1.852v8.44h1.918zm7.508 0V46.694H79.41l-3.146 3.18 1.114 1.163 1.786-1.852v8.44h1.918zm7.508 0V46.694h-1.671l-3.147 3.18 1.114 1.163 1.787-1.852v8.44h1.917zm7.492.197c-3.064 0-4.376-2.901-4.376-5.654 0-2.754 1.312-5.638 4.376-5.638 3.065 0 4.376 2.884 4.376 5.638 0 2.753-1.31 5.654-4.376 5.654zm0-1.705c1.787 0 2.426-1.868 2.426-3.95 0-2.08-.64-3.933-2.426-3.933s-2.425 1.852-2.425 3.934c0 2.081.639 3.95 2.425 3.95zm11.377 1.705c-3.065 0-4.376-2.901-4.376-5.654 0-2.754 1.31-5.638 4.376-5.638 3.065 0 4.376 2.884 4.376 5.638 0 2.753-1.311 5.654-4.376 5.654zm0-1.705c1.786 0 2.425-1.868 2.425-3.95 0-2.08-.639-3.933-2.425-3.933-1.787 0-2.426 1.852-2.426 3.934 0 2.081.64 3.95 2.426 3.95zm11.392 1.508V46.694h-1.671l-3.147 3.18 1.114 1.163 1.787-1.852v8.44h1.917zm7.509 0V46.694h-1.672l-3.147 3.18 1.115 1.163 1.786-1.852v8.44h1.918zm7.492.197c-3.065 0-4.376-2.901-4.376-5.654 0-2.754 1.31-5.638 4.376-5.638 3.065 0 4.376 2.884 4.376 5.638 0 2.753-1.311 5.654-4.376 5.654zm0-1.705c1.786 0 2.425-1.868 2.425-3.95 0-2.08-.639-3.933-2.425-3.933-1.787 0-2.426 1.852-2.426 3.934 0 2.081.64 3.95 2.426 3.95zm11.376 1.705c-3.065 0-4.376-2.901-4.376-5.654 0-2.754 1.311-5.638 4.376-5.638 3.065 0 4.376 2.884 4.376 5.638 0 2.753-1.311 5.654-4.376 5.654zm0-1.705c1.786 0 2.426-1.868 2.426-3.95 0-2.08-.64-3.933-2.426-3.933s-2.426 1.852-2.426 3.934c0 2.081.64 3.95 2.426 3.95zm-157.938 1.631V46.816h-1.672l-3.147 3.18 1.115 1.164 1.786-1.852v8.44h1.918zm7.492.197c-3.065 0-4.376-2.901-4.376-5.654 0-2.754 1.31-5.638 4.376-5.638 3.065 0 4.376 2.884 4.376 5.638 0 2.753-1.311 5.654-4.376 5.654zm0-1.705c1.786 0 2.425-1.868 2.425-3.95 0-2.08-.639-3.933-2.425-3.933-1.787 0-2.426 1.852-2.426 3.934 0 2.081.64 3.95 2.426 3.95zM9.623 72.982c-3.064 0-4.376-2.9-4.376-5.654S6.56 61.69 9.623 61.69c3.065 0 4.376 2.884 4.376 5.638 0 2.753-1.31 5.654-4.376 5.654zm0-1.704c1.787 0 2.426-1.869 2.426-3.95 0-2.082-.64-3.934-2.426-3.934s-2.425 1.852-2.425 3.934c0 2.081.639 3.95 2.425 3.95zm11.393 1.507V61.854h-1.672l-3.146 3.18 1.114 1.163 1.786-1.852v8.44h1.918zm7.508 0V61.854h-1.671l-3.147 3.18 1.114 1.163 1.787-1.852v8.44h1.917zm7.492.197c-3.064 0-4.376-2.9-4.376-5.654s1.312-5.638 4.376-5.638c3.065 0 4.376 2.884 4.376 5.638 0 2.753-1.31 5.654-4.376 5.654zm0-1.704c1.787 0 2.426-1.869 2.426-3.95 0-2.082-.64-3.934-2.426-3.934s-2.425 1.852-2.425 3.934c0 2.081.639 3.95 2.425 3.95zm11.377 1.704c-3.065 0-4.376-2.9-4.376-5.654s1.31-5.638 4.376-5.638c3.064 0 4.376 2.884 4.376 5.638 0 2.753-1.312 5.654-4.376 5.654zm0-1.704c1.786 0 2.425-1.869 2.425-3.95 0-2.082-.639-3.934-2.425-3.934-1.787 0-2.426 1.852-2.426 3.934 0 2.081.64 3.95 2.426 3.95zm11.392 1.507V61.854h-1.671l-3.147 3.18 1.114 1.163 1.787-1.852v8.44h1.917zm7.492.197c-3.064 0-4.376-2.9-4.376-5.654s1.312-5.638 4.376-5.638c3.065 0 4.376 2.884 4.376 5.638 0 2.753-1.31 5.654-4.376 5.654zm0-1.704c1.787 0 2.426-1.869 2.426-3.95 0-2.082-.64-3.934-2.426-3.934s-2.425 1.852-2.425 3.934c0 2.081.639 3.95 2.425 3.95zm11.393 1.507V61.854h-1.672l-3.146 3.18 1.114 1.163 1.786-1.852v8.44h1.918zm7.508 0V61.854h-1.671l-3.147 3.18 1.114 1.163 1.787-1.852v8.44h1.917zm7.509 0V61.854h-1.672l-3.147 3.18 1.115 1.163 1.786-1.852v8.44h1.918zm7.492.197c-3.065 0-4.376-2.9-4.376-5.654s1.311-5.638 4.376-5.638c3.065 0 4.376 2.884 4.376 5.638 0 2.753-1.311 5.654-4.376 5.654zm0-1.704c1.786 0 2.425-1.869 2.425-3.95 0-2.082-.639-3.934-2.425-3.934-1.787 0-2.426 1.852-2.426 3.934 0 2.081.64 3.95 2.426 3.95zm11.376 1.704c-3.065 0-4.376-2.9-4.376-5.654s1.311-5.638 4.376-5.638c3.065 0 4.376 2.884 4.376 5.638 0 2.753-1.311 5.654-4.376 5.654zm0-1.704c1.786 0 2.426-1.869 2.426-3.95 0-2.082-.64-3.934-2.426-3.934s-2.426 1.852-2.426 3.934c0 2.081.64 3.95 2.426 3.95zm11.393 1.507V61.854h-1.672l-3.147 3.18 1.115 1.163 1.786-1.852v8.44h1.918zm7.508 0V61.854h-1.672l-3.146 3.18 1.114 1.163 1.787-1.852v8.44h1.917zm7.492.197c-3.065 0-4.376-2.9-4.376-5.654s1.311-5.638 4.376-5.638c3.065 0 4.376 2.884 4.376 5.638 0 2.753-1.311 5.654-4.376 5.654zm0-1.704c1.787 0 2.426-1.869 2.426-3.95 0-2.082-.64-3.934-2.426-3.934s-2.426 1.852-2.426 3.934c0 2.081.64 3.95 2.426 3.95zm11.376 1.704c-3.064 0-4.376-2.9-4.376-5.654s1.312-5.638 4.376-5.638c3.065 0 4.376 2.884 4.376 5.638 0 2.753-1.31 5.654-4.376 5.654zm0-1.704c1.787 0 2.426-1.869 2.426-3.95 0-2.082-.64-3.934-2.426-3.934s-2.425 1.852-2.425 3.934c0 2.081.639 3.95 2.425 3.95zm-157.938 1.63V61.977h-1.672l-3.146 3.18 1.114 1.163 1.787-1.852v8.44h1.917zm7.492.197c-3.065 0-4.376-2.9-4.376-5.654s1.311-5.638 4.376-5.638c3.065 0 4.376 2.884 4.376 5.638 0 2.753-1.311 5.654-4.376 5.654zm0-1.704c1.787 0 2.426-1.869 2.426-3.95 0-2.082-.64-3.934-2.426-3.934s-2.426 1.852-2.426 3.934c0 2.081.64 3.95 2.426 3.95zM16.159 88.142c-3.065 0-4.376-2.9-4.376-5.654 0-2.753 1.31-5.638 4.376-5.638 3.064 0 4.376 2.885 4.376 5.638s-1.312 5.654-4.376 5.654zm0-1.704c1.786 0 2.425-1.869 2.425-3.95 0-2.081-.639-3.933-2.425-3.933-1.787 0-2.426 1.852-2.426 3.933 0 2.081.64 3.95 2.426 3.95zm11.392 1.508V77.014H25.88l-3.147 3.18 1.114 1.163 1.787-1.852v8.44h1.917zm7.509 0V77.014h-1.672l-3.147 3.18 1.115 1.163 1.786-1.852v8.44h1.918zm7.492.196c-3.065 0-4.376-2.9-4.376-5.654 0-2.753 1.31-5.638 4.376-5.638 3.065 0 4.376 2.885 4.376 5.638s-1.311 5.654-4.376 5.654zm0-1.704c1.786 0 2.425-1.869 2.425-3.95 0-2.081-.639-3.933-2.425-3.933-1.787 0-2.426 1.852-2.426 3.933 0 2.081.64 3.95 2.426 3.95zm11.376 1.704c-3.065 0-4.376-2.9-4.376-5.654 0-2.753 1.311-5.638 4.376-5.638 3.065 0 4.376 2.885 4.376 5.638s-1.311 5.654-4.376 5.654zm0-1.704c1.786 0 2.426-1.869 2.426-3.95 0-2.081-.64-3.933-2.426-3.933s-2.426 1.852-2.426 3.933c0 2.081.64 3.95 2.426 3.95zm11.393 1.508V77.014h-1.672l-3.147 3.18 1.115 1.163 1.786-1.852v8.44h1.918zm7.492.196c-3.065 0-4.376-2.9-4.376-5.654 0-2.753 1.31-5.638 4.376-5.638 3.064 0 4.376 2.885 4.376 5.638s-1.312 5.654-4.376 5.654zm0-1.704c1.786 0 2.425-1.869 2.425-3.95 0-2.081-.639-3.933-2.425-3.933-1.787 0-2.426 1.852-2.426 3.933 0 2.081.64 3.95 2.426 3.95zm11.392 1.508V77.014h-1.671l-3.147 3.18 1.114 1.163 1.787-1.852v8.44h1.917zm7.509 0V77.014h-1.672l-3.147 3.18 1.115 1.163 1.786-1.852v8.44h1.918zm7.508 0V77.014H97.55l-3.146 3.18 1.114 1.163 1.787-1.852v8.44h1.917zm7.492.196c-3.065 0-4.376-2.9-4.376-5.654 0-2.753 1.311-5.638 4.376-5.638 3.065 0 4.376 2.885 4.376 5.638s-1.311 5.654-4.376 5.654zm0-1.704c1.787 0 2.426-1.869 2.426-3.95 0-2.081-.64-3.933-2.426-3.933s-2.426 1.852-2.426 3.933c0 2.081.64 3.95 2.426 3.95zm11.376 1.704c-3.064 0-4.376-2.9-4.376-5.654 0-2.753 1.312-5.638 4.376-5.638 3.065 0 4.376 2.885 4.376 5.638s-1.31 5.654-4.376 5.654zm0-1.704c1.787 0 2.426-1.869 2.426-3.95 0-2.081-.64-3.933-2.426-3.933s-2.425 1.852-2.425 3.933c0 2.081.639 3.95 2.425 3.95zm11.393 1.508V77.014h-1.672l-3.146 3.18 1.114 1.163 1.786-1.852v8.44h1.918zm7.508 0V77.014h-1.671l-3.147 3.18 1.114 1.163 1.787-1.852v8.44h1.917zm7.492.196c-3.064 0-4.376-2.9-4.376-5.654 0-2.753 1.312-5.638 4.376-5.638 3.065 0 4.376 2.885 4.376 5.638s-1.31 5.654-4.376 5.654zm0-1.704c1.787 0 2.426-1.869 2.426-3.95 0-2.081-.64-3.933-2.426-3.933s-2.425 1.852-2.425 3.933c0 2.081.639 3.95 2.425 3.95zm11.377 1.704c-3.065 0-4.376-2.9-4.376-5.654 0-2.753 1.31-5.638 4.376-5.638 3.064 0 4.376 2.885 4.376 5.638s-1.312 5.654-4.376 5.654zm0-1.704c1.786 0 2.425-1.869 2.425-3.95 0-2.081-.639-3.933-2.425-3.933-1.787 0-2.426 1.852-2.426 3.933 0 2.081.64 3.95 2.426 3.95zM-2.08 88.068V77.138H-3.75l-3.147 3.18 1.114 1.163 1.787-1.852v8.44h1.917zm7.492.197c-3.064 0-4.376-2.9-4.376-5.654s1.312-5.638 4.376-5.638c3.065 0 4.376 2.884 4.376 5.638 0 2.753-1.31 5.654-4.376 5.654zm0-1.704c1.787 0 2.426-1.869 2.426-3.95 0-2.082-.64-3.934-2.426-3.934s-2.425 1.852-2.425 3.934c0 2.081.639 3.95 2.425 3.95zM1.429 103.302c-3.065 0-4.376-2.9-4.376-5.654 0-2.753 1.31-5.638 4.376-5.638 3.064 0 4.376 2.885 4.376 5.638 0 2.754-1.312 5.654-4.376 5.654zm0-1.704c1.786 0 2.425-1.868 2.425-3.95 0-2.081-.639-3.933-2.425-3.933-1.787 0-2.426 1.852-2.426 3.933 0 2.082.64 3.95 2.426 3.95zm11.392 1.508V92.174H11.15l-3.147 3.18 1.114 1.163 1.787-1.852v8.44h1.917zm7.509 0V92.174h-1.672l-3.147 3.18 1.115 1.163 1.786-1.852v8.44h1.918zm7.492.196c-3.065 0-4.376-2.9-4.376-5.654 0-2.753 1.31-5.638 4.376-5.638 3.065 0 4.376 2.885 4.376 5.638 0 2.754-1.311 5.654-4.376 5.654zm0-1.704c1.786 0 2.425-1.868 2.425-3.95 0-2.081-.639-3.933-2.425-3.933-1.787 0-2.426 1.852-2.426 3.933 0 2.082.64 3.95 2.426 3.95zm11.376 1.704c-3.065 0-4.376-2.9-4.376-5.654 0-2.753 1.311-5.638 4.376-5.638 3.065 0 4.376 2.885 4.376 5.638 0 2.754-1.311 5.654-4.376 5.654zm0-1.704c1.786 0 2.426-1.868 2.426-3.95 0-2.081-.64-3.933-2.426-3.933s-2.426 1.852-2.426 3.933c0 2.082.64 3.95 2.426 3.95zm11.393 1.508V92.174h-1.672l-3.147 3.18 1.115 1.163 1.786-1.852v8.44h1.918zm7.492.196c-3.065 0-4.376-2.9-4.376-5.654 0-2.753 1.31-5.638 4.376-5.638 3.064 0 4.376 2.885 4.376 5.638 0 2.754-1.312 5.654-4.376 5.654zm0-1.704c1.786 0 2.425-1.868 2.425-3.95 0-2.081-.639-3.933-2.425-3.933-1.787 0-2.426 1.852-2.426 3.933 0 2.082.64 3.95 2.426 3.95zm11.392 1.508V92.174h-1.671l-3.147 3.18 1.114 1.163 1.787-1.852v8.44h1.917zm7.509 0V92.174h-1.672l-3.147 3.18 1.115 1.163 1.786-1.852v8.44h1.918zm7.508 0V92.174H82.82l-3.146 3.18 1.114 1.163 1.787-1.852v8.44h1.917zm7.492.196c-3.065 0-4.376-2.9-4.376-5.654 0-2.753 1.311-5.638 4.376-5.638 3.065 0 4.376 2.885 4.376 5.638 0 2.754-1.311 5.654-4.376 5.654zm0-1.704c1.787 0 2.426-1.868 2.426-3.95 0-2.081-.64-3.933-2.426-3.933s-2.426 1.852-2.426 3.933c0 2.082.64 3.95 2.426 3.95zm11.376 1.704c-3.064 0-4.376-2.9-4.376-5.654 0-2.753 1.312-5.638 4.376-5.638 3.065 0 4.376 2.885 4.376 5.638 0 2.754-1.31 5.654-4.376 5.654zm0-1.704c1.787 0 2.426-1.868 2.426-3.95 0-2.081-.64-3.933-2.426-3.933s-2.425 1.852-2.425 3.933c0 2.082.639 3.95 2.425 3.95zm11.393 1.508V92.174h-1.672l-3.146 3.18 1.114 1.163 1.786-1.852v8.44h1.918zm7.508 0V92.174h-1.671l-3.147 3.18 1.114 1.163 1.787-1.852v8.44h1.917zm7.492.196c-3.064 0-4.376-2.9-4.376-5.654 0-2.753 1.312-5.638 4.376-5.638 3.065 0 4.376 2.885 4.376 5.638 0 2.754-1.31 5.654-4.376 5.654zm0-1.704c1.787 0 2.426-1.868 2.426-3.95 0-2.081-.64-3.933-2.426-3.933s-2.425 1.852-2.425 3.933c0 2.082.639 3.95 2.425 3.95zm11.377 1.704c-3.065 0-4.376-2.9-4.376-5.654 0-2.753 1.31-5.638 4.376-5.638 3.065 0 4.376 2.885 4.376 5.638 0 2.754-1.311 5.654-4.376 5.654zm0-1.704c1.786 0 2.425-1.868 2.425-3.95 0-2.081-.639-3.933-2.425-3.933-1.787 0-2.426 1.852-2.426 3.933 0 2.082.64 3.95 2.426 3.95zm-157.939 1.63V92.298h-1.671l-3.147 3.18 1.114 1.163 1.787-1.852v8.44h1.917zm7.492.197c-3.064 0-4.376-2.9-4.376-5.654 0-2.753 1.312-5.638 4.376-5.638 3.065 0 4.376 2.885 4.376 5.638s-1.31 5.654-4.376 5.654zm0-1.704c1.787 0 2.426-1.868 2.426-3.95 0-2.081-.64-3.933-2.426-3.933s-2.425 1.852-2.425 3.933c0 2.082.639 3.95 2.425 3.95zM5.526-2.942c-3.065 0-4.376-2.901-4.376-5.655 0-2.753 1.311-5.638 4.376-5.638 3.065 0 4.376 2.885 4.376 5.638 0 2.754-1.311 5.655-4.376 5.655zm0-1.705c1.786 0 2.426-1.868 2.426-3.95 0-2.081-.64-3.933-2.426-3.933S3.1-10.678 3.1-8.597c0 2.082.64 3.95 2.426 3.95zm11.393 1.508v-10.932h-1.672L12.1-10.89l1.115 1.164L15-11.58v8.44h1.918zm7.508 0v-10.932h-1.672l-3.146 3.18 1.114 1.164 1.787-1.852v8.44h1.917zm7.492.197c-3.065 0-4.376-2.901-4.376-5.655 0-2.753 1.311-5.638 4.376-5.638 3.065 0 4.376 2.885 4.376 5.638 0 2.754-1.311 5.655-4.376 5.655zm0-1.705c1.786 0 2.426-1.868 2.426-3.95 0-2.081-.64-3.933-2.426-3.933s-2.426 1.852-2.426 3.933c0 2.082.64 3.95 2.426 3.95zm11.376 1.705c-3.064 0-4.376-2.901-4.376-5.655 0-2.753 1.312-5.638 4.376-5.638 3.065 0 4.376 2.885 4.376 5.638 0 2.754-1.31 5.655-4.376 5.655zm0-1.705c1.787 0 2.426-1.868 2.426-3.95 0-2.081-.64-3.933-2.426-3.933s-2.425 1.852-2.425 3.933c0 2.082.639 3.95 2.425 3.95zm11.393 1.508v-10.932h-1.672l-3.146 3.18 1.114 1.164 1.786-1.852v8.44h1.918zm7.492.197c-3.065 0-4.376-2.901-4.376-5.655 0-2.753 1.311-5.638 4.376-5.638 3.065 0 4.376 2.885 4.376 5.638 0 2.754-1.311 5.655-4.376 5.655zm0-1.705c1.786 0 2.426-1.868 2.426-3.95 0-2.081-.64-3.933-2.426-3.933s-2.426 1.852-2.426 3.933c0 2.082.64 3.95 2.426 3.95zm11.393 1.508v-10.932H71.9l-3.147 3.18 1.115 1.164 1.786-1.852v8.44h1.918zm7.508 0v-10.932H79.41l-3.146 3.18 1.114 1.164 1.786-1.852v8.44h1.918zm7.508 0v-10.932h-1.671l-3.147 3.18 1.114 1.164 1.787-1.852v8.44h1.917zm7.492.197c-3.064 0-4.376-2.901-4.376-5.655 0-2.753 1.312-5.638 4.376-5.638 3.065 0 4.376 2.885 4.376 5.638 0 2.754-1.31 5.655-4.376 5.655zm0-1.705c1.787 0 2.426-1.868 2.426-3.95 0-2.081-.64-3.933-2.426-3.933s-2.425 1.852-2.425 3.933c0 2.082.639 3.95 2.425 3.95zm11.377 1.705c-3.065 0-4.376-2.901-4.376-5.655 0-2.753 1.31-5.638 4.376-5.638 3.065 0 4.376 2.885 4.376 5.638 0 2.754-1.311 5.655-4.376 5.655zm0-1.705c1.786 0 2.425-1.868 2.425-3.95 0-2.081-.639-3.933-2.425-3.933-1.787 0-2.426 1.852-2.426 3.933 0 2.082.64 3.95 2.426 3.95zm11.392 1.508v-10.932h-1.671l-3.147 3.18 1.114 1.164 1.787-1.852v8.44h1.917zm7.509 0v-10.932h-1.672l-3.147 3.18 1.115 1.164 1.786-1.852v8.44h1.918zm7.492.197c-3.065 0-4.376-2.901-4.376-5.655 0-2.753 1.31-5.638 4.376-5.638 3.065 0 4.376 2.885 4.376 5.638 0 2.754-1.311 5.655-4.376 5.655zm0-1.705c1.786 0 2.425-1.868 2.425-3.95 0-2.081-.639-3.933-2.425-3.933-1.787 0-2.426 1.852-2.426 3.933 0 2.082.64 3.95 2.426 3.95zm11.376 1.705c-3.065 0-4.376-2.901-4.376-5.655 0-2.753 1.311-5.638 4.376-5.638 3.065 0 4.376 2.885 4.376 5.638 0 2.754-1.311 5.655-4.376 5.655zm0-1.705c1.786 0 2.426-1.868 2.426-3.95 0-2.081-.64-3.933-2.426-3.933s-2.426 1.852-2.426 3.933c0 2.082.64 3.95 2.426 3.95zM-12.711-3.016v-10.932h-1.672l-3.147 3.18 1.115 1.163 1.786-1.852v8.441h1.918zm7.492.197c-3.065 0-4.376-2.901-4.376-5.655 0-2.753 1.31-5.638 4.376-5.638 3.065 0 4.376 2.885 4.376 5.638 0 2.754-1.311 5.655-4.376 5.655zm0-1.705c1.786 0 2.425-1.868 2.425-3.95 0-2.081-.639-3.933-2.425-3.933-1.787 0-2.426 1.852-2.426 3.933 0 2.082.64 3.95 2.426 3.95zM9.623 12.218c-3.064 0-4.376-2.901-4.376-5.654C5.247 3.81 6.56.926 9.623.926 12.688.926 14 3.81 14 6.564c0 2.753-1.31 5.654-4.376 5.654zm0-1.705c1.787 0 2.426-1.868 2.426-3.95 0-2.08-.64-3.933-2.426-3.933S7.198 4.482 7.198 6.564c0 2.081.639 3.95 2.425 3.95zm11.393 1.508V1.09h-1.672l-3.146 3.179 1.114 1.164 1.786-1.852v8.44h1.918zm7.508 0V1.09h-1.671l-3.147 3.179 1.114 1.164 1.787-1.852v8.44h1.917zm7.492.197c-3.064 0-4.376-2.901-4.376-5.654 0-2.754 1.312-5.638 4.376-5.638 3.065 0 4.376 2.884 4.376 5.638 0 2.753-1.31 5.654-4.376 5.654zm0-1.705c1.787 0 2.426-1.868 2.426-3.95 0-2.08-.64-3.933-2.426-3.933s-2.425 1.852-2.425 3.934c0 2.081.639 3.95 2.425 3.95zm11.377 1.705c-3.065 0-4.376-2.901-4.376-5.654 0-2.754 1.31-5.638 4.376-5.638 3.064 0 4.376 2.884 4.376 5.638 0 2.753-1.312 5.654-4.376 5.654zm0-1.705c1.786 0 2.425-1.868 2.425-3.95 0-2.08-.639-3.933-2.425-3.933-1.787 0-2.426 1.852-2.426 3.934 0 2.081.64 3.95 2.426 3.95zm11.392 1.508V1.09h-1.671l-3.147 3.179 1.114 1.164 1.787-1.852v8.44h1.917zm7.492.197c-3.064 0-4.376-2.901-4.376-5.654 0-2.754 1.312-5.638 4.376-5.638 3.065 0 4.376 2.884 4.376 5.638 0 2.753-1.31 5.654-4.376 5.654zm0-1.705c1.787 0 2.426-1.868 2.426-3.95 0-2.08-.64-3.933-2.426-3.933s-2.425 1.852-2.425 3.934c0 2.081.639 3.95 2.425 3.95zm11.393 1.508V1.09h-1.672l-3.146 3.179 1.114 1.164 1.786-1.852v8.44h1.918zm7.508 0V1.09h-1.671L80.36 4.269l1.114 1.164 1.787-1.852v8.44h1.917zm7.509 0V1.09h-1.672l-3.147 3.179 1.115 1.164 1.786-1.852v8.44h1.918zm7.492.197c-3.065 0-4.376-2.901-4.376-5.654 0-2.754 1.311-5.638 4.376-5.638 3.065 0 4.376 2.884 4.376 5.638 0 2.753-1.311 5.654-4.376 5.654zm0-1.705c1.786 0 2.425-1.868 2.425-3.95 0-2.08-.639-3.933-2.425-3.933-1.787 0-2.426 1.852-2.426 3.934 0 2.081.64 3.95 2.426 3.95zm11.376 1.705c-3.065 0-4.376-2.901-4.376-5.654 0-2.754 1.311-5.638 4.376-5.638 3.065 0 4.376 2.884 4.376 5.638 0 2.753-1.311 5.654-4.376 5.654zm0-1.705c1.786 0 2.426-1.868 2.426-3.95 0-2.08-.64-3.933-2.426-3.933s-2.426 1.852-2.426 3.934c0 2.081.64 3.95 2.426 3.95zm11.393 1.508V1.09h-1.672l-3.147 3.179 1.115 1.164 1.786-1.852v8.44h1.918zm7.508 0V1.09h-1.672l-3.146 3.179 1.114 1.164 1.787-1.852v8.44h1.917zm7.492.197c-3.065 0-4.376-2.901-4.376-5.654 0-2.754 1.311-5.638 4.376-5.638 3.065 0 4.376 2.884 4.376 5.638 0 2.753-1.311 5.654-4.376 5.654zm0-1.705c1.787 0 2.426-1.868 2.426-3.95 0-2.08-.64-3.933-2.426-3.933s-2.426 1.852-2.426 3.934c0 2.081.64 3.95 2.426 3.95zm11.376 1.705c-3.064 0-4.376-2.901-4.376-5.654 0-2.754 1.312-5.638 4.376-5.638 3.065 0 4.376 2.884 4.376 5.638 0 2.753-1.31 5.654-4.376 5.654zm0-1.705c1.787 0 2.426-1.868 2.426-3.95 0-2.08-.64-3.933-2.426-3.933S146.9 4.482 146.9 6.564c0 2.081.639 3.95 2.425 3.95zM-8.614 12.144V1.212h-1.672l-3.146 3.18 1.114 1.164 1.787-1.852v8.44h1.917zm7.492.197c-3.065 0-4.376-2.901-4.376-5.655 0-2.753 1.311-5.637 4.376-5.637 3.065 0 4.376 2.884 4.376 5.637 0 2.754-1.311 5.655-4.376 5.655zm0-1.705c1.787 0 2.426-1.868 2.426-3.95 0-2.081-.64-3.933-2.426-3.933s-2.426 1.852-2.426 3.933c0 2.082.64 3.95 2.426 3.95zM16.159 27.378c-3.065 0-4.376-2.9-4.376-5.654s1.31-5.638 4.376-5.638c3.064 0 4.376 2.884 4.376 5.638 0 2.753-1.312 5.654-4.376 5.654zm0-1.704c1.786 0 2.425-1.869 2.425-3.95 0-2.082-.639-3.934-2.425-3.934-1.787 0-2.426 1.852-2.426 3.934 0 2.081.64 3.95 2.426 3.95zM27.55 27.18V16.25H25.88l-3.147 3.18 1.114 1.163 1.787-1.852v8.44h1.917zm7.509 0V16.25h-1.672l-3.147 3.18 1.115 1.163 1.786-1.852v8.44h1.918zm7.492.197c-3.065 0-4.376-2.9-4.376-5.654s1.31-5.638 4.376-5.638c3.065 0 4.376 2.884 4.376 5.638 0 2.753-1.311 5.654-4.376 5.654zm0-1.704c1.786 0 2.425-1.869 2.425-3.95 0-2.082-.639-3.934-2.425-3.934-1.787 0-2.426 1.852-2.426 3.934 0 2.081.64 3.95 2.426 3.95zm11.376 1.704c-3.065 0-4.376-2.9-4.376-5.654s1.311-5.638 4.376-5.638c3.065 0 4.376 2.884 4.376 5.638 0 2.753-1.311 5.654-4.376 5.654zm0-1.704c1.786 0 2.426-1.869 2.426-3.95 0-2.082-.64-3.934-2.426-3.934s-2.426 1.852-2.426 3.934c0 2.081.64 3.95 2.426 3.95zm11.393 1.507V16.25h-1.672l-3.147 3.18 1.115 1.163 1.786-1.852v8.44h1.918zm7.492.197c-3.065 0-4.376-2.9-4.376-5.654s1.31-5.638 4.376-5.638c3.064 0 4.376 2.884 4.376 5.638 0 2.753-1.312 5.654-4.376 5.654zm0-1.704c1.786 0 2.425-1.869 2.425-3.95 0-2.082-.639-3.934-2.425-3.934-1.787 0-2.426 1.852-2.426 3.934 0 2.081.64 3.95 2.426 3.95zm11.392 1.507V16.25h-1.671l-3.147 3.18 1.114 1.163 1.787-1.852v8.44h1.917zm7.509 0V16.25h-1.672l-3.147 3.18 1.115 1.163 1.786-1.852v8.44h1.918zm7.508 0V16.25H97.55l-3.146 3.18 1.114 1.163 1.787-1.852v8.44h1.917zm7.492.197c-3.065 0-4.376-2.9-4.376-5.654s1.311-5.638 4.376-5.638c3.065 0 4.376 2.884 4.376 5.638 0 2.753-1.311 5.654-4.376 5.654zm0-1.704c1.787 0 2.426-1.869 2.426-3.95 0-2.082-.64-3.934-2.426-3.934s-2.426 1.852-2.426 3.934c0 2.081.64 3.95 2.426 3.95zm11.376 1.704c-3.064 0-4.376-2.9-4.376-5.654s1.312-5.638 4.376-5.638c3.065 0 4.376 2.884 4.376 5.638 0 2.753-1.31 5.654-4.376 5.654zm0-1.704c1.787 0 2.426-1.869 2.426-3.95 0-2.082-.64-3.934-2.426-3.934s-2.425 1.852-2.425 3.934c0 2.081.639 3.95 2.425 3.95zm11.393 1.507V16.25h-1.672l-3.146 3.18 1.114 1.163 1.786-1.852v8.44h1.918zm7.508 0V16.25h-1.671l-3.147 3.18 1.114 1.163 1.787-1.852v8.44h1.917zm7.492.197c-3.064 0-4.376-2.9-4.376-5.654s1.312-5.638 4.376-5.638c3.065 0 4.376 2.884 4.376 5.638 0 2.753-1.31 5.654-4.376 5.654zm0-1.704c1.787 0 2.426-1.869 2.426-3.95 0-2.082-.64-3.934-2.426-3.934s-2.425 1.852-2.425 3.934c0 2.081.639 3.95 2.425 3.95zm11.377 1.704c-3.065 0-4.376-2.9-4.376-5.654s1.31-5.638 4.376-5.638c3.064 0 4.376 2.884 4.376 5.638 0 2.753-1.312 5.654-4.376 5.654zm0-1.704c1.786 0 2.425-1.869 2.425-3.95 0-2.082-.639-3.934-2.425-3.934-1.787 0-2.426 1.852-2.426 3.934 0 2.081.64 3.95 2.426 3.95zM-2.08 27.304V16.373H-3.75l-3.147 3.18 1.114 1.163 1.787-1.852v8.44h1.917zm7.492.197c-3.064 0-4.376-2.9-4.376-5.654s1.312-5.638 4.376-5.638c3.065 0 4.376 2.884 4.376 5.638 0 2.753-1.31 5.654-4.376 5.654zm0-1.705c1.787 0 2.426-1.868 2.426-3.95 0-2.08-.64-3.933-2.426-3.933s-2.425 1.852-2.425 3.934c0 2.081.639 3.95 2.425 3.95zM1.429 42.538c-3.065 0-4.376-2.9-4.376-5.654s1.31-5.638 4.376-5.638c3.064 0 4.376 2.884 4.376 5.638 0 2.753-1.312 5.654-4.376 5.654zm0-1.704c1.786 0 2.425-1.869 2.425-3.95 0-2.082-.639-3.934-2.425-3.934-1.787 0-2.426 1.852-2.426 3.934 0 2.081.64 3.95 2.426 3.95zm11.392 1.508V31.41H11.15l-3.147 3.18 1.114 1.163 1.787-1.852v8.44h1.917zm7.509 0V31.41h-1.672l-3.147 3.18 1.115 1.163 1.786-1.852v8.44h1.918zm7.492.196c-3.065 0-4.376-2.9-4.376-5.654s1.31-5.638 4.376-5.638c3.065 0 4.376 2.884 4.376 5.638 0 2.753-1.311 5.654-4.376 5.654zm0-1.704c1.786 0 2.425-1.869 2.425-3.95 0-2.082-.639-3.934-2.425-3.934-1.787 0-2.426 1.852-2.426 3.934 0 2.081.64 3.95 2.426 3.95zm11.376 1.704c-3.065 0-4.376-2.9-4.376-5.654s1.311-5.638 4.376-5.638c3.065 0 4.376 2.884 4.376 5.638 0 2.753-1.311 5.654-4.376 5.654zm0-1.704c1.786 0 2.426-1.869 2.426-3.95 0-2.082-.64-3.934-2.426-3.934s-2.426 1.852-2.426 3.934c0 2.081.64 3.95 2.426 3.95zm11.393 1.508V31.41h-1.672l-3.147 3.18 1.115 1.163 1.786-1.852v8.44h1.918zm7.492.196c-3.065 0-4.376-2.9-4.376-5.654s1.31-5.638 4.376-5.638c3.064 0 4.376 2.884 4.376 5.638 0 2.753-1.312 5.654-4.376 5.654zm0-1.704c1.786 0 2.425-1.869 2.425-3.95 0-2.082-.639-3.934-2.425-3.934-1.787 0-2.426 1.852-2.426 3.934 0 2.081.64 3.95 2.426 3.95zm11.392 1.508V31.41h-1.671l-3.147 3.18 1.114 1.163 1.787-1.852v8.44h1.917zm7.509 0V31.41h-1.672l-3.147 3.18 1.115 1.163 1.786-1.852v8.44h1.918zm7.508 0V31.41H82.82l-3.146 3.18 1.114 1.163 1.787-1.852v8.44h1.917zm7.492.196c-3.065 0-4.376-2.9-4.376-5.654s1.311-5.638 4.376-5.638c3.065 0 4.376 2.884 4.376 5.638 0 2.753-1.311 5.654-4.376 5.654zm0-1.704c1.787 0 2.426-1.869 2.426-3.95 0-2.082-.64-3.934-2.426-3.934s-2.426 1.852-2.426 3.934c0 2.081.64 3.95 2.426 3.95zm11.376 1.704c-3.064 0-4.376-2.9-4.376-5.654s1.312-5.638 4.376-5.638c3.065 0 4.376 2.884 4.376 5.638 0 2.753-1.31 5.654-4.376 5.654zm0-1.704c1.787 0 2.426-1.869 2.426-3.95 0-2.082-.64-3.934-2.426-3.934s-2.425 1.852-2.425 3.934c0 2.081.639 3.95 2.425 3.95zm11.393 1.508V31.41h-1.672l-3.146 3.18 1.114 1.163 1.786-1.852v8.44h1.918zm7.508 0V31.41h-1.671l-3.147 3.18 1.114 1.163 1.787-1.852v8.44h1.917zm7.492.196c-3.064 0-4.376-2.9-4.376-5.654s1.312-5.638 4.376-5.638c3.065 0 4.376 2.884 4.376 5.638 0 2.753-1.31 5.654-4.376 5.654zm0-1.704c1.787 0 2.426-1.869 2.426-3.95 0-2.082-.64-3.934-2.426-3.934s-2.425 1.852-2.425 3.934c0 2.081.639 3.95 2.425 3.95zm11.377 1.704c-3.065 0-4.376-2.9-4.376-5.654s1.31-5.638 4.376-5.638c3.065 0 4.376 2.884 4.376 5.638 0 2.753-1.311 5.654-4.376 5.654zm0-1.704c1.786 0 2.425-1.869 2.425-3.95 0-2.082-.639-3.934-2.425-3.934-1.787 0-2.426 1.852-2.426 3.934 0 2.081.64 3.95 2.426 3.95zm-157.939 1.63V31.533h-1.671l-3.147 3.18 1.114 1.163 1.787-1.852v8.44h1.917zm7.492.197c-3.064 0-4.376-2.9-4.376-5.654s1.312-5.638 4.376-5.638c3.065 0 4.376 2.884 4.376 5.638 0 2.753-1.31 5.654-4.376 5.654zm0-1.704c1.787 0 2.426-1.869 2.426-3.95 0-2.082-.64-3.934-2.426-3.934s-2.425 1.852-2.425 3.934c0 2.081.639 3.95 2.425 3.95zM5.526 118.463c-3.065 0-4.376-2.901-4.376-5.655 0-2.753 1.311-5.638 4.376-5.638 3.065 0 4.376 2.885 4.376 5.638 0 2.754-1.311 5.655-4.376 5.655zm0-1.705c1.786 0 2.426-1.868 2.426-3.95 0-2.081-.64-3.933-2.426-3.933S3.1 110.727 3.1 112.808c0 2.082.64 3.95 2.426 3.95zm11.393 1.508v-10.932h-1.672l-3.147 3.18 1.115 1.163L15 109.825v8.441h1.918zm7.508 0v-10.932h-1.672l-3.146 3.18 1.114 1.163 1.787-1.852v8.441h1.917zm7.492.197c-3.065 0-4.376-2.901-4.376-5.655 0-2.753 1.311-5.638 4.376-5.638 3.065 0 4.376 2.885 4.376 5.638 0 2.754-1.311 5.655-4.376 5.655zm0-1.705c1.786 0 2.426-1.868 2.426-3.95 0-2.081-.64-3.933-2.426-3.933s-2.426 1.852-2.426 3.933c0 2.082.64 3.95 2.426 3.95zm11.376 1.705c-3.064 0-4.376-2.901-4.376-5.655 0-2.753 1.312-5.638 4.376-5.638 3.065 0 4.376 2.885 4.376 5.638 0 2.754-1.31 5.655-4.376 5.655zm0-1.705c1.787 0 2.426-1.868 2.426-3.95 0-2.081-.64-3.933-2.426-3.933s-2.425 1.852-2.425 3.933c0 2.082.639 3.95 2.425 3.95zm11.393 1.508v-10.932h-1.672l-3.146 3.18 1.114 1.163 1.786-1.852v8.441h1.918zm7.492.197c-3.065 0-4.376-2.901-4.376-5.655 0-2.753 1.311-5.638 4.376-5.638 3.065 0 4.376 2.885 4.376 5.638 0 2.754-1.311 5.655-4.376 5.655zm0-1.705c1.786 0 2.426-1.868 2.426-3.95 0-2.081-.64-3.933-2.426-3.933s-2.426 1.852-2.426 3.933c0 2.082.64 3.95 2.426 3.95zm11.393 1.508v-10.932H71.9l-3.147 3.18 1.115 1.163 1.786-1.852v8.441h1.918zm7.508 0v-10.932H79.41l-3.146 3.18 1.114 1.163 1.786-1.852v8.441h1.918zm7.508 0v-10.932h-1.671l-3.147 3.18 1.114 1.163 1.787-1.852v8.441h1.917zm7.492.197c-3.064 0-4.376-2.901-4.376-5.655 0-2.753 1.312-5.638 4.376-5.638 3.065 0 4.376 2.885 4.376 5.638 0 2.754-1.31 5.655-4.376 5.655zm0-1.705c1.787 0 2.426-1.868 2.426-3.95 0-2.081-.64-3.933-2.426-3.933s-2.425 1.852-2.425 3.933c0 2.082.639 3.95 2.425 3.95zm11.377 1.705c-3.065 0-4.376-2.901-4.376-5.655 0-2.753 1.31-5.638 4.376-5.638 3.065 0 4.376 2.885 4.376 5.638 0 2.754-1.311 5.655-4.376 5.655zm0-1.705c1.786 0 2.425-1.868 2.425-3.95 0-2.081-.639-3.933-2.425-3.933-1.787 0-2.426 1.852-2.426 3.933 0 2.082.64 3.95 2.426 3.95zm11.392 1.508v-10.932h-1.671l-3.147 3.18 1.114 1.163 1.787-1.852v8.441h1.917zm7.509 0v-10.932h-1.672l-3.147 3.18 1.115 1.163 1.786-1.852v8.441h1.918zm7.492.197c-3.065 0-4.376-2.901-4.376-5.655 0-2.753 1.31-5.638 4.376-5.638 3.065 0 4.376 2.885 4.376 5.638 0 2.754-1.311 5.655-4.376 5.655zm0-1.705c1.786 0 2.425-1.868 2.425-3.95 0-2.081-.639-3.933-2.425-3.933-1.787 0-2.426 1.852-2.426 3.933 0 2.082.64 3.95 2.426 3.95zm11.376 1.705c-3.065 0-4.376-2.901-4.376-5.655 0-2.753 1.311-5.638 4.376-5.638 3.065 0 4.376 2.885 4.376 5.638 0 2.754-1.311 5.655-4.376 5.655zm0-1.705c1.786 0 2.426-1.868 2.426-3.95 0-2.081-.64-3.933-2.426-3.933s-2.426 1.852-2.426 3.933c0 2.082.64 3.95 2.426 3.95zm-157.938 1.63v-10.93h-1.672l-3.147 3.179 1.115 1.163 1.786-1.852v8.44h1.918zm7.492.198c-3.065 0-4.376-2.901-4.376-5.655 0-2.753 1.31-5.638 4.376-5.638 3.065 0 4.376 2.885 4.376 5.638 0 2.754-1.311 5.655-4.376 5.655zm0-1.705c1.786 0 2.425-1.868 2.425-3.95 0-2.081-.639-3.933-2.425-3.933-1.787 0-2.426 1.852-2.426 3.933 0 2.082.64 3.95 2.426 3.95zM30.11 133.623c-3.065 0-4.376-2.901-4.376-5.655 0-2.753 1.311-5.637 4.376-5.637 3.065 0 4.376 2.884 4.376 5.637 0 2.754-1.311 5.655-4.376 5.655zm0-1.705c1.787 0 2.426-1.868 2.426-3.95 0-2.081-.64-3.933-2.426-3.933s-2.426 1.852-2.426 3.933c0 2.082.64 3.95 2.426 3.95zm11.393 1.508v-10.932H39.83l-3.147 3.18 1.115 1.164 1.786-1.852v8.44h1.918zm7.508 0v-10.932H47.34l-3.146 3.18 1.114 1.164 1.787-1.852v8.44h1.917zm7.492.197c-3.065 0-4.376-2.901-4.376-5.655 0-2.753 1.311-5.637 4.376-5.637 3.065 0 4.376 2.884 4.376 5.637 0 2.754-1.311 5.655-4.376 5.655zm0-1.705c1.787 0 2.426-1.868 2.426-3.95 0-2.081-.64-3.933-2.426-3.933s-2.426 1.852-2.426 3.933c0 2.082.64 3.95 2.426 3.95zm11.376 1.705c-3.064 0-4.376-2.901-4.376-5.655 0-2.753 1.312-5.637 4.376-5.637 3.065 0 4.376 2.884 4.376 5.637 0 2.754-1.31 5.655-4.376 5.655zm0-1.705c1.787 0 2.426-1.868 2.426-3.95 0-2.081-.64-3.933-2.426-3.933s-2.425 1.852-2.425 3.933c0 2.082.639 3.95 2.425 3.95zm11.393 1.508v-10.932H77.6l-3.146 3.18 1.114 1.164 1.787-1.852v8.44h1.917zm7.492.197c-3.065 0-4.376-2.901-4.376-5.655 0-2.753 1.311-5.637 4.376-5.637 3.065 0 4.376 2.884 4.376 5.637 0 2.754-1.311 5.655-4.376 5.655zm0-1.705c1.787 0 2.426-1.868 2.426-3.95 0-2.081-.64-3.933-2.426-3.933s-2.426 1.852-2.426 3.933c0 2.082.64 3.95 2.426 3.95zm11.393 1.508v-10.932h-1.672l-3.147 3.18 1.115 1.164 1.786-1.852v8.44h1.918zm7.508 0v-10.932h-1.672l-3.146 3.18 1.114 1.164 1.787-1.852v8.44h1.917zm7.509 0v-10.932h-1.672l-3.147 3.18 1.115 1.164 1.786-1.852v8.44h1.918zm7.491.197c-3.064 0-4.375-2.901-4.375-5.655 0-2.753 1.31-5.637 4.375-5.637s4.376 2.884 4.376 5.637c0 2.754-1.31 5.655-4.376 5.655zm0-1.705c1.787 0 2.426-1.868 2.426-3.95 0-2.081-.64-3.933-2.425-3.933-1.787 0-2.426 1.852-2.426 3.933 0 2.082.64 3.95 2.425 3.95zm11.377 1.705c-3.065 0-4.376-2.901-4.376-5.655 0-2.753 1.311-5.637 4.376-5.637 3.065 0 4.376 2.884 4.376 5.637 0 2.754-1.311 5.655-4.376 5.655zm0-1.705c1.786 0 2.425-1.868 2.425-3.95 0-2.081-.639-3.933-2.425-3.933-1.787 0-2.426 1.852-2.426 3.933 0 2.082.64 3.95 2.426 3.95zm11.392 1.508v-10.932h-1.671l-3.147 3.18 1.114 1.164 1.787-1.852v8.44h1.917zm7.509 0v-10.932h-1.672l-3.147 3.18 1.115 1.164 1.786-1.852v8.44h1.918zm7.492.197c-3.065 0-4.376-2.901-4.376-5.655 0-2.753 1.311-5.637 4.376-5.637 3.065 0 4.376 2.884 4.376 5.637 0 2.754-1.311 5.655-4.376 5.655zm0-1.705c1.786 0 2.425-1.868 2.425-3.95 0-2.081-.639-3.933-2.425-3.933-1.787 0-2.426 1.852-2.426 3.933 0 2.082.64 3.95 2.426 3.95zm11.376 1.705c-3.065 0-4.376-2.901-4.376-5.655 0-2.753 1.311-5.637 4.376-5.637 3.065 0 4.376 2.884 4.376 5.637 0 2.754-1.311 5.655-4.376 5.655zm0-1.705c1.787 0 2.426-1.868 2.426-3.95 0-2.081-.64-3.933-2.426-3.933s-2.426 1.852-2.426 3.933c0 2.082.64 3.95 2.426 3.95zM11.873 133.55v-10.932H10.2l-3.147 3.18 1.115 1.164 1.786-1.852v8.44h1.918zm7.492.197c-3.065 0-4.376-2.901-4.376-5.655 0-2.753 1.311-5.638 4.376-5.638 3.065 0 4.376 2.885 4.376 5.638 0 2.754-1.311 5.655-4.376 5.655zm0-1.705c1.786 0 2.425-1.868 2.425-3.95 0-2.081-.639-3.933-2.425-3.933-1.787 0-2.426 1.852-2.426 3.933 0 2.082.64 3.95 2.426 3.95zM-19.058 148.783c-3.065 0-4.376-2.9-4.376-5.654s1.311-5.638 4.376-5.638c3.065 0 4.376 2.884 4.376 5.638 0 2.753-1.311 5.654-4.376 5.654zm0-1.704c1.786 0 2.426-1.869 2.426-3.95 0-2.082-.64-3.934-2.426-3.934-1.787 0-2.426 1.852-2.426 3.934 0 2.081.64 3.95 2.426 3.95zm11.393 1.507v-10.931h-1.672l-3.147 3.18 1.115 1.163 1.786-1.852v8.44h1.918zm7.508 0v-10.931h-1.672l-3.146 3.18 1.114 1.163 1.786-1.852v8.44h1.918zm7.492.197c-3.065 0-4.376-2.9-4.376-5.654s1.311-5.638 4.376-5.638c3.065 0 4.376 2.884 4.376 5.638 0 2.753-1.311 5.654-4.376 5.654zm0-1.704c1.786 0 2.426-1.869 2.426-3.95 0-2.082-.64-3.934-2.426-3.934s-2.426 1.852-2.426 3.934c0 2.081.64 3.95 2.426 3.95zm11.376 1.704c-3.065 0-4.376-2.9-4.376-5.654s1.311-5.638 4.376-5.638c3.065 0 4.376 2.884 4.376 5.638 0 2.753-1.31 5.654-4.376 5.654zm0-1.704c1.787 0 2.426-1.869 2.426-3.95 0-2.082-.64-3.934-2.426-3.934s-2.425 1.852-2.425 3.934c0 2.081.639 3.95 2.425 3.95zm11.393 1.507v-10.931h-1.672l-3.147 3.18 1.115 1.163 1.786-1.852v8.44h1.918zm7.492.197c-3.065 0-4.376-2.9-4.376-5.654s1.311-5.638 4.376-5.638c3.065 0 4.376 2.884 4.376 5.638 0 2.753-1.311 5.654-4.376 5.654zm0-1.704c1.786 0 2.426-1.869 2.426-3.95 0-2.082-.64-3.934-2.426-3.934-1.787 0-2.426 1.852-2.426 3.934 0 2.081.64 3.95 2.426 3.95zm11.393 1.507v-10.931h-1.672l-3.147 3.18 1.115 1.163 1.786-1.852v8.44h1.918zm7.508 0v-10.931h-1.672l-3.146 3.18 1.114 1.163 1.786-1.852v8.44h1.918zm7.508 0v-10.931h-1.671l-3.147 3.18 1.114 1.163 1.787-1.852v8.44h1.917zm7.492.197c-3.064 0-4.376-2.9-4.376-5.654s1.312-5.638 4.376-5.638c3.065 0 4.376 2.884 4.376 5.638 0 2.753-1.31 5.654-4.376 5.654zm0-1.704c1.787 0 2.426-1.869 2.426-3.95 0-2.082-.64-3.934-2.426-3.934s-2.425 1.852-2.425 3.934c0 2.081.639 3.95 2.425 3.95zm11.377 1.704c-3.065 0-4.376-2.9-4.376-5.654s1.31-5.638 4.376-5.638c3.064 0 4.376 2.884 4.376 5.638 0 2.753-1.312 5.654-4.376 5.654zm0-1.704c1.786 0 2.425-1.869 2.425-3.95 0-2.082-.639-3.934-2.425-3.934-1.787 0-2.426 1.852-2.426 3.934 0 2.081.64 3.95 2.426 3.95zm11.392 1.507v-10.931h-1.671l-3.147 3.18 1.114 1.163 1.787-1.852v8.44h1.917zm7.509 0v-10.931h-1.672l-3.147 3.18 1.115 1.163 1.786-1.852v8.44h1.918zm7.492.197c-3.065 0-4.376-2.9-4.376-5.654s1.31-5.638 4.376-5.638c3.065 0 4.376 2.884 4.376 5.638 0 2.753-1.311 5.654-4.376 5.654zm0-1.704c1.786 0 2.425-1.869 2.425-3.95 0-2.082-.639-3.934-2.425-3.934-1.787 0-2.426 1.852-2.426 3.934 0 2.081.64 3.95 2.426 3.95zm11.376 1.704c-3.065 0-4.376-2.9-4.376-5.654s1.311-5.638 4.376-5.638c3.065 0 4.376 2.884 4.376 5.638 0 2.753-1.311 5.654-4.376 5.654zm0-1.704c1.786 0 2.426-1.869 2.426-3.95 0-2.082-.64-3.934-2.426-3.934s-2.426 1.852-2.426 3.934c0 2.081.64 3.95 2.426 3.95zm-157.938 1.63v-10.931h-1.672l-3.147 3.18 1.115 1.163 1.786-1.852v8.44h1.918zm7.492.197c-3.065 0-4.376-2.901-4.376-5.654 0-2.754 1.31-5.638 4.376-5.638 3.064 0 4.376 2.884 4.376 5.638 0 2.753-1.312 5.654-4.376 5.654zm0-1.705c1.786 0 2.425-1.868 2.425-3.95 0-2.08-.639-3.933-2.425-3.933-1.787 0-2.426 1.852-2.426 3.934 0 2.081.64 3.95 2.426 3.95zM-14.96 163.124c-3.066 0-4.377-2.901-4.377-5.655 0-2.753 1.311-5.638 4.376-5.638 3.065 0 4.376 2.885 4.376 5.638 0 2.754-1.31 5.655-4.376 5.655zm0-1.705c1.786 0 2.425-1.868 2.425-3.95 0-2.081-.64-3.933-2.426-3.933s-2.425 1.852-2.425 3.933c0 2.082.639 3.95 2.425 3.95zm11.392 1.508v-10.932H-5.24l-3.147 3.18 1.115 1.164 1.786-1.852v8.44h1.918zm7.508 0v-10.932H2.27l-3.147 3.18 1.114 1.164 1.787-1.852v8.44H3.94zm7.492.197c-3.064 0-4.376-2.901-4.376-5.655 0-2.753 1.312-5.638 4.376-5.638 3.065 0 4.376 2.885 4.376 5.638 0 2.754-1.31 5.655-4.376 5.655zm0-1.705c1.787 0 2.426-1.868 2.426-3.95 0-2.081-.64-3.933-2.426-3.933s-2.425 1.852-2.425 3.933c0 2.082.639 3.95 2.425 3.95zm11.377 1.705c-3.065 0-4.376-2.901-4.376-5.655 0-2.753 1.31-5.638 4.376-5.638 3.064 0 4.376 2.885 4.376 5.638 0 2.754-1.312 5.655-4.376 5.655zm0-1.705c1.786 0 2.425-1.868 2.425-3.95 0-2.081-.639-3.933-2.425-3.933-1.787 0-2.426 1.852-2.426 3.933 0 2.082.64 3.95 2.426 3.95zm11.392 1.508v-10.932H32.53l-3.147 3.18 1.114 1.164 1.787-1.852v8.44H34.2zm7.492.197c-3.065 0-4.376-2.901-4.376-5.655 0-2.753 1.311-5.638 4.376-5.638 3.065 0 4.376 2.885 4.376 5.638 0 2.754-1.31 5.655-4.376 5.655zm0-1.705c1.787 0 2.426-1.868 2.426-3.95 0-2.081-.64-3.933-2.426-3.933s-2.425 1.852-2.425 3.933c0 2.082.639 3.95 2.425 3.95zm11.393 1.508v-10.932h-1.672l-3.147 3.18 1.115 1.164 1.786-1.852v8.44h1.918zm7.508 0v-10.932h-1.671l-3.147 3.18 1.114 1.164 1.787-1.852v8.44h1.917zm7.509 0v-10.932H66.43l-3.147 3.18 1.115 1.164 1.786-1.852v8.44h1.918zm7.492.197c-3.065 0-4.376-2.901-4.376-5.655 0-2.753 1.31-5.638 4.376-5.638 3.065 0 4.376 2.885 4.376 5.638 0 2.754-1.311 5.655-4.376 5.655zm0-1.705c1.786 0 2.425-1.868 2.425-3.95 0-2.081-.639-3.933-2.425-3.933-1.787 0-2.426 1.852-2.426 3.933 0 2.082.64 3.95 2.426 3.95zm11.376 1.705c-3.065 0-4.376-2.901-4.376-5.655 0-2.753 1.311-5.638 4.376-5.638 3.065 0 4.376 2.885 4.376 5.638 0 2.754-1.311 5.655-4.376 5.655zm0-1.705c1.786 0 2.426-1.868 2.426-3.95 0-2.081-.64-3.933-2.426-3.933s-2.426 1.852-2.426 3.933c0 2.082.64 3.95 2.426 3.95zm11.393 1.508v-10.932h-1.672l-3.147 3.18 1.115 1.164 1.786-1.852v8.44h1.918zm7.508 0v-10.932H104.2l-3.146 3.18 1.114 1.164 1.786-1.852v8.44h1.918zm7.492.197c-3.065 0-4.376-2.901-4.376-5.655 0-2.753 1.311-5.638 4.376-5.638 3.065 0 4.376 2.885 4.376 5.638 0 2.754-1.311 5.655-4.376 5.655zm0-1.705c1.786 0 2.426-1.868 2.426-3.95 0-2.081-.64-3.933-2.426-3.933s-2.426 1.852-2.426 3.933c0 2.082.64 3.95 2.426 3.95zm11.376 1.705c-3.065 0-4.376-2.901-4.376-5.655 0-2.753 1.311-5.638 4.376-5.638 3.065 0 4.376 2.885 4.376 5.638 0 2.754-1.31 5.655-4.376 5.655zm0-1.705c1.787 0 2.426-1.868 2.426-3.95 0-2.081-.64-3.933-2.426-3.933s-2.425 1.852-2.425 3.933c0 2.082.639 3.95 2.425 3.95zm-157.938 1.631v-10.932h-1.672l-3.146 3.18 1.114 1.163 1.786-1.852v8.441h1.918zm7.492.197c-3.065 0-4.376-2.901-4.376-5.655 0-2.753 1.311-5.638 4.376-5.638 3.065 0 4.376 2.885 4.376 5.638 0 2.754-1.311 5.655-4.376 5.655zm0-1.705c1.786 0 2.426-1.868 2.426-3.95 0-2.081-.64-3.933-2.426-3.933s-2.426 1.852-2.426 3.933c0 2.082.64 3.95 2.426 3.95zM9.623 177.874c-3.064 0-4.376-2.9-4.376-5.654s1.312-5.638 4.376-5.638c3.065 0 4.376 2.884 4.376 5.638 0 2.753-1.31 5.654-4.376 5.654zm0-1.704c1.787 0 2.426-1.869 2.426-3.95 0-2.082-.64-3.934-2.426-3.934s-2.425 1.852-2.425 3.934c0 2.081.639 3.95 2.425 3.95zm11.393 1.507v-10.931h-1.672l-3.146 3.18 1.114 1.163 1.786-1.852v8.44h1.918zm7.508 0v-10.931h-1.671l-3.147 3.18 1.114 1.163 1.787-1.852v8.44h1.917zm7.492.197c-3.064 0-4.376-2.9-4.376-5.654s1.312-5.638 4.376-5.638c3.065 0 4.376 2.884 4.376 5.638 0 2.753-1.31 5.654-4.376 5.654zm0-1.704c1.787 0 2.426-1.869 2.426-3.95 0-2.082-.64-3.934-2.426-3.934s-2.425 1.852-2.425 3.934c0 2.081.639 3.95 2.425 3.95zm11.377 1.704c-3.065 0-4.376-2.9-4.376-5.654s1.31-5.638 4.376-5.638c3.064 0 4.376 2.884 4.376 5.638 0 2.753-1.312 5.654-4.376 5.654zm0-1.704c1.786 0 2.425-1.869 2.425-3.95 0-2.082-.639-3.934-2.425-3.934-1.787 0-2.426 1.852-2.426 3.934 0 2.081.64 3.95 2.426 3.95zm11.392 1.507v-10.931h-1.671l-3.147 3.18 1.114 1.163 1.787-1.852v8.44h1.917zm7.492.197c-3.064 0-4.376-2.9-4.376-5.654s1.312-5.638 4.376-5.638c3.065 0 4.376 2.884 4.376 5.638 0 2.753-1.31 5.654-4.376 5.654zm0-1.704c1.787 0 2.426-1.869 2.426-3.95 0-2.082-.64-3.934-2.426-3.934s-2.425 1.852-2.425 3.934c0 2.081.639 3.95 2.425 3.95zm11.393 1.507v-10.931h-1.672l-3.146 3.18 1.114 1.163 1.786-1.852v8.44h1.918zm7.508 0v-10.931h-1.671l-3.147 3.18 1.114 1.163 1.787-1.852v8.44h1.917zm7.509 0v-10.931h-1.672l-3.147 3.18 1.115 1.163 1.786-1.852v8.44h1.918zm7.492.197c-3.065 0-4.376-2.9-4.376-5.654s1.311-5.638 4.376-5.638c3.065 0 4.376 2.884 4.376 5.638 0 2.753-1.311 5.654-4.376 5.654zm0-1.704c1.786 0 2.425-1.869 2.425-3.95 0-2.082-.639-3.934-2.425-3.934-1.787 0-2.426 1.852-2.426 3.934 0 2.081.64 3.95 2.426 3.95zm11.376 1.704c-3.065 0-4.376-2.9-4.376-5.654s1.311-5.638 4.376-5.638c3.065 0 4.376 2.884 4.376 5.638 0 2.753-1.311 5.654-4.376 5.654zm0-1.704c1.786 0 2.426-1.869 2.426-3.95 0-2.082-.64-3.934-2.426-3.934s-2.426 1.852-2.426 3.934c0 2.081.64 3.95 2.426 3.95zm11.393 1.507v-10.931h-1.672l-3.147 3.18 1.115 1.163 1.786-1.852v8.44h1.918zm7.508 0v-10.931h-1.672l-3.146 3.18 1.114 1.163 1.787-1.852v8.44h1.917zm7.492.197c-3.065 0-4.376-2.9-4.376-5.654s1.311-5.638 4.376-5.638c3.065 0 4.376 2.884 4.376 5.638 0 2.753-1.311 5.654-4.376 5.654zm0-1.704c1.787 0 2.426-1.869 2.426-3.95 0-2.082-.64-3.934-2.426-3.934s-2.426 1.852-2.426 3.934c0 2.081.64 3.95 2.426 3.95zm11.376 1.704c-3.064 0-4.376-2.9-4.376-5.654s1.312-5.638 4.376-5.638c3.065 0 4.376 2.884 4.376 5.638 0 2.753-1.31 5.654-4.376 5.654zm0-1.704c1.787 0 2.426-1.869 2.426-3.95 0-2.082-.64-3.934-2.426-3.934s-2.425 1.852-2.425 3.934c0 2.081.639 3.95 2.425 3.95zM-8.614 177.8V166.87h-1.672l-3.146 3.18 1.114 1.163 1.787-1.852v8.44h1.917zm7.492.197c-3.065 0-4.376-2.9-4.376-5.654s1.311-5.638 4.376-5.638c3.065 0 4.376 2.884 4.376 5.638 0 2.753-1.311 5.654-4.376 5.654zm0-1.704c1.787 0 2.426-1.869 2.426-3.95 0-2.082-.64-3.934-2.426-3.934s-2.426 1.852-2.426 3.934c0 2.081.64 3.95 2.426 3.95z" mask="url(#b)" opacity=".4"/>
        </g>
        <path fill="#FFF" d="M129.752 86.182C137.342 87.94 143 94.745 143 102.87c0 9.46-7.67 17.13-17.13 17.13H61.13C51.67 120 44 112.33 44 102.87c0-8.668 6.439-15.833 14.794-16.972a24.116 24.116 0 0 1-.985-6.846C57.809 65.77 68.549 55 81.798 55c8.928 0 16.717 4.89 20.848 12.144a18.604 18.604 0 0 1 8.524-2.054c10.34 0 18.724 8.405 18.724 18.773 0 .785-.048 1.559-.142 2.319z"/>
    </g>
</svg>
