<svg xmlns="http://www.w3.org/2000/svg" width="234" height="195" viewBox="0 0 234 195">
    <g fill="none" fill-rule="evenodd">
        <path fill="#D8D8D8" d="M117 63a1 1 0 0 1 1 1v8a1 1 0 1 1-2 0v-8a1 1 0 0 1 1-1zm-59.293-7.293a1 1 0 0 1 1.414 0L90.234 86.82a1 1 0 1 1-1.414 1.414L57.707 57.121a1 1 0 0 1 0-1.414zm85 32.527a1 1 0 0 1 0-1.414l31.113-31.113a1 1 0 0 1 1.414 1.414l-31.113 31.113a1 1 0 0 1-1.414 0zM117 129.941a1 1 0 0 0 1-1v-8a1 1 0 1 0-2 0v8a1 1 0 0 0 1 1zm-59.293 7.293a1 1 0 0 0 1.414 0l31.113-31.113a1 1 0 0 0-1.414-1.414L57.707 135.82a1 1 0 0 0 0 1.414zm85-32.527a1 1 0 0 0 0 1.414l31.113 31.113a1 1 0 1 0 1.414-1.414l-31.113-31.113a1 1 0 0 0-1.414 0z"/>
        <path fill="#7FCBCF" d="M117.707 76.707l18.586 18.586a1 1 0 0 1 0 1.414l-18.586 18.586a1 1 0 0 1-1.414 0L97.707 96.707a1 1 0 0 1 0-1.414l18.586-18.586a1 1 0 0 1 1.414 0zm1 4.838a1 1 0 0 0-1.707.707V95a1 1 0 0 0 1 1h12.748a1 1 0 0 0 .707-1.707l-12.748-12.748z"/>
        <g fill="#DEDEDE">
            <path d="M205.54 158.657c-12.585 0-22.788-5.52-22.788-12.328 0-6.81 10.203-12.329 22.788-12.329 12.586 0 22.788 5.52 22.788 12.329 0 6.809-10.202 12.328-22.788 12.328zM182 152.856c.096-.873 3.63 9.427 23.46 9.427 19.83 0 23.364-10.3 23.46-9.427l.04 12.328c-.755 6.472-10.985 11.604-23.5 11.604s-22.744-5.132-23.46-11.604v-12.328zm0 18c.096-.873 3.63 9.427 23.46 9.427 19.83 0 23.364-10.3 23.46-9.427l.04 12.328c-.755 6.472-10.985 11.604-23.5 11.604s-22.744-5.132-23.46-11.604v-12.328zM115.58 158.657c-12.585 0-22.788-5.52-22.788-12.328 0-6.81 10.203-12.329 22.788-12.329 12.586 0 22.788 5.52 22.788 12.329 0 6.809-10.202 12.328-22.788 12.328zm-23.54-5.801c.096-.873 3.63 9.427 23.46 9.427 19.83 0 23.364-10.3 23.46-9.427l.04 12.328c-.756 6.472-10.985 11.604-23.5 11.604s-22.744-5.132-23.46-11.604v-12.328zm0 18c.096-.873 3.63 9.427 23.46 9.427 19.83 0 23.364-10.3 23.46-9.427l.04 12.328c-.756 6.472-10.985 11.604-23.5 11.604s-22.744-5.132-23.46-11.604v-12.328zM29.54 158.657c-12.585 0-22.788-5.52-22.788-12.328 0-6.81 10.203-12.329 22.788-12.329 12.586 0 22.788 5.52 22.788 12.329 0 6.809-10.202 12.328-22.788 12.328zM6 152.856c.096-.873 3.63 9.427 23.46 9.427 19.83 0 23.364-10.3 23.46-9.427l.04 12.328c-.755 6.472-10.985 11.604-23.5 11.604S6.716 171.656 6 165.184v-12.328zm0 18c.096-.873 3.63 9.427 23.46 9.427 19.83 0 23.364-10.3 23.46-9.427l.04 12.328c-.755 6.472-10.985 11.604-23.5 11.604S6.716 189.656 6 183.184v-12.328z"/>
        </g>
        <g transform="translate(176)">
            <circle cx="29" cy="29" r="27.08" stroke="#FFF" stroke-width="3.84"/>
            <g fill="#FFF">
                <path d="M22.653 16.917v-3.223c0-.89.721-1.61 1.611-1.61h9.667c.89 0 1.61.72 1.61 1.61v3.223h2.998a3.222 3.222 0 0 1 3.16 2.59l3.544 17.722a3.222 3.222 0 0 1-3.16 3.854H16.111a3.222 3.222 0 0 1-3.16-3.854l3.545-17.722a3.222 3.222 0 0 1 3.16-2.59h2.997zm2.417 0v-1.611c0-.445.36-.806.805-.806h6.445c.444 0 .805.36.805.806v1.61H25.07zm12.243 2.416c1.222 0 1.468.062 1.707 1.267l3.624 15.789c.278 1.396.183 1.948-1.204 2.228-.11.022-8.236.038-24.378.05-1.415 0-1.756-.349-1.756-1.773 0-.113 1.224-5.544 3.673-16.294.24-1.205.486-1.267 1.707-1.267h16.627z"/>
                <path d="M28.452 32.222L25.81 28.82l2.59-2.823h-1.675L23.98 29v-5.375h-1.354v8.597h1.354v-1.675l.863-.89 1.908 2.565h1.701zm3.617 2.526c-1.057 0-1.843-.232-2.603-.928l.631-.98c.503.58 1.147.8 1.972.8.89 0 1.843-.412 1.843-1.688v-.748c-.477.619-1.185 1.031-1.997 1.031-1.586 0-2.759-1.147-2.759-3.196 0-2.011 1.16-3.197 2.759-3.197.786 0 1.495.361 1.997 1.018v-.863h1.354V31.9c0 2.243-1.663 2.848-3.197 2.848zm.245-3.712c.632 0 1.302-.373 1.598-.837v-2.32c-.296-.464-.966-.838-1.598-.838-1.07 0-1.753.799-1.753 1.998 0 1.198.683 1.997 1.753 1.997z"/>
            </g>
        </g>
        <g transform="translate(88)">
            <circle cx="29" cy="29" r="27.08" stroke="#FFF" stroke-width="3.84"/>
            <g fill="#FFF">
                <path d="M29 41.889c-4.767 0-11.48-4.296-20.139-12.889C17.521 20.407 24.233 16.111 29 16.111c4.767 0 11.48 4.296 20.139 12.889C40.479 37.593 33.767 41.889 29 41.889zm-.36-2.864c3.671 0 9.066-3.342 16.183-10.025-7.117-6.683-12.512-10.025-16.183-10.025-3.67 0-9.065 3.342-16.183 10.025 7.118 6.683 12.513 10.025 16.183 10.025z"/>
                <path d="M29 36.16c-3.972 0-7.192-3.205-7.192-7.16s3.22-7.16 7.192-7.16 7.192 3.205 7.192 7.16-3.22 7.16-7.192 7.16zm0-2.864c2.383 0 4.315-1.923 4.315-4.296S31.383 24.704 29 24.704c-2.383 0-4.315 1.923-4.315 4.296s1.932 4.296 4.315 4.296z"/>
                <path d="M29.305 26.873A2.153 2.153 0 0 0 26.842 29c0 1.186.966 2.148 2.158 2.148a2.153 2.153 0 0 0 2.136-2.452L29 29l.305-2.127z"/>
            </g>
        </g>
        <g>
            <circle cx="29" cy="29" r="27.08" stroke="#FFF" stroke-width="3.84"/>
            <path fill="#FFF" d="M44.135 35.207c.631-1.717.976-3.57.976-5.505 0-8.85-7.213-16.025-16.111-16.025s-16.111 7.175-16.111 16.025a15.9 15.9 0 0 0 1.262 6.227l1.914-1.1 1.611 2.776-4.787 2.673c-1.95-3.002-3.222-6.737-3.222-10.576 0-10.62 8.655-19.23 19.333-19.23 10.678 0 19.333 8.61 19.333 19.23 0 3.632-1.012 7.03-2.772 9.927l-5.09-2.825 1.61-2.776 2.054 1.18zm-15.947.58a2.57 2.57 0 0 1-1.826-3.144c.366-1.368 6.4-12.583 6.4-12.583s-1.054 12.55-1.42 13.917a2.57 2.57 0 0 1-3.154 1.81z"/>
        </g>
    </g>
</svg>
