<svg xmlns="http://www.w3.org/2000/svg" xmlns:xlink="http://www.w3.org/1999/xlink" width="162" height="156" viewBox="0 0 162 156">
    <defs>
        <circle id="a" cx="81" cy="78" r="21"/>
    </defs>
    <g fill="none" fill-rule="evenodd">
        <path stroke="#FFF" stroke-width="3" d="M15.5 15.5v125h131v-125h-131z"/>
        <path fill="#7FCBCF" d="M32.624 128.076a4.983 4.983 0 0 1-3.438-1.463 4.99 4.99 0 0 1-1.433-4.091c-.02-.183-.031-.37-.031-.558v-20a5 5 0 0 1 10 0v9.042l26.82-26.82a5 5 0 1 1 7.07 7.071l-27.02 27.021h9.444a5 5 0 1 1 0 10h-20c-.49 0-.964-.07-1.412-.202zM129.376 128.076a4.983 4.983 0 0 0 3.438-1.463 4.99 4.99 0 0 0 1.433-4.091c.02-.183.031-.37.031-.558v-20a5 5 0 0 0-10 0v9.042l-26.82-26.82a5 5 0 0 0-7.07 7.071l27.02 27.021h-9.444a5 5 0 1 0 0 10h20c.49 0 .964-.07 1.412-.202zM32.624 27.924a4.983 4.983 0 0 0-3.438 1.463 4.99 4.99 0 0 0-1.433 4.091c-.02.183-.031.37-.031.558v20a5 5 0 1 0 10 0v-9.042l26.82 26.82a5 5 0 1 0 7.07-7.071l-27.02-27.021h9.444a5 5 0 1 0 0-10h-20c-.49 0-.964.07-1.412.202zM129.376 27.924a4.983 4.983 0 0 1 3.438 1.463 4.99 4.99 0 0 1 1.433 4.091c.02.183.031.37.031.558v20a5 5 0 1 1-10 0v-9.042l-26.82 26.82a5 5 0 0 1-7.07-7.071l27.02-27.021h-9.444a5 5 0 0 1 0-10h20c.49 0 .964.07 1.412.202z"/>
        <g>
            <use fill="#3D3D3D" xlink:href="#a"/>
            <circle cx="81" cy="78" r="16" stroke="#FFF" stroke-width="10"/>
        </g>
        <path fill="#7FCBCF" d="M6 6h11a3 3 0 0 0 0-6H3A2.99 2.99 0 0 0 .879.879 2.99 2.99 0 0 0 0 3v14a3 3 0 0 0 6 0V6zM156 6h-11a3 3 0 0 1 0-6h14a2.99 2.99 0 0 1 2.121.879A2.99 2.99 0 0 1 162 3v14a3 3 0 0 1-6 0V6zM6 150h11a3 3 0 0 1 0 6H3a2.99 2.99 0 0 1-2.121-.879A2.99 2.99 0 0 1 0 153v-14a3 3 0 0 1 6 0v11zM156 150h-11a3 3 0 0 0 0 6h14a2.99 2.99 0 0 0 2.121-.879A2.99 2.99 0 0 0 162 153v-14a3 3 0 0 0-6 0v11z"/>
    </g>
</svg>
