<svg xmlns="http://www.w3.org/2000/svg" width="218" height="149" viewBox="0 0 218 149">
    <g fill="none" fill-rule="evenodd">
        <path fill="#FFF" d="M65.945 120H42c-7.18 0-13-5.82-13-13V84.055c-2.513-1.074-4.513-1.592-6-1.555-1.744.044-3.985.886-6.722 2.528a7.636 7.636 0 0 1-2.087 1.341A52.03 52.03 0 0 0 14 86.5v-.052A8.06 8.06 0 0 1 11 87C4.925 87 0 81.075 0 75s4.925-12 11-12a8.06 8.06 0 0 1 3 .552V63.5l.145.111a7.79 7.79 0 0 1 2.685 1.903C19.335 67.131 21.392 67.96 23 68c1.472.037 3.472-.56 6-1.792V42c0-7.18 5.82-13 13-13h23.945c1.074-2.513 1.592-4.513 1.555-6-.044-1.744-.886-3.985-2.528-6.722a7.636 7.636 0 0 1-1.341-2.087A52.03 52.03 0 0 0 63.5 14h.052A8.06 8.06 0 0 1 63 11c0-6.075 5.925-11 12-11s12 4.925 12 11a8.06 8.06 0 0 1-.552 3h.052l-.111.145a7.79 7.79 0 0 1-1.903 2.685C82.869 19.335 82.04 21.392 82 23c-.037 1.472.56 3.472 1.792 6H107c7.18 0 13 5.82 13 13v18.17c-3.733-1.056-7.744-2.355-7.788-2.342-1.359-.535-2.873-.828-4.545-.828C98.462 57 91 65.887 91 75s7.462 18 16.667 18c1.672 0 3.186-.293 4.545-.75.058-.04 4.05-1.1 7.788-1.95V107c0 7.18-5.82 13-13 13H83.792c-1.232 2.528-1.829 4.528-1.792 6 .04 1.608.869 3.665 2.486 6.17a7.79 7.79 0 0 1 1.903 2.685l.111.145h-.052a8.06 8.06 0 0 1 .552 3c0 6.075-5.925 11-12 11s-12-4.925-12-11a8.06 8.06 0 0 1 .552-3H63.5l.13-.19a7.636 7.636 0 0 1 1.342-2.088c1.642-2.737 2.484-4.978 2.528-6.722.037-1.487-.481-3.487-1.555-6z"/>
        <path fill="#7FCBCF" d="M163.945 120H140c-7.18 0-13-5.82-13-13V84.055c-2.513-1.074-4.513-1.592-6-1.555-1.744.044-3.985.886-6.722 2.528a7.636 7.636 0 0 1-2.087 1.341L112 86.5v-.052a8.06 8.06 0 0 1-3 .552c-6.075 0-11-5.925-11-12s4.925-12 11-12a8.06 8.06 0 0 1 3 .552V63.5l.145.111a7.79 7.79 0 0 1 2.685 1.903c2.505 1.617 4.562 2.446 6.17 2.486 1.472.037 3.472-.56 6-1.792V42c0-7.18 5.82-13 13-13h23.945c1.074-2.513 1.592-4.513 1.555-6-.044-1.744-.886-3.985-2.528-6.722a7.636 7.636 0 0 1-1.341-2.087A51.979 51.979 0 0 0 161.5 14h.052a8.06 8.06 0 0 1-.552-3c0-6.075 5.925-11 12-11s12 4.925 12 11a8.06 8.06 0 0 1-.552 3h.052l-.111.145a7.79 7.79 0 0 1-1.903 2.685c-1.617 2.505-2.446 4.562-2.486 6.17-.037 1.472.56 3.472 1.792 6H205c7.18 0 13 5.82 13 13v18.17c-3.733-1.056-7.744-2.355-7.788-2.342-1.359-.535-2.873-.828-4.545-.828C196.462 57 189 65.887 189 75s7.462 18 16.667 18c1.672 0 3.186-.293 4.545-.75.058-.04 4.05-1.1 7.788-1.95V107c0 7.18-5.82 13-13 13h-23.208c-1.232 2.528-1.829 4.528-1.792 6 .04 1.608.869 3.665 2.486 6.17a7.79 7.79 0 0 1 1.903 2.685l.111.145h-.052a8.06 8.06 0 0 1 .552 3c0 6.075-5.925 11-12 11s-12-4.925-12-11a8.06 8.06 0 0 1 .552-3h-.052l.13-.19a7.636 7.636 0 0 1 1.342-2.088c1.642-2.737 2.484-4.978 2.528-6.722.037-1.487-.481-3.487-1.555-6z"/>
    </g>
</svg>
