<?xml version="1.0" encoding="UTF-8"?>
<svg width="30px" height="31px" viewBox="0 0 30 31" version="1.1" xmlns="http://www.w3.org/2000/svg" xmlns:xlink="http://www.w3.org/1999/xlink">
    <!-- Generator: sketchtool 41.2 (35397) - http://www.bohemiancoding.com/sketch -->
    <title>E1784EF5-E788-4281-B619-55C7A5B3204B</title>
    <desc>Created with sketchtool.</desc>
    <defs>
        <linearGradient x1="0%" y1="0%" x2="96.4524872%" y2="96.4524872%" id="linearGradient-1">
            <stop stop-color="#7FB0CF" offset="0%"></stop>
            <stop stop-color="#7FACCF" offset="100%"></stop>
        </linearGradient>
    </defs>
    <g id="Visual" stroke="none" stroke-width="1" fill="none" fill-rule="evenodd">
        <g id="States-/-Assets" transform="translate(-965.000000, -3198.000000)" fill="url(#linearGradient-1)">
            <g id="small_social" transform="translate(845.000000, 3198.000000)">
                <path d="M135.000124,0.230769231 C126.71687,0.230769231 120,7.11616523 120,15.6104033 C120,22.405641 124.297992,28.1706798 130.258,30.2043357 C131.007659,30.3467043 131.282881,29.870699 131.282881,29.4644772 C131.282881,29.0977315 131.268971,27.8861972 131.262513,26.6010591 C127.089464,27.5314217 126.208901,24.7864319 126.208901,24.7864319 C125.526558,23.008734 124.543407,22.5360395 124.543407,22.5360395 C123.182447,21.5814819 124.645995,21.6010926 124.645995,21.6010926 C126.152267,21.7093335 126.945394,23.1859944 126.945394,23.1859944 C128.283254,25.5372419 130.454481,24.8574889 131.310453,24.4645107 C131.445084,23.4707317 131.833823,22.7917427 132.262803,22.4079332 C128.93107,22.0190299 125.42869,20.7002735 125.42869,14.8071284 C125.42869,13.1279933 126.014655,11.7560078 126.974208,10.678947 C126.818464,10.2913171 126.30503,8.7272995 127.11952,6.60883366 C127.11952,6.60883366 128.379135,6.19548069 131.245622,8.18533084 C132.442144,7.84456295 133.725357,7.67366964 135.000124,7.6678119 C136.274891,7.67366964 137.559097,7.84456295 138.757856,8.18533084 C141.620865,6.19548069 142.878741,6.60883366 142.878741,6.60883366 C143.695218,8.7272995 143.181536,10.2913171 143.025792,10.678947 C143.98758,11.7560078 144.569572,13.1279933 144.569572,14.8071284 C144.569572,20.7142811 141.060484,22.014955 137.720306,22.3957083 C138.258332,22.8729871 138.737735,23.8089527 138.737735,25.2438453 C138.737735,27.3014415 138.720348,28.957655 138.720348,29.4644772 C138.720348,29.8737552 138.990354,30.3533261 139.750693,30.2022982 C145.707473,28.1663502 150,22.4033488 150,15.6104033 C150,7.11616523 143.284123,0.230769231 135.000124,0.230769231" id="github"></path>
            </g>
        </g>
    </g>
</svg>