<?xml version="1.0" encoding="UTF-8"?>
<svg width="30px" height="24px" viewBox="0 0 30 24" version="1.1" xmlns="http://www.w3.org/2000/svg" xmlns:xlink="http://www.w3.org/1999/xlink">
    <!-- Generator: sketchtool 41.2 (35397) - http://www.bohemiancoding.com/sketch -->
    <title>023FCE8F-ECD3-499B-BD62-A2427913E1DB</title>
    <desc>Created with sketchtool.</desc>
    <defs>
        <linearGradient x1="0%" y1="0%" x2="100%" y2="100%" id="linearGradient-1">
            <stop stop-color="#7FCBCF" offset="0%"></stop>
            <stop stop-color="#7FC5CF" offset="100%"></stop>
        </linearGradient>
    </defs>
    <g id="Visual" stroke="none" stroke-width="1" fill="none" fill-rule="evenodd">
        <g id="States-/-Assets" transform="translate(-845.000000, -3201.000000)" fill="url(#linearGradient-1)">
            <g id="small_social" transform="translate(845.000000, 3198.000000)">
                <path d="M26.9472,9.75920132 C26.9472,9.49686726 26.9472,9.23571488 26.9292,8.9757442 C28.1337976,8.11773558 29.1736266,7.05536364 30,5.83837065 C28.8766549,6.32853567 27.6849951,6.64998573 26.4648,6.79199041 C27.7496928,6.03450915 28.7113482,4.84312249 29.1708,3.43955021 C27.962589,4.14555416 26.6407753,4.64311053 25.2624,4.91074797 C23.3544993,2.91298463 20.3228632,2.42402503 17.8674591,3.71804963 C15.412055,5.01207423 14.14353,7.7672654 14.7732,10.4386702 C9.82427488,10.1943563 5.21337094,7.8925211 2.088,4.10602052 C0.454347308,6.87547022 1.28878546,10.4184155 3.9936,12.1970174 C3.01408944,12.1684295 2.05593525,11.9082291 1.2,11.4383756 L1.2,11.5151852 C1.20080176,14.4003788 3.26610179,16.885394 6.138,17.4566971 C5.23184351,17.7000533 4.2810967,17.7356271 3.3588,17.5606854 C4.16513751,20.0297249 6.47588947,21.7211427 9.1092,21.7698471 C6.92968205,23.456622 4.23727141,24.3723047 1.4652,24.369554 C0.975484283,24.3686282 0.486244878,24.3394299 0,24.2821094 C2.81476314,26.060872 6.08989608,27.004377 9.4344,26.9999847 C20.7552,27.0047115 26.9472,17.7686619 26.9472,9.75920132 Z" id="twitter"></path>
            </g>
        </g>
    </g>
</svg>