<svg xmlns="http://www.w3.org/2000/svg" xmlns:xlink="http://www.w3.org/1999/xlink" width="1400" height="250" viewBox="0 0 1400 250">
    <defs>
        <linearGradient id="a" x1="50%" x2="50%" y1="0%" y2="100%">
            <stop offset="0%" stop-color="#CFCFCF"/>
            <stop offset="100%" stop-color="#717C82" stop-opacity="0"/>
        </linearGradient>
        <path id="b" d="M89.225 192.399A50.883 50.883 0 0 0 112.5 198c12.263 0 23.525-4.328 32.37-11.553A44.319 44.319 0 0 0 164.5 191c3.91 0 7.704-.504 11.317-1.452C189.838 206.895 211.364 218 235.5 218c17.342 0 33.336-5.733 46.166-15.394C286.94 221.299 304.12 235 324.5 235c19.122 0 35.427-12.06 41.722-28.99A58.353 58.353 0 0 0 387.5 210c8.99 0 17.506-2.028 25.117-5.651C420.779 213.926 432.93 220 446.5 220c14.806 0 27.923-7.23 36.012-18.354C491.73 215.718 507.541 225 525.5 225a50.883 50.883 0 0 0 23.275-5.601C558.18 229.61 571.6 236 586.5 236c22.548 0 41.712-14.631 48.686-35.004A58.352 58.352 0 0 0 656.5 205c19.17 0 36.187-9.221 46.857-23.47a35.506 35.506 0 0 0 11.112 1.457C717.61 204.489 736.127 221 758.5 221c14.139 0 26.737-6.594 34.888-16.874a44.203 44.203 0 0 0 14.542 5.233C815.827 221.768 829.702 230 845.5 230a44.323 44.323 0 0 0 28.725-10.512C887.902 232.211 906.285 240 926.5 240c24.344 0 46.033-11.297 60.043-28.902a44.7 44.7 0 0 0 8.957.902c6.493 0 12.66-1.39 18.222-3.89 8.905 7.428 20.326 11.89 32.778 11.89a50.882 50.882 0 0 0 23.953-5.955C1079.87 224.464 1093.429 231 1108.5 231c13.695 0 26.142-5.398 35.367-14.201 8.066 8.151 19.26 13.201 31.633 13.201a44.293 44.293 0 0 0 23.025-6.412C1212.555 239.76 1233.324 250 1256.5 250a76.56 76.56 0 0 0 66.312-38.08c.89.053 1.786.08 2.688.08 6.493 0 12.66-1.39 18.222-3.89 8.905 7.428 20.326 11.89 32.778 11.89a50.882 50.882 0 0 0 23.953-5.955C1409.87 224.464 1423.429 231 1438.5 231c28.443 0 51.5-23.281 51.5-52s-23.057-52-51.5-52a50.882 50.882 0 0 0-23.953 5.955C1405.13 122.536 1391.571 116 1376.5 116c-12.09 0-23.209 4.207-31.996 11.25A44.328 44.328 0 0 0 1325.5 123c-3.815 0-7.517.48-11.05 1.383C1300.42 108.227 1279.661 98 1256.5 98c-30.927 0-57.567 18.232-69.625 44.467A44.568 44.568 0 0 0 1175.5 141a44.294 44.294 0 0 0-25.104 7.752c-9.344-13.17-24.627-21.752-41.896-21.752a50.882 50.882 0 0 0-23.953 5.955C1075.13 122.536 1061.571 116 1046.5 116c-12.09 0-23.209 4.207-31.996 11.25A44.328 44.328 0 0 0 995.5 123c-1.497 0-2.976.074-4.435.218C977.485 102.045 953.644 88 926.5 88c-34.435 0-63.556 22.603-73.15 53.69a44.295 44.295 0 0 0-.28-.049C845.173 129.232 831.298 121 815.5 121c-14.139 0-26.737 6.594-34.888 16.874A44.296 44.296 0 0 0 758.5 132c-4.258 0-8.377.598-12.276 1.715C740.843 120.955 728.217 112 713.5 112c-3.088 0-6.085.394-8.941 1.135C693.992 97.944 676.407 88 656.5 88c-27.894 0-51.228 19.522-57.084 45.649A51.123 51.123 0 0 0 586.5 132a50.883 50.883 0 0 0-23.275 5.601C553.82 127.39 540.4 121 525.5 121c-19.124 0-35.814 10.525-44.697 26.151C472.641 137.286 460.305 131 446.5 131c-1.39 0-2.765.064-4.122.188C434.122 108.892 412.667 93 387.5 93c-15.338 0-29.298 5.903-39.73 15.561A44.292 44.292 0 0 0 324.5 102a44.304 44.304 0 0 0-20.956 5.233A76.553 76.553 0 0 0 235.5 66c-27.63 0-51.84 14.553-65.285 36.364A44.927 44.927 0 0 0 164.5 102a44.33 44.33 0 0 0-18.87 4.187C136.676 98.582 125.119 94 112.5 94c-14.9 0-28.321 6.389-37.725 16.601A50.883 50.883 0 0 0 51.5 105C23.057 105 0 128.281 0 157s23.057 52 51.5 52c14.9 0 28.321-6.389 37.725-16.601z"/>
        <filter id="c" width="101.7%" height="113.6%" x="-.8%" y="-6.8%" filterUnits="objectBoundingBox">
            <feGaussianBlur in="SourceAlpha" result="shadowBlurInner1" stdDeviation="5"/>
            <feOffset dy="15" in="shadowBlurInner1" result="shadowOffsetInner1"/>
            <feComposite in="shadowOffsetInner1" in2="SourceAlpha" k2="-1" k3="1" operator="arithmetic" result="shadowInnerInner1"/>
            <feColorMatrix in="shadowInnerInner1" values="0 0 0 0 1 0 0 0 0 1 0 0 0 0 1 0 0 0 0.0652740036 0"/>
        </filter>
        <linearGradient id="d" x1="50%" x2="50%" y1="0%" y2="100%">
            <stop offset="0%" stop-color="#CFCFCF"/>
            <stop offset="100%" stop-color="#727D83" stop-opacity="0"/>
        </linearGradient>
        <path id="e" d="M133.225 126.399A50.883 50.883 0 0 0 156.5 132c12.263 0 23.525-4.328 32.37-11.553A44.319 44.319 0 0 0 208.5 125c3.91 0 7.704-.504 11.317-1.452C233.838 140.895 255.364 152 279.5 152c17.342 0 33.336-5.733 46.166-15.394C330.94 155.299 348.12 169 368.5 169c19.122 0 35.427-12.06 41.722-28.99A58.353 58.353 0 0 0 431.5 144c8.99 0 17.506-2.028 25.117-5.651C464.779 147.926 476.93 154 490.5 154c14.806 0 27.923-7.23 36.012-18.354C535.73 149.718 551.541 159 569.5 159a50.883 50.883 0 0 0 23.275-5.601C602.18 163.61 615.6 170 630.5 170c22.548 0 41.712-14.631 48.686-35.004A58.352 58.352 0 0 0 700.5 139c19.17 0 36.187-9.221 46.857-23.47a35.506 35.506 0 0 0 11.112 1.457C761.61 138.489 780.127 155 802.5 155c14.139 0 26.737-6.594 34.888-16.874a44.203 44.203 0 0 0 14.542 5.233C859.827 155.768 873.702 164 889.5 164a44.323 44.323 0 0 0 28.725-10.512C931.902 166.211 950.285 174 970.5 174c24.344 0 46.033-11.297 60.043-28.902a44.7 44.7 0 0 0 8.957.902c6.493 0 12.66-1.39 18.222-3.89 8.905 7.428 20.326 11.89 32.778 11.89a50.882 50.882 0 0 0 23.953-5.955C1123.87 158.464 1137.429 165 1152.5 165c13.695 0 26.142-5.398 35.367-14.201 8.066 8.151 19.26 13.201 31.633 13.201a44.293 44.293 0 0 0 23.025-6.412C1256.555 173.76 1277.324 184 1300.5 184a76.56 76.56 0 0 0 66.312-38.08c.89.053 1.786.08 2.688.08 6.493 0 12.66-1.39 18.222-3.89 8.905 7.428 20.326 11.89 32.778 11.89a50.882 50.882 0 0 0 23.953-5.955C1453.87 158.464 1467.429 165 1482.5 165c28.443 0 51.5-23.281 51.5-52s-23.057-52-51.5-52a50.882 50.882 0 0 0-23.953 5.955C1449.13 56.536 1435.571 50 1420.5 50c-12.09 0-23.209 4.207-31.996 11.25A44.328 44.328 0 0 0 1369.5 57c-3.815 0-7.517.48-11.05 1.383C1344.42 42.227 1323.661 32 1300.5 32c-30.927 0-57.567 18.232-69.625 44.467A44.568 44.568 0 0 0 1219.5 75a44.294 44.294 0 0 0-25.104 7.752C1185.052 69.582 1169.769 61 1152.5 61a50.882 50.882 0 0 0-23.953 5.955C1119.13 56.536 1105.571 50 1090.5 50c-12.09 0-23.209 4.207-31.996 11.25A44.328 44.328 0 0 0 1039.5 57c-1.497 0-2.976.074-4.435.218C1021.485 36.045 997.644 22 970.5 22c-34.435 0-63.556 22.603-73.15 53.69a44.338 44.338 0 0 0-.28-.049C889.173 63.232 875.298 55 859.5 55c-14.139 0-26.737 6.594-34.888 16.874A44.296 44.296 0 0 0 802.5 66c-4.258 0-8.377.598-12.276 1.715C784.843 54.955 772.217 46 757.5 46c-3.088 0-6.085.394-8.941 1.135C737.992 31.944 720.407 22 700.5 22c-27.894 0-51.228 19.522-57.084 45.649A51.123 51.123 0 0 0 630.5 66a50.883 50.883 0 0 0-23.275 5.601C597.82 61.39 584.4 55 569.5 55c-19.124 0-35.814 10.525-44.697 26.151C516.641 71.286 504.305 65 490.5 65c-1.39 0-2.765.064-4.122.188C478.122 42.892 456.667 27 431.5 27c-15.338 0-29.298 5.903-39.73 15.561A44.292 44.292 0 0 0 368.5 36a44.304 44.304 0 0 0-20.956 5.233A76.553 76.553 0 0 0 279.5 0c-27.63 0-51.84 14.553-65.285 36.364A44.927 44.927 0 0 0 208.5 36a44.33 44.33 0 0 0-18.87 4.187C180.676 32.582 169.119 28 156.5 28c-14.9 0-28.321 6.389-37.725 16.601A50.883 50.883 0 0 0 95.5 39C67.057 39 44 62.281 44 91s23.057 52 51.5 52c14.9 0 28.321-6.389 37.725-16.601z"/>
        <filter id="f" width="101.7%" height="113.6%" x="-.8%" y="-6.8%" filterUnits="objectBoundingBox">
            <feGaussianBlur in="SourceAlpha" result="shadowBlurInner1" stdDeviation="5"/>
            <feOffset dy="15" in="shadowBlurInner1" result="shadowOffsetInner1"/>
            <feComposite in="shadowOffsetInner1" in2="SourceAlpha" k2="-1" k3="1" operator="arithmetic" result="shadowInnerInner1"/>
            <feColorMatrix in="shadowInnerInner1" values="0 0 0 0 1 0 0 0 0 1 0 0 0 0 1 0 0 0 0.0652740036 0"/>
        </filter>
    </defs>
    <g fill="none" fill-rule="evenodd">
        <g opacity=".245" transform="translate(-31)">
            <use fill="url(#a)" xlink:href="#b"/>
            <use fill="#000" filter="url(#c)" xlink:href="#b"/>
        </g>
        <g opacity=".15" transform="matrix(-1 0 0 1 1547 0)">
            <use fill="url(#d)" xlink:href="#e"/>
            <use fill="#000" filter="url(#f)" xlink:href="#e"/>
        </g>
    </g>
</svg>
