<?xml version="1.0" encoding="UTF-8"?>
<svg width="640px" height="429px" viewBox="0 0 640 429" version="1.1" xmlns="http://www.w3.org/2000/svg" xmlns:xlink="http://www.w3.org/1999/xlink">
    <!-- Generator: sketchtool 41.2 (35397) - http://www.bohemiancoding.com/sketch -->
    <title>DB928FDD-CCDB-4601-832B-36CEAFEE55F1</title>
    <desc>Created with sketchtool.</desc>
    <defs>
        <rect id="path-1" x="0" y="0" width="620" height="409"></rect>
        <filter x="-50%" y="-50%" width="200%" height="200%" filterUnits="objectBoundingBox" id="filter-2">
            <feOffset dx="0" dy="0" in="SourceAlpha" result="shadowOffsetOuter1"></feOffset>
            <feGaussianBlur stdDeviation="5" in="shadowOffsetOuter1" result="shadowBlurOuter1"></feGaussianBlur>
            <feColorMatrix values="0 0 0 0 0   0 0 0 0 0   0 0 0 0 0  0 0 0 0.145182292 0" type="matrix" in="shadowBlurOuter1"></feColorMatrix>
        </filter>
        <linearGradient x1="0%" y1="0%" x2="100%" y2="100%" id="linearGradient-3">
            <stop stop-color="#CAD2D6" offset="0%"></stop>
            <stop stop-color="#B5BFC1" offset="100%"></stop>
        </linearGradient>
        <path d="M512.034751,216.727051 C515.443697,214.488349 519.582382,213.400734 523.683955,211.884859 C525.896191,211.067253 529.652693,209.157105 532.604159,207.08669 C533.311927,206.590201 533.22003,204.271277 533.197467,203.125285 C533.190426,202.786958 531.88005,201.448397 530.568896,198.808905 C529.257743,196.169412 528.016551,192.234707 528.280918,191.534036 C528.294653,191.497631 527.169379,191.802034 526.005082,190.776037 C524.840786,189.750041 524.168514,188.173451 523.695032,186.480025 C523.394122,185.403808 522.922708,181.257283 525.398893,180.74062 C526.077621,180.599002 522.995388,168.867 526.76766,164.785025 C528.151066,163.288042 529.32181,160.215677 532.847357,161.354441 C533.347351,161.515941 533.15398,160.838322 534.647791,159.852241 C535.275002,159.438213 536.255407,158.446547 538.449438,157.696186 C540.643469,156.945826 542.971193,157.04453 543.901531,157.006686 C546.944292,156.882912 556.922925,158.459004 559.787331,163.295392 C562.596412,168.038368 563.897282,174.4945 562.770318,180.233905 C562.751677,180.32884 562.399204,180.74062 563.181186,180.901764 C565.517903,181.722923 565.42416,191.00457 560.07541,191.534036 C559.899576,192.351171 559.447806,194.005397 558.936221,195.517453 C558.424636,197.029508 556.745508,201.345792 554.67542,203.288975 C554.67542,205.656521 554.67542,205.760829 554.67542,206.652703 C555.616893,207.261822 558.296736,209.238193 561.641344,210.708396 C564.985953,212.178599 574.69222,215.769567 575.46062,216.727051 C580.535773,219.541889 583.129009,225.617279 584.502259,229.508315 C588.618077,241.17028 566.518678,243.044755 543.701984,242.999202 C506.841938,242.925612 501.862457,236.333887 503.185439,229.508315 C504.492668,226.372224 504.371233,221.75979 512.034751,216.727051 Z" id="path-4"></path>
        <filter x="-50%" y="-50%" width="200%" height="200%" filterUnits="objectBoundingBox" id="filter-5">
            <feOffset dx="0" dy="4" in="SourceAlpha" result="shadowOffsetOuter1"></feOffset>
            <feGaussianBlur stdDeviation="7" in="shadowOffsetOuter1" result="shadowBlurOuter1"></feGaussianBlur>
            <feColorMatrix values="0 0 0 0 0   0 0 0 0 0   0 0 0 0 0  0 0 0 0.199756567 0" type="matrix" in="shadowBlurOuter1"></feColorMatrix>
        </filter>
        <filter x="-50%" y="-50%" width="200%" height="200%" filterUnits="objectBoundingBox" id="filter-6">
            <feGaussianBlur stdDeviation="1.5" in="SourceAlpha" result="shadowBlurInner1"></feGaussianBlur>
            <feOffset dx="0" dy="1" in="shadowBlurInner1" result="shadowOffsetInner1"></feOffset>
            <feComposite in="shadowOffsetInner1" in2="SourceAlpha" operator="arithmetic" k2="-1" k3="1" result="shadowInnerInner1"></feComposite>
            <feColorMatrix values="0 0 0 0 1   0 0 0 0 1   0 0 0 0 1  0 0 0 0.3 0" type="matrix" in="shadowInnerInner1"></feColorMatrix>
        </filter>
    </defs>
    <g id="Visual" stroke="none" stroke-width="1" fill="none" fill-rule="evenodd">
        <g id="States-/-Assets" transform="translate(-90.000000, -3471.000000)">
            <g id="developers_page_asset" transform="translate(100.000000, 3481.000000)">
                <g id="bg">
                    <use fill="black" fill-opacity="1" filter="url(#filter-2)" xlink:href="#path-1"></use>
                    <use fill="#31393E" fill-rule="evenodd" xlink:href="#path-1"></use>
                </g>
                <g id="message_3" transform="translate(161.000000, 87.000000)">
                    <path d="M0,0 L298.990982,0 C308.937088,0 317,8.0611777 317,18.0099928 L317,29.9900072 C317,39.9366516 308.945623,48 298.990982,48 L18.0090178,48 C8.06291192,48 0,39.9388223 0,29.9900072 L0,0 Z" id="box_1" fill="#7FCFB6"></path>
                    <path d="M32.64,30.192 C34.448,30.192 35.648,29.616 36.704,28.688 C36.88,28.528 37.024,28.288 37.024,27.984 C37.024,27.488 36.592,27.072 36.096,27.072 C35.856,27.072 35.648,27.168 35.504,27.296 C34.688,27.984 33.888,28.368 32.704,28.368 C30.56,28.368 29.008,26.592 29.008,24.4 L29.008,24.368 C29.008,22.176 30.576,20.416 32.704,20.416 C33.776,20.416 34.608,20.8 35.376,21.424 C35.504,21.52 35.696,21.616 35.968,21.616 C36.512,21.616 36.944,21.2 36.944,20.656 C36.944,20.304 36.768,20.032 36.56,19.872 C35.584,19.12 34.448,18.608 32.72,18.608 C29.328,18.608 26.944,21.216 26.944,24.4 L26.944,24.432 C26.944,27.648 29.376,30.192 32.64,30.192 Z M46.778,22.432 C46.778,21.888 46.33,21.456 45.802,21.456 C45.258,21.456 44.826,21.888 44.826,22.432 L44.826,26.32 C44.826,27.632 44.042,28.4 42.922,28.4 C41.77,28.4 41.114,27.664 41.114,26.352 L41.114,22.432 C41.114,21.888 40.682,21.456 40.138,21.456 C39.61,21.456 39.178,21.888 39.178,22.432 L39.178,26.928 C39.178,28.896 40.282,30.176 42.186,30.176 C43.498,30.176 44.282,29.488 44.826,28.688 L44.826,29.12 C44.826,29.664 45.274,30.08 45.802,30.08 C46.346,30.08 46.778,29.648 46.778,29.12 L46.778,22.432 Z M49.444,29.12 C49.444,29.664 49.876,30.08 50.404,30.08 C50.948,30.08 51.38,29.648 51.38,29.12 L51.38,26.624 C51.38,24.624 52.324,23.568 53.7,23.328 C54.132,23.248 54.468,22.912 54.468,22.4 C54.468,21.84 54.116,21.44 53.508,21.44 C52.66,21.44 51.828,22.24 51.38,23.296 L51.38,22.432 C51.38,21.888 50.948,21.456 50.404,21.456 C49.86,21.456 49.444,21.888 49.444,22.432 L49.444,29.12 Z M56.302,29.12 C56.302,29.664 56.734,30.08 57.262,30.08 C57.806,30.08 58.238,29.648 58.238,29.12 L58.238,26.624 C58.238,24.624 59.182,23.568 60.558,23.328 C60.99,23.248 61.326,22.912 61.326,22.4 C61.326,21.84 60.974,21.44 60.366,21.44 C59.518,21.44 58.686,22.24 58.238,23.296 L58.238,22.432 C58.238,21.888 57.806,21.456 57.262,21.456 C56.718,21.456 56.302,21.888 56.302,22.432 L56.302,29.12 Z M64.328,25.184 C64.504,23.872 65.336,22.96 66.52,22.96 C67.8,22.96 68.536,23.936 68.664,25.184 L64.328,25.184 Z M69.784,29.072 C69.928,28.928 70.04,28.72 70.04,28.48 C70.04,28.032 69.704,27.696 69.272,27.696 C69.048,27.696 68.92,27.76 68.776,27.872 C68.232,28.32 67.592,28.608 66.776,28.608 C65.528,28.608 64.552,27.84 64.344,26.464 L69.64,26.464 C70.136,26.464 70.552,26.08 70.552,25.536 C70.552,23.584 69.224,21.376 66.536,21.376 C64.12,21.376 62.408,23.36 62.408,25.776 L62.408,25.808 C62.408,28.416 64.296,30.192 66.744,30.192 C68.056,30.192 69.016,29.76 69.784,29.072 Z M72.786,29.12 C72.786,29.664 73.218,30.08 73.746,30.08 C74.29,30.08 74.722,29.664 74.722,29.12 L74.722,25.232 C74.722,23.92 75.506,23.136 76.626,23.136 C77.778,23.136 78.434,23.888 78.434,25.2 L78.434,29.12 C78.434,29.664 78.866,30.08 79.41,30.08 C79.954,30.08 80.37,29.664 80.37,29.12 L80.37,24.608 C80.37,22.656 79.266,21.376 77.362,21.376 C76.05,21.376 75.266,22.064 74.722,22.848 L74.722,22.432 C74.722,21.888 74.29,21.456 73.746,21.456 C73.202,21.456 72.786,21.888 72.786,22.432 L72.786,29.12 Z M85.788,30.144 C86.3,30.144 86.7,30.064 87.116,29.92 C87.388,29.808 87.628,29.52 87.628,29.168 C87.628,28.72 87.244,28.368 86.812,28.368 C86.748,28.368 86.556,28.416 86.332,28.416 C85.676,28.416 85.292,28.112 85.292,27.36 L85.292,23.216 L86.812,23.216 C87.276,23.216 87.66,22.848 87.66,22.384 C87.66,21.92 87.276,21.552 86.812,21.552 L85.292,21.552 L85.292,20.112 C85.292,19.584 84.86,19.152 84.332,19.152 C83.788,19.152 83.356,19.584 83.356,20.112 L83.356,21.552 L83.036,21.552 C82.572,21.552 82.204,21.92 82.204,22.384 C82.204,22.848 82.572,23.216 83.036,23.216 L83.356,23.216 L83.356,27.664 C83.356,29.52 84.364,30.144 85.788,30.144 Z M94.832,29.12 C94.832,29.664 95.264,30.08 95.792,30.08 C96.336,30.08 96.768,29.648 96.768,29.12 L96.768,26.624 C96.768,24.624 97.712,23.568 99.088,23.328 C99.52,23.248 99.856,22.912 99.856,22.4 C99.856,21.84 99.504,21.44 98.896,21.44 C98.048,21.44 97.216,22.24 96.768,23.296 L96.768,22.432 C96.768,21.888 96.336,21.456 95.792,21.456 C95.248,21.456 94.832,21.888 94.832,22.432 L94.832,29.12 Z M105.418,30.192 C108.026,30.192 109.946,28.192 109.946,25.792 L109.946,25.76 C109.946,23.344 108.042,21.376 105.45,21.376 C102.858,21.376 100.938,23.376 100.938,25.792 L100.938,25.824 C100.938,28.224 102.842,30.192 105.418,30.192 Z M105.45,28.496 C103.946,28.496 102.874,27.264 102.874,25.792 L102.874,25.76 C102.874,24.288 103.866,23.072 105.418,23.072 C106.938,23.072 108.01,24.304 108.01,25.792 L108.01,25.824 C108.01,27.28 107.018,28.496 105.45,28.496 Z M116.18,30.192 C118.788,30.192 120.708,28.192 120.708,25.792 L120.708,25.76 C120.708,23.344 118.804,21.376 116.212,21.376 C113.62,21.376 111.7,23.376 111.7,25.792 L111.7,25.824 C111.7,28.224 113.604,30.192 116.18,30.192 Z M116.212,28.496 C114.708,28.496 113.636,27.264 113.636,25.792 L113.636,25.76 C113.636,24.288 114.628,23.072 116.18,23.072 C117.7,23.072 118.772,24.304 118.772,25.792 L118.772,25.824 C118.772,27.28 117.78,28.496 116.212,28.496 Z M122.926,29.12 C122.926,29.664 123.358,30.08 123.886,30.08 C124.43,30.08 124.862,29.664 124.862,29.12 L124.862,25.232 C124.862,23.936 125.598,23.136 126.67,23.136 C127.742,23.136 128.382,23.872 128.382,25.184 L128.382,29.12 C128.382,29.664 128.814,30.08 129.358,30.08 C129.886,30.08 130.318,29.664 130.318,29.12 L130.318,25.232 C130.318,23.872 131.07,23.136 132.126,23.136 C133.214,23.136 133.838,23.856 133.838,25.2 L133.838,29.12 C133.838,29.664 134.27,30.08 134.814,30.08 C135.358,30.08 135.774,29.664 135.774,29.12 L135.774,24.608 C135.774,22.544 134.654,21.376 132.814,21.376 C131.534,21.376 130.638,21.968 129.966,22.864 C129.518,21.968 128.654,21.376 127.438,21.376 C126.142,21.376 125.406,22.08 124.862,22.832 L124.862,22.432 C124.862,21.888 124.43,21.456 123.886,21.456 C123.342,21.456 122.926,21.888 122.926,22.432 L122.926,29.12 Z M146.258,30.144 C146.77,30.144 147.17,30.064 147.586,29.92 C147.858,29.808 148.098,29.52 148.098,29.168 C148.098,28.72 147.714,28.368 147.282,28.368 C147.218,28.368 147.026,28.416 146.802,28.416 C146.146,28.416 145.762,28.112 145.762,27.36 L145.762,23.216 L147.282,23.216 C147.746,23.216 148.13,22.848 148.13,22.384 C148.13,21.92 147.746,21.552 147.282,21.552 L145.762,21.552 L145.762,20.112 C145.762,19.584 145.33,19.152 144.802,19.152 C144.258,19.152 143.826,19.584 143.826,20.112 L143.826,21.552 L143.506,21.552 C143.042,21.552 142.674,21.92 142.674,22.384 C142.674,22.848 143.042,23.216 143.506,23.216 L143.826,23.216 L143.826,27.664 C143.826,29.52 144.834,30.144 146.258,30.144 Z M151.468,25.184 C151.644,23.872 152.476,22.96 153.66,22.96 C154.94,22.96 155.676,23.936 155.804,25.184 L151.468,25.184 Z M156.924,29.072 C157.068,28.928 157.18,28.72 157.18,28.48 C157.18,28.032 156.844,27.696 156.412,27.696 C156.188,27.696 156.06,27.76 155.916,27.872 C155.372,28.32 154.732,28.608 153.916,28.608 C152.668,28.608 151.692,27.84 151.484,26.464 L156.78,26.464 C157.276,26.464 157.692,26.08 157.692,25.536 C157.692,23.584 156.364,21.376 153.676,21.376 C151.26,21.376 149.548,23.36 149.548,25.776 L149.548,25.808 C149.548,28.416 151.436,30.192 153.884,30.192 C155.196,30.192 156.156,29.76 156.924,29.072 Z M159.926,29.12 C159.926,29.664 160.358,30.08 160.886,30.08 C161.43,30.08 161.862,29.664 161.862,29.12 L161.862,25.232 C161.862,23.936 162.598,23.136 163.67,23.136 C164.742,23.136 165.382,23.872 165.382,25.184 L165.382,29.12 C165.382,29.664 165.814,30.08 166.358,30.08 C166.886,30.08 167.318,29.664 167.318,29.12 L167.318,25.232 C167.318,23.872 168.07,23.136 169.126,23.136 C170.214,23.136 170.838,23.856 170.838,25.2 L170.838,29.12 C170.838,29.664 171.27,30.08 171.814,30.08 C172.358,30.08 172.774,29.664 172.774,29.12 L172.774,24.608 C172.774,22.544 171.654,21.376 169.814,21.376 C168.534,21.376 167.638,21.968 166.966,22.864 C166.518,21.968 165.654,21.376 164.438,21.376 C163.142,21.376 162.406,22.08 161.862,22.832 L161.862,22.432 C161.862,21.888 161.43,21.456 160.886,21.456 C160.342,21.456 159.926,21.888 159.926,22.432 L159.926,29.12 Z M175.376,31.68 C175.376,32.224 175.808,32.64 176.336,32.64 C176.88,32.64 177.312,32.224 177.312,31.68 L177.312,28.688 C177.904,29.472 178.784,30.176 180.192,30.176 C182.192,30.176 184.112,28.592 184.112,25.792 L184.112,25.76 C184.112,22.944 182.176,21.376 180.192,21.376 C178.816,21.376 177.936,22.08 177.312,22.96 L177.312,22.432 C177.312,21.888 176.88,21.456 176.336,21.456 C175.792,21.456 175.376,21.888 175.376,22.432 L175.376,31.68 Z M179.728,28.496 C178.416,28.496 177.264,27.408 177.264,25.792 L177.264,25.76 C177.264,24.144 178.416,23.056 179.728,23.056 C181.04,23.056 182.144,24.128 182.144,25.76 L182.144,25.792 C182.144,27.456 181.056,28.496 179.728,28.496 Z M187.818,25.184 C187.994,23.872 188.826,22.96 190.01,22.96 C191.29,22.96 192.026,23.936 192.154,25.184 L187.818,25.184 Z M193.274,29.072 C193.418,28.928 193.53,28.72 193.53,28.48 C193.53,28.032 193.194,27.696 192.762,27.696 C192.538,27.696 192.41,27.76 192.266,27.872 C191.722,28.32 191.082,28.608 190.266,28.608 C189.018,28.608 188.042,27.84 187.834,26.464 L193.13,26.464 C193.626,26.464 194.042,26.08 194.042,25.536 C194.042,23.584 192.714,21.376 190.026,21.376 C187.61,21.376 185.898,23.36 185.898,25.776 L185.898,25.808 C185.898,28.416 187.786,30.192 190.234,30.192 C191.546,30.192 192.506,29.76 193.274,29.072 Z M196.276,29.12 C196.276,29.664 196.708,30.08 197.236,30.08 C197.78,30.08 198.212,29.648 198.212,29.12 L198.212,26.624 C198.212,24.624 199.156,23.568 200.532,23.328 C200.964,23.248 201.3,22.912 201.3,22.4 C201.3,21.84 200.948,21.44 200.34,21.44 C199.492,21.44 198.66,22.24 198.212,23.296 L198.212,22.432 C198.212,21.888 197.78,21.456 197.236,21.456 C196.692,21.456 196.276,21.888 196.276,22.432 L196.276,29.12 Z M205.166,30.176 C206.462,30.176 207.342,29.632 207.918,28.944 L207.918,29.264 C207.918,29.696 208.302,30.08 208.862,30.08 C209.39,30.08 209.806,29.68 209.806,29.152 L209.806,24.992 C209.806,23.888 209.518,22.992 208.894,22.384 C208.302,21.776 207.358,21.44 206.094,21.44 C204.99,21.44 204.174,21.632 203.374,21.936 C203.086,22.048 202.846,22.352 202.846,22.704 C202.846,23.152 203.214,23.504 203.662,23.504 C203.758,23.504 203.854,23.488 203.966,23.456 C204.494,23.248 205.102,23.12 205.838,23.12 C207.198,23.12 207.934,23.76 207.934,24.96 L207.934,25.168 C207.278,24.96 206.606,24.816 205.662,24.816 C203.598,24.816 202.174,25.712 202.174,27.536 L202.174,27.568 C202.174,29.264 203.582,30.176 205.166,30.176 Z M205.71,28.768 C204.782,28.768 204.062,28.304 204.062,27.488 L204.062,27.456 C204.062,26.576 204.798,26.048 206.046,26.048 C206.814,26.048 207.47,26.192 207.966,26.384 L207.966,26.96 C207.966,28.032 206.99,28.768 205.71,28.768 Z M215.128,30.144 C215.64,30.144 216.04,30.064 216.456,29.92 C216.728,29.808 216.968,29.52 216.968,29.168 C216.968,28.72 216.584,28.368 216.152,28.368 C216.088,28.368 215.896,28.416 215.672,28.416 C215.016,28.416 214.632,28.112 214.632,27.36 L214.632,23.216 L216.152,23.216 C216.616,23.216 217,22.848 217,22.384 C217,21.92 216.616,21.552 216.152,21.552 L214.632,21.552 L214.632,20.112 C214.632,19.584 214.2,19.152 213.672,19.152 C213.128,19.152 212.696,19.584 212.696,20.112 L212.696,21.552 L212.376,21.552 C211.912,21.552 211.544,21.92 211.544,22.384 C211.544,22.848 211.912,23.216 212.376,23.216 L212.696,23.216 L212.696,27.664 C212.696,29.52 213.704,30.144 215.128,30.144 Z M226.626,22.432 C226.626,21.888 226.178,21.456 225.65,21.456 C225.106,21.456 224.674,21.888 224.674,22.432 L224.674,26.32 C224.674,27.632 223.89,28.4 222.77,28.4 C221.618,28.4 220.962,27.664 220.962,26.352 L220.962,22.432 C220.962,21.888 220.53,21.456 219.986,21.456 C219.458,21.456 219.026,21.888 219.026,22.432 L219.026,26.928 C219.026,28.896 220.13,30.176 222.034,30.176 C223.346,30.176 224.13,29.488 224.674,28.688 L224.674,29.12 C224.674,29.664 225.122,30.08 225.65,30.08 C226.194,30.08 226.626,29.648 226.626,29.12 L226.626,22.432 Z M229.292,29.12 C229.292,29.664 229.724,30.08 230.252,30.08 C230.796,30.08 231.228,29.648 231.228,29.12 L231.228,26.624 C231.228,24.624 232.172,23.568 233.548,23.328 C233.98,23.248 234.316,22.912 234.316,22.4 C234.316,21.84 233.964,21.44 233.356,21.44 C232.508,21.44 231.676,22.24 231.228,23.296 L231.228,22.432 C231.228,21.888 230.796,21.456 230.252,21.456 C229.708,21.456 229.292,21.888 229.292,22.432 L229.292,29.12 Z M237.318,25.184 C237.494,23.872 238.326,22.96 239.51,22.96 C240.79,22.96 241.526,23.936 241.654,25.184 L237.318,25.184 Z M242.774,29.072 C242.918,28.928 243.03,28.72 243.03,28.48 C243.03,28.032 242.694,27.696 242.262,27.696 C242.038,27.696 241.91,27.76 241.766,27.872 C241.222,28.32 240.582,28.608 239.766,28.608 C238.518,28.608 237.542,27.84 237.334,26.464 L242.63,26.464 C243.126,26.464 243.542,26.08 243.542,25.536 C243.542,23.584 242.214,21.376 239.526,21.376 C237.11,21.376 235.398,23.36 235.398,25.776 L235.398,25.808 C235.398,28.416 237.286,30.192 239.734,30.192 C241.046,30.192 242.006,29.76 242.774,29.072 Z M251.802,29.2 C251.802,29.76 252.282,30.08 252.81,30.08 C253.21,30.08 253.514,29.872 253.754,29.424 L258.394,20.624 C258.554,20.32 258.666,19.968 258.666,19.68 C258.666,19.12 258.314,18.8 257.77,18.8 L251.482,18.8 C251.002,18.8 250.618,19.184 250.618,19.664 C250.618,20.144 251.002,20.528 251.482,20.528 L256.33,20.528 L251.978,28.592 C251.882,28.768 251.802,29.04 251.802,29.2 Z M264.484,30.16 C266.932,30.16 268.756,28.912 268.756,26.912 L268.756,26.88 C268.756,25.552 267.972,24.752 266.74,24.192 C267.684,23.696 268.372,22.944 268.372,21.696 L268.372,21.664 C268.372,19.936 266.724,18.64 264.484,18.64 C262.244,18.64 260.596,19.952 260.596,21.664 L260.596,21.696 C260.596,22.944 261.284,23.696 262.228,24.192 C260.964,24.72 260.212,25.568 260.212,26.912 L260.212,26.944 C260.212,28.88 262.036,30.16 264.484,30.16 Z M264.484,23.536 C263.332,23.536 262.484,22.848 262.484,21.872 L262.484,21.84 C262.484,20.992 263.284,20.288 264.484,20.288 C265.684,20.288 266.484,20.992 266.484,21.856 L266.484,21.888 C266.484,22.848 265.636,23.536 264.484,23.536 Z M264.484,28.512 C263.012,28.512 262.148,27.744 262.148,26.832 L262.148,26.8 C262.148,25.776 263.156,25.104 264.484,25.104 C265.812,25.104 266.836,25.776 266.836,26.8 L266.836,26.832 C266.836,27.76 265.956,28.512 264.484,28.512 Z M276.264,29.104 C276.264,29.648 276.696,30.08 277.256,30.08 C277.8,30.08 278.232,29.648 278.232,29.104 L278.232,25.44 L283.064,25.44 C283.56,25.44 283.96,25.04 283.96,24.544 C283.96,24.048 283.56,23.648 283.064,23.648 L278.232,23.648 L278.232,20.592 L283.784,20.592 C284.28,20.592 284.68,20.192 284.68,19.696 C284.68,19.2 284.28,18.8 283.784,18.8 L277.256,18.8 C276.696,18.8 276.264,19.232 276.264,19.792 L276.264,29.104 Z" id="Current-room-tempera" fill="#FFFFFF"></path>
                </g>
                <g id="user_2">
                    <use fill="black" fill-opacity="1" filter="url(#filter-5)" xlink:href="#path-4"></use>
                    <use fill="url(#linearGradient-3)" fill-rule="evenodd" xlink:href="#path-4"></use>
                    <use fill="black" fill-opacity="1" filter="url(#filter-6)" xlink:href="#path-4"></use>
                </g>
                <g id="message_2" transform="translate(190.000000, 175.000000)">
                    <path d="M-5.68434189e-14,0 L275.002773,0 C284.942367,0 293,8.06752443 293,17.9996699 L293,50.0003301 C293,59.9412733 284.934517,68 275.002773,68 L17.9972273,68 C8.05763315,68 -5.68434189e-14,59.9324756 -5.68434189e-14,50.0003301 L-5.68434189e-14,0 Z" id="box_1" fill="#7FB3CF" transform="translate(146.500000, 34.000000) scale(-1, 1) translate(-146.500000, -34.000000) "></path>
                    <path d="M140.952,31.26 C140.952,31.848 141.428,32.324 142.016,32.324 C142.604,32.324 143.08,31.848 143.08,31.26 L143.08,29.02 C143.584,29.622 144.284,30.14 145.418,30.14 C147.196,30.14 148.834,28.768 148.834,26.262 L148.834,26.234 C148.834,23.728 147.168,22.356 145.418,22.356 C144.312,22.356 143.598,22.874 143.08,23.574 L143.08,23.476 C143.08,22.888 142.604,22.412 142.016,22.412 C141.428,22.412 140.952,22.888 140.952,23.476 L140.952,31.26 Z M144.872,28.334 C143.878,28.334 143.052,27.508 143.052,26.262 L143.052,26.234 C143.052,24.988 143.878,24.162 144.872,24.162 C145.866,24.162 146.706,24.988 146.706,26.234 L146.706,26.262 C146.706,27.522 145.866,28.334 144.872,28.334 Z" id="p" fill="#FFFFFF"></path>
                    <path d="M32.36,31.16 C34.712,31.16 36.36,29.912 36.36,27.816 L36.36,27.784 C36.36,25.928 35.144,25.08 32.776,24.504 C30.616,23.992 30.104,23.608 30.104,22.744 L30.104,22.712 C30.104,21.976 30.776,21.384 31.928,21.384 C32.808,21.384 33.64,21.672 34.504,22.232 C34.664,22.328 34.824,22.376 35.016,22.376 C35.528,22.376 35.944,21.976 35.944,21.464 C35.944,21.08 35.736,20.808 35.512,20.68 C34.504,20.008 33.368,19.64 31.96,19.64 C29.736,19.64 28.136,20.968 28.136,22.888 L28.136,22.92 C28.136,24.984 29.48,25.688 31.864,26.264 C33.944,26.744 34.392,27.176 34.392,27.976 L34.392,28.008 C34.392,28.84 33.624,29.416 32.408,29.416 C31.192,29.416 30.2,29 29.272,28.264 C29.144,28.168 28.968,28.088 28.696,28.088 C28.184,28.088 27.768,28.488 27.768,29 C27.768,29.32 27.928,29.592 28.152,29.752 C29.4,30.68 30.84,31.16 32.36,31.16 Z M40.162,26.184 C40.338,24.872 41.17,23.96 42.354,23.96 C43.634,23.96 44.37,24.936 44.498,26.184 L40.162,26.184 Z M45.618,30.072 C45.762,29.928 45.874,29.72 45.874,29.48 C45.874,29.032 45.538,28.696 45.106,28.696 C44.882,28.696 44.754,28.76 44.61,28.872 C44.066,29.32 43.426,29.608 42.61,29.608 C41.362,29.608 40.386,28.84 40.178,27.464 L45.474,27.464 C45.97,27.464 46.386,27.08 46.386,26.536 C46.386,24.584 45.058,22.376 42.37,22.376 C39.954,22.376 38.242,24.36 38.242,26.776 L38.242,26.808 C38.242,29.416 40.13,31.192 42.578,31.192 C43.89,31.192 44.85,30.76 45.618,30.072 Z M51.452,31.144 C51.964,31.144 52.364,31.064 52.78,30.92 C53.052,30.808 53.292,30.52 53.292,30.168 C53.292,29.72 52.908,29.368 52.476,29.368 C52.412,29.368 52.22,29.416 51.996,29.416 C51.34,29.416 50.956,29.112 50.956,28.36 L50.956,24.216 L52.476,24.216 C52.94,24.216 53.324,23.848 53.324,23.384 C53.324,22.92 52.94,22.552 52.476,22.552 L50.956,22.552 L50.956,21.112 C50.956,20.584 50.524,20.152 49.996,20.152 C49.452,20.152 49.02,20.584 49.02,21.112 L49.02,22.552 L48.7,22.552 C48.236,22.552 47.868,22.92 47.868,23.384 C47.868,23.848 48.236,24.216 48.7,24.216 L49.02,24.216 L49.02,28.664 C49.02,30.52 50.028,31.144 51.452,31.144 Z M60.496,30.12 C60.496,30.664 60.928,31.08 61.456,31.08 C62,31.08 62.432,30.648 62.432,30.12 L62.432,27.624 C62.432,25.624 63.376,24.568 64.752,24.328 C65.184,24.248 65.52,23.912 65.52,23.4 C65.52,22.84 65.168,22.44 64.56,22.44 C63.712,22.44 62.88,23.24 62.432,24.296 L62.432,23.432 C62.432,22.888 62,22.456 61.456,22.456 C60.912,22.456 60.496,22.888 60.496,23.432 L60.496,30.12 Z M71.082,31.192 C73.69,31.192 75.61,29.192 75.61,26.792 L75.61,26.76 C75.61,24.344 73.706,22.376 71.114,22.376 C68.522,22.376 66.602,24.376 66.602,26.792 L66.602,26.824 C66.602,29.224 68.506,31.192 71.082,31.192 Z M71.114,29.496 C69.61,29.496 68.538,28.264 68.538,26.792 L68.538,26.76 C68.538,25.288 69.53,24.072 71.082,24.072 C72.602,24.072 73.674,25.304 73.674,26.792 L73.674,26.824 C73.674,28.28 72.682,29.496 71.114,29.496 Z M81.844,31.192 C84.452,31.192 86.372,29.192 86.372,26.792 L86.372,26.76 C86.372,24.344 84.468,22.376 81.876,22.376 C79.284,22.376 77.364,24.376 77.364,26.792 L77.364,26.824 C77.364,29.224 79.268,31.192 81.844,31.192 Z M81.876,29.496 C80.372,29.496 79.3,28.264 79.3,26.792 L79.3,26.76 C79.3,25.288 80.292,24.072 81.844,24.072 C83.364,24.072 84.436,25.304 84.436,26.792 L84.436,26.824 C84.436,28.28 83.444,29.496 81.876,29.496 Z M88.59,30.12 C88.59,30.664 89.022,31.08 89.55,31.08 C90.094,31.08 90.526,30.664 90.526,30.12 L90.526,26.232 C90.526,24.936 91.262,24.136 92.334,24.136 C93.406,24.136 94.046,24.872 94.046,26.184 L94.046,30.12 C94.046,30.664 94.478,31.08 95.022,31.08 C95.55,31.08 95.982,30.664 95.982,30.12 L95.982,26.232 C95.982,24.872 96.734,24.136 97.79,24.136 C98.878,24.136 99.502,24.856 99.502,26.2 L99.502,30.12 C99.502,30.664 99.934,31.08 100.478,31.08 C101.022,31.08 101.438,30.664 101.438,30.12 L101.438,25.608 C101.438,23.544 100.318,22.376 98.478,22.376 C97.198,22.376 96.302,22.968 95.63,23.864 C95.182,22.968 94.318,22.376 93.102,22.376 C91.806,22.376 91.07,23.08 90.526,23.832 L90.526,23.432 C90.526,22.888 90.094,22.456 89.55,22.456 C89.006,22.456 88.59,22.888 88.59,23.432 L88.59,30.12 Z M111.922,31.144 C112.434,31.144 112.834,31.064 113.25,30.92 C113.522,30.808 113.762,30.52 113.762,30.168 C113.762,29.72 113.378,29.368 112.946,29.368 C112.882,29.368 112.69,29.416 112.466,29.416 C111.81,29.416 111.426,29.112 111.426,28.36 L111.426,24.216 L112.946,24.216 C113.41,24.216 113.794,23.848 113.794,23.384 C113.794,22.92 113.41,22.552 112.946,22.552 L111.426,22.552 L111.426,21.112 C111.426,20.584 110.994,20.152 110.466,20.152 C109.922,20.152 109.49,20.584 109.49,21.112 L109.49,22.552 L109.17,22.552 C108.706,22.552 108.338,22.92 108.338,23.384 C108.338,23.848 108.706,24.216 109.17,24.216 L109.49,24.216 L109.49,28.664 C109.49,30.52 110.498,31.144 111.922,31.144 Z M117.132,26.184 C117.308,24.872 118.14,23.96 119.324,23.96 C120.604,23.96 121.34,24.936 121.468,26.184 L117.132,26.184 Z M122.588,30.072 C122.732,29.928 122.844,29.72 122.844,29.48 C122.844,29.032 122.508,28.696 122.076,28.696 C121.852,28.696 121.724,28.76 121.58,28.872 C121.036,29.32 120.396,29.608 119.58,29.608 C118.332,29.608 117.356,28.84 117.148,27.464 L122.444,27.464 C122.94,27.464 123.356,27.08 123.356,26.536 C123.356,24.584 122.028,22.376 119.34,22.376 C116.924,22.376 115.212,24.36 115.212,26.776 L115.212,26.808 C115.212,29.416 117.1,31.192 119.548,31.192 C120.86,31.192 121.82,30.76 122.588,30.072 Z M125.59,30.12 C125.59,30.664 126.022,31.08 126.55,31.08 C127.094,31.08 127.526,30.664 127.526,30.12 L127.526,26.232 C127.526,24.936 128.262,24.136 129.334,24.136 C130.406,24.136 131.046,24.872 131.046,26.184 L131.046,30.12 C131.046,30.664 131.478,31.08 132.022,31.08 C132.55,31.08 132.982,30.664 132.982,30.12 L132.982,26.232 C132.982,24.872 133.734,24.136 134.79,24.136 C135.878,24.136 136.502,24.856 136.502,26.2 L136.502,30.12 C136.502,30.664 136.934,31.08 137.478,31.08 C138.022,31.08 138.438,30.664 138.438,30.12 L138.438,25.608 C138.438,23.544 137.318,22.376 135.478,22.376 C134.198,22.376 133.302,22.968 132.63,23.864 C132.182,22.968 131.318,22.376 130.102,22.376 C128.806,22.376 128.07,23.08 127.526,23.832 L127.526,23.432 C127.526,22.888 127.094,22.456 126.55,22.456 C126.006,22.456 125.59,22.888 125.59,23.432 L125.59,30.12 Z M152.496,26.184 C152.672,24.872 153.504,23.96 154.688,23.96 C155.968,23.96 156.704,24.936 156.832,26.184 L152.496,26.184 Z M157.952,30.072 C158.096,29.928 158.208,29.72 158.208,29.48 C158.208,29.032 157.872,28.696 157.44,28.696 C157.216,28.696 157.088,28.76 156.944,28.872 C156.4,29.32 155.76,29.608 154.944,29.608 C153.696,29.608 152.72,28.84 152.512,27.464 L157.808,27.464 C158.304,27.464 158.72,27.08 158.72,26.536 C158.72,24.584 157.392,22.376 154.704,22.376 C152.288,22.376 150.576,24.36 150.576,26.776 L150.576,26.808 C150.576,29.416 152.464,31.192 154.912,31.192 C156.224,31.192 157.184,30.76 157.952,30.072 Z M160.954,30.12 C160.954,30.664 161.386,31.08 161.914,31.08 C162.458,31.08 162.89,30.648 162.89,30.12 L162.89,27.624 C162.89,25.624 163.834,24.568 165.21,24.328 C165.642,24.248 165.978,23.912 165.978,23.4 C165.978,22.84 165.626,22.44 165.018,22.44 C164.17,22.44 163.338,23.24 162.89,24.296 L162.89,23.432 C162.89,22.888 162.458,22.456 161.914,22.456 C161.37,22.456 160.954,22.888 160.954,23.432 L160.954,30.12 Z M169.844,31.176 C171.14,31.176 172.02,30.632 172.596,29.944 L172.596,30.264 C172.596,30.696 172.98,31.08 173.54,31.08 C174.068,31.08 174.484,30.68 174.484,30.152 L174.484,25.992 C174.484,24.888 174.196,23.992 173.572,23.384 C172.98,22.776 172.036,22.44 170.772,22.44 C169.668,22.44 168.852,22.632 168.052,22.936 C167.764,23.048 167.524,23.352 167.524,23.704 C167.524,24.152 167.892,24.504 168.34,24.504 C168.436,24.504 168.532,24.488 168.644,24.456 C169.172,24.248 169.78,24.12 170.516,24.12 C171.876,24.12 172.612,24.76 172.612,25.96 L172.612,26.168 C171.956,25.96 171.284,25.816 170.34,25.816 C168.276,25.816 166.852,26.712 166.852,28.536 L166.852,28.568 C166.852,30.264 168.26,31.176 169.844,31.176 Z M170.388,29.768 C169.46,29.768 168.74,29.304 168.74,28.488 L168.74,28.456 C168.74,27.576 169.476,27.048 170.724,27.048 C171.492,27.048 172.148,27.192 172.644,27.384 L172.644,27.96 C172.644,29.032 171.668,29.768 170.388,29.768 Z M179.806,31.144 C180.318,31.144 180.718,31.064 181.134,30.92 C181.406,30.808 181.646,30.52 181.646,30.168 C181.646,29.72 181.262,29.368 180.83,29.368 C180.766,29.368 180.574,29.416 180.35,29.416 C179.694,29.416 179.31,29.112 179.31,28.36 L179.31,24.216 L180.83,24.216 C181.294,24.216 181.678,23.848 181.678,23.384 C181.678,22.92 181.294,22.552 180.83,22.552 L179.31,22.552 L179.31,21.112 C179.31,20.584 178.878,20.152 178.35,20.152 C177.806,20.152 177.374,20.584 177.374,21.112 L177.374,22.552 L177.054,22.552 C176.59,22.552 176.222,22.92 176.222,23.384 C176.222,23.848 176.59,24.216 177.054,24.216 L177.374,24.216 L177.374,28.664 C177.374,30.52 178.382,31.144 179.806,31.144 Z M191.304,23.432 C191.304,22.888 190.856,22.456 190.328,22.456 C189.784,22.456 189.352,22.888 189.352,23.432 L189.352,27.32 C189.352,28.632 188.568,29.4 187.448,29.4 C186.296,29.4 185.64,28.664 185.64,27.352 L185.64,23.432 C185.64,22.888 185.208,22.456 184.664,22.456 C184.136,22.456 183.704,22.888 183.704,23.432 L183.704,27.928 C183.704,29.896 184.808,31.176 186.712,31.176 C188.024,31.176 188.808,30.488 189.352,29.688 L189.352,30.12 C189.352,30.664 189.8,31.08 190.328,31.08 C190.872,31.08 191.304,30.648 191.304,30.12 L191.304,23.432 Z M193.97,30.12 C193.97,30.664 194.402,31.08 194.93,31.08 C195.474,31.08 195.906,30.648 195.906,30.12 L195.906,27.624 C195.906,25.624 196.85,24.568 198.226,24.328 C198.658,24.248 198.994,23.912 198.994,23.4 C198.994,22.84 198.642,22.44 198.034,22.44 C197.186,22.44 196.354,23.24 195.906,24.296 L195.906,23.432 C195.906,22.888 195.474,22.456 194.93,22.456 C194.386,22.456 193.97,22.888 193.97,23.432 L193.97,30.12 Z M201.996,26.184 C202.172,24.872 203.004,23.96 204.188,23.96 C205.468,23.96 206.204,24.936 206.332,26.184 L201.996,26.184 Z M207.452,30.072 C207.596,29.928 207.708,29.72 207.708,29.48 C207.708,29.032 207.372,28.696 206.94,28.696 C206.716,28.696 206.588,28.76 206.444,28.872 C205.9,29.32 205.26,29.608 204.444,29.608 C203.196,29.608 202.22,28.84 202.012,27.464 L207.308,27.464 C207.804,27.464 208.22,27.08 208.22,26.536 C208.22,24.584 206.892,22.376 204.204,22.376 C201.788,22.376 200.076,24.36 200.076,26.776 L200.076,26.808 C200.076,29.416 201.964,31.192 204.412,31.192 C205.724,31.192 206.684,30.76 207.452,30.072 Z M218.336,31.144 C218.848,31.144 219.248,31.064 219.664,30.92 C219.936,30.808 220.176,30.52 220.176,30.168 C220.176,29.72 219.792,29.368 219.36,29.368 C219.296,29.368 219.104,29.416 218.88,29.416 C218.224,29.416 217.84,29.112 217.84,28.36 L217.84,24.216 L219.36,24.216 C219.824,24.216 220.208,23.848 220.208,23.384 C220.208,22.92 219.824,22.552 219.36,22.552 L217.84,22.552 L217.84,21.112 C217.84,20.584 217.408,20.152 216.88,20.152 C216.336,20.152 215.904,20.584 215.904,21.112 L215.904,22.552 L215.584,22.552 C215.12,22.552 214.752,22.92 214.752,23.384 C214.752,23.848 215.12,24.216 215.584,24.216 L215.904,24.216 L215.904,28.664 C215.904,30.52 216.912,31.144 218.336,31.144 Z M226.106,31.192 C228.714,31.192 230.634,29.192 230.634,26.792 L230.634,26.76 C230.634,24.344 228.73,22.376 226.138,22.376 C223.546,22.376 221.626,24.376 221.626,26.792 L221.626,26.824 C221.626,29.224 223.53,31.192 226.106,31.192 Z M226.138,29.496 C224.634,29.496 223.562,28.264 223.562,26.792 L223.562,26.76 C223.562,25.288 224.554,24.072 226.106,24.072 C227.626,24.072 228.698,25.304 228.698,26.792 L228.698,26.824 C228.698,28.28 227.706,29.496 226.138,29.496 Z M238.878,30.2 C238.878,30.76 239.358,31.08 239.886,31.08 C240.286,31.08 240.59,30.872 240.83,30.424 L245.47,21.624 C245.63,21.32 245.742,20.968 245.742,20.68 C245.742,20.12 245.39,19.8 244.846,19.8 L238.558,19.8 C238.078,19.8 237.694,20.184 237.694,20.664 C237.694,21.144 238.078,21.528 238.558,21.528 L243.406,21.528 L239.054,29.592 C238.958,29.768 238.878,30.04 238.878,30.2 Z M247.128,30.072 C247.128,30.648 247.576,31 248.184,31 L254.536,31 C255.016,31 255.4,30.616 255.4,30.136 C255.4,29.656 255.016,29.272 254.536,29.272 L249.992,29.272 L252.296,27.352 C254.28,25.736 255.208,24.776 255.208,23.016 L255.208,22.984 C255.208,20.984 253.704,19.64 251.512,19.64 C249.752,19.64 248.712,20.312 247.8,21.448 C247.656,21.624 247.576,21.848 247.576,22.056 C247.576,22.552 247.976,22.952 248.472,22.952 C248.792,22.952 249.016,22.808 249.16,22.648 C249.848,21.816 250.472,21.4 251.368,21.4 C252.392,21.4 253.176,22.04 253.176,23.144 C253.176,24.152 252.616,24.872 251.08,26.168 L247.64,29.096 C247.304,29.368 247.128,29.688 247.128,30.072 Z M262.988,30.104 C262.988,30.648 263.42,31.08 263.98,31.08 C264.524,31.08 264.956,30.648 264.956,30.104 L264.956,26.44 L269.788,26.44 C270.284,26.44 270.684,26.04 270.684,25.544 C270.684,25.048 270.284,24.648 269.788,24.648 L264.956,24.648 L264.956,21.592 L270.508,21.592 C271.004,21.592 271.404,21.192 271.404,20.696 C271.404,20.2 271.004,19.8 270.508,19.8 L263.98,19.8 C263.42,19.8 262.988,20.232 262.988,20.792 L262.988,30.104 Z M271.174,32.872 C271.174,33.112 271.334,33.32 271.67,33.32 C272.118,33.32 272.742,33.048 273.174,32.632 C273.67,32.12 273.958,31.384 273.958,30.296 L273.958,30.12 C273.958,29.256 273.526,28.712 272.806,28.712 C272.15,28.712 271.718,29.176 271.718,29.784 L271.718,29.912 C271.718,30.488 272.166,30.872 272.63,31 C272.662,31.704 272.278,32.2 271.542,32.44 C271.334,32.488 271.174,32.648 271.174,32.872 Z M28.216,52.68 C28.216,53.224 28.648,53.64 29.176,53.64 C29.72,53.64 30.152,53.224 30.152,52.68 L30.152,49.688 C30.744,50.472 31.624,51.176 33.032,51.176 C35.032,51.176 36.952,49.592 36.952,46.792 L36.952,46.76 C36.952,43.944 35.016,42.376 33.032,42.376 C31.656,42.376 30.776,43.08 30.152,43.96 L30.152,43.432 C30.152,42.888 29.72,42.456 29.176,42.456 C28.632,42.456 28.216,42.888 28.216,43.432 L28.216,52.68 Z M32.568,49.496 C31.256,49.496 30.104,48.408 30.104,46.792 L30.104,46.76 C30.104,45.144 31.256,44.056 32.568,44.056 C33.88,44.056 34.984,45.128 34.984,46.76 L34.984,46.792 C34.984,48.456 33.896,49.496 32.568,49.496 Z M39.314,50.12 C39.314,50.664 39.746,51.08 40.274,51.08 C40.818,51.08 41.25,50.664 41.25,50.12 L41.25,40.2 C41.25,39.672 40.818,39.24 40.274,39.24 C39.73,39.24 39.314,39.672 39.314,40.2 L39.314,50.12 Z M45.484,46.184 C45.66,44.872 46.492,43.96 47.676,43.96 C48.956,43.96 49.692,44.936 49.82,46.184 L45.484,46.184 Z M50.94,50.072 C51.084,49.928 51.196,49.72 51.196,49.48 C51.196,49.032 50.86,48.696 50.428,48.696 C50.204,48.696 50.076,48.76 49.932,48.872 C49.388,49.32 48.748,49.608 47.932,49.608 C46.684,49.608 45.708,48.84 45.5,47.464 L50.796,47.464 C51.292,47.464 51.708,47.08 51.708,46.536 C51.708,44.584 50.38,42.376 47.692,42.376 C45.276,42.376 43.564,44.36 43.564,46.776 L43.564,46.808 C43.564,49.416 45.452,51.192 47.9,51.192 C49.212,51.192 50.172,50.76 50.94,50.072 Z M56.374,51.176 C57.67,51.176 58.55,50.632 59.126,49.944 L59.126,50.264 C59.126,50.696 59.51,51.08 60.07,51.08 C60.598,51.08 61.014,50.68 61.014,50.152 L61.014,45.992 C61.014,44.888 60.726,43.992 60.102,43.384 C59.51,42.776 58.566,42.44 57.302,42.44 C56.198,42.44 55.382,42.632 54.582,42.936 C54.294,43.048 54.054,43.352 54.054,43.704 C54.054,44.152 54.422,44.504 54.87,44.504 C54.966,44.504 55.062,44.488 55.174,44.456 C55.702,44.248 56.31,44.12 57.046,44.12 C58.406,44.12 59.142,44.76 59.142,45.96 L59.142,46.168 C58.486,45.96 57.814,45.816 56.87,45.816 C54.806,45.816 53.382,46.712 53.382,48.536 L53.382,48.568 C53.382,50.264 54.79,51.176 56.374,51.176 Z M56.918,49.768 C55.99,49.768 55.27,49.304 55.27,48.488 L55.27,48.456 C55.27,47.576 56.006,47.048 57.254,47.048 C58.022,47.048 58.678,47.192 59.174,47.384 L59.174,47.96 C59.174,49.032 58.198,49.768 56.918,49.768 Z M66.48,51.16 C68.24,51.16 69.616,50.28 69.616,48.504 L69.616,48.472 C69.616,46.952 68.224,46.392 66.992,46.008 C66,45.688 65.088,45.432 65.088,44.808 L65.088,44.776 C65.088,44.296 65.52,43.944 66.272,43.944 C66.864,43.944 67.568,44.168 68.256,44.52 C68.384,44.584 68.48,44.616 68.64,44.616 C69.088,44.616 69.44,44.28 69.44,43.832 C69.44,43.496 69.248,43.24 68.976,43.096 C68.16,42.664 67.216,42.408 66.32,42.408 C64.64,42.408 63.312,43.384 63.312,44.984 L63.312,45.016 C63.312,46.632 64.704,47.144 65.952,47.496 C66.944,47.8 67.84,48.024 67.84,48.68 L67.84,48.712 C67.84,49.272 67.36,49.624 66.528,49.624 C65.76,49.624 64.912,49.352 64.096,48.808 C63.984,48.744 63.84,48.696 63.68,48.696 C63.232,48.696 62.896,49.048 62.896,49.48 C62.896,49.8 63.056,50.04 63.264,50.152 C64.24,50.824 65.408,51.16 66.48,51.16 Z M73.306,46.184 C73.482,44.872 74.314,43.96 75.498,43.96 C76.778,43.96 77.514,44.936 77.642,46.184 L73.306,46.184 Z M78.762,50.072 C78.906,49.928 79.018,49.72 79.018,49.48 C79.018,49.032 78.682,48.696 78.25,48.696 C78.026,48.696 77.898,48.76 77.754,48.872 C77.21,49.32 76.57,49.608 75.754,49.608 C74.506,49.608 73.53,48.84 73.322,47.464 L78.618,47.464 C79.114,47.464 79.53,47.08 79.53,46.536 C79.53,44.584 78.202,42.376 75.514,42.376 C73.098,42.376 71.386,44.36 71.386,46.776 L71.386,46.808 C71.386,49.416 73.274,51.192 75.722,51.192 C77.034,51.192 77.994,50.76 78.762,50.072 Z M82.388,46.968 C82.42,47.32 82.644,47.544 82.964,47.544 C83.284,47.544 83.524,47.32 83.556,46.968 L84.116,40.44 C84.148,40.056 83.908,39.752 83.54,39.752 L82.388,39.752 C82.02,39.752 81.796,40.056 81.828,40.44 L82.388,46.968 Z M81.828,49.816 L81.828,49.976 C81.828,50.6 82.324,51.08 82.964,51.08 C83.62,51.08 84.1,50.6 84.1,49.976 L84.1,49.816 C84.1,49.192 83.62,48.712 82.964,48.712 C82.324,48.712 81.828,49.192 81.828,49.816 Z" id="Set-room-temerature" fill="#FFFFFF"></path>
                </g>
                <g id="device" transform="translate(35.000000, 287.000000)">
                    <path d="M103,53.8911091 C103,52.7872 102.548919,51.1194735 101.9955,50.1713064 L98.0030963,43.3311669 C97.4483262,42.3806857 96.9987257,40.7232926 96.9988871,39.6189353 L97,32 L100,32 L100,38.6318957 C100,39.7379224 100.441194,41.419891 100.977357,42.3742988 L105.022643,49.57519 C105.562422,50.5360354 106,52.2115674 106,53.3140481 L106,59 L103,59 L103,53.8911091 Z" id="Combined-Shape" fill="#6C7577"></path>
                    <polygon id="Rectangle-11" fill="#5E6668" points="97 32 100 32 100 34 97 35"></polygon>
                    <rect id="Rectangle-3" fill="#9DA8AA" x="95" y="14" width="8" height="18"></rect>
                    <rect id="Rectangle" fill="#CAD2D6" x="0" y="4" width="95" height="55"></rect>
                    <circle id="Oval" fill="#E6EFF3" cx="90.5" cy="47.5" r="2.5"></circle>
                    <circle id="Oval-Copy" fill="#768082" cx="90.5" cy="47.5" r="1.5"></circle>
                    <rect id="Rectangle-14" fill="#768082" x="60" y="40" width="6" height="8" rx="1"></rect>
                    <rect id="Rectangle-13" fill="#E6EFF3" x="38" y="44" width="11" height="6" rx="1"></rect>
                    <rect id="Rectangle-12" fill="#768082" x="2" y="46" width="15" height="4" rx="1"></rect>
                    <rect id="Rectangle-10" fill="#B1B8BC" x="55" y="13" width="32" height="22" rx="2"></rect>
                    <rect id="Rectangle-4" fill="#B2B9BC" x="19" y="37" width="1" height="16" rx="0.5"></rect>
                    <rect id="Rectangle-4-Copy" fill="#B2B9BC" x="35" y="37" width="1" height="16" rx="0.5"></rect>
                    <rect id="Rectangle-4-Copy-2" fill="#B2B9BC" x="68" y="37" width="1" height="16" rx="0.5"></rect>
                    <rect id="Rectangle-4-Copy-3" fill="#B2B9BC" x="83" y="37" width="1" height="16" rx="0.5"></rect>
                    <rect id="Rectangle-7" fill="#B1B8BC" x="0" y="37" width="95" height="1" rx="0.5"></rect>
                    <rect id="Rectangle-7-Copy-2" fill="#B1B8BC" x="0" y="52" width="95" height="1" rx="0.5"></rect>
                    <rect id="Rectangle-10" fill="#B1B8BC" x="8" y="13" width="42" height="22" rx="2"></rect>
                    <rect id="Rectangle-7-Copy" fill="#B1B8BC" x="0" y="10" width="95" height="1" rx="0.5"></rect>
                    <rect id="Rectangle-4" fill="#B2B9BC" x="52" y="10" width="1" height="28" rx="0.5"></rect>
                    <path d="M10,16 C10,15.4477153 10.4530363,15 10.9970301,15 L17.0029699,15 C17.5536144,15 18,15.4438648 18,16 C18,16.5522847 17.5469637,17 17.0029699,17 L10.9970301,17 C10.4463856,17 10,16.5561352 10,16 Z M10,20 C10,19.4477153 10.4530363,19 10.9970301,19 L17.0029699,19 C17.5536144,19 18,19.4438648 18,20 C18,20.5522847 17.5469637,21 17.0029699,21 L10.9970301,21 C10.4463856,21 10,20.5561352 10,20 Z M10,24 C10,23.4477153 10.4530363,23 10.9970301,23 L17.0029699,23 C17.5536144,23 18,23.4438648 18,24 C18,24.5522847 17.5469637,25 17.0029699,25 L10.9970301,25 C10.4463856,25 10,24.5561352 10,24 Z M10,28 C10,27.4477153 10.4530363,27 10.9970301,27 L17.0029699,27 C17.5536144,27 18,27.4438648 18,28 C18,28.5522847 17.5469637,29 17.0029699,29 L10.9970301,29 C10.4463856,29 10,28.5561352 10,28 Z M10,32 C10,31.4477153 10.4530363,31 10.9970301,31 L17.0029699,31 C17.5536144,31 18,31.4438648 18,32 C18,32.5522847 17.5469637,33 17.0029699,33 L10.9970301,33 C10.4463856,33 10,32.5561352 10,32 Z M20,16 C20,15.4477153 20.4530363,15 20.9970301,15 L27.0029699,15 C27.5536144,15 28,15.4438648 28,16 C28,16.5522847 27.5469637,17 27.0029699,17 L20.9970301,17 C20.4463856,17 20,16.5561352 20,16 Z M20,20 C20,19.4477153 20.4530363,19 20.9970301,19 L27.0029699,19 C27.5536144,19 28,19.4438648 28,20 C28,20.5522847 27.5469637,21 27.0029699,21 L20.9970301,21 C20.4463856,21 20,20.5561352 20,20 Z M20,24 C20,23.4477153 20.4530363,23 20.9970301,23 L27.0029699,23 C27.5536144,23 28,23.4438648 28,24 C28,24.5522847 27.5469637,25 27.0029699,25 L20.9970301,25 C20.4463856,25 20,24.5561352 20,24 Z M20,28 C20,27.4477153 20.4530363,27 20.9970301,27 L27.0029699,27 C27.5536144,27 28,27.4438648 28,28 C28,28.5522847 27.5469637,29 27.0029699,29 L20.9970301,29 C20.4463856,29 20,28.5561352 20,28 Z M20,32 C20,31.4477153 20.4530363,31 20.9970301,31 L27.0029699,31 C27.5536144,31 28,31.4438648 28,32 C28,32.5522847 27.5469637,33 27.0029699,33 L20.9970301,33 C20.4463856,33 20,32.5561352 20,32 Z M30,16 C30,15.4477153 30.4530363,15 30.9970301,15 L37.0029699,15 C37.5536144,15 38,15.4438648 38,16 C38,16.5522847 37.5469637,17 37.0029699,17 L30.9970301,17 C30.4463856,17 30,16.5561352 30,16 Z M30,20 C30,19.4477153 30.4530363,19 30.9970301,19 L37.0029699,19 C37.5536144,19 38,19.4438648 38,20 C38,20.5522847 37.5469637,21 37.0029699,21 L30.9970301,21 C30.4463856,21 30,20.5561352 30,20 Z M30,24 C30,23.4477153 30.4530363,23 30.9970301,23 L37.0029699,23 C37.5536144,23 38,23.4438648 38,24 C38,24.5522847 37.5469637,25 37.0029699,25 L30.9970301,25 C30.4463856,25 30,24.5561352 30,24 Z M30,28 C30,27.4477153 30.4530363,27 30.9970301,27 L37.0029699,27 C37.5536144,27 38,27.4438648 38,28 C38,28.5522847 37.5469637,29 37.0029699,29 L30.9970301,29 C30.4463856,29 30,28.5561352 30,28 Z M30,32 C30,31.4477153 30.4530363,31 30.9970301,31 L37.0029699,31 C37.5536144,31 38,31.4438648 38,32 C38,32.5522847 37.5469637,33 37.0029699,33 L30.9970301,33 C30.4463856,33 30,32.5561352 30,32 Z M40,16 C40,15.4477153 40.4530363,15 40.9970301,15 L47.0029699,15 C47.5536144,15 48,15.4438648 48,16 C48,16.5522847 47.5469637,17 47.0029699,17 L40.9970301,17 C40.4463856,17 40,16.5561352 40,16 Z M40,20 C40,19.4477153 40.4530363,19 40.9970301,19 L47.0029699,19 C47.5536144,19 48,19.4438648 48,20 C48,20.5522847 47.5469637,21 47.0029699,21 L40.9970301,21 C40.4463856,21 40,20.5561352 40,20 Z M40,24 C40,23.4477153 40.4530363,23 40.9970301,23 L47.0029699,23 C47.5536144,23 48,23.4438648 48,24 C48,24.5522847 47.5469637,25 47.0029699,25 L40.9970301,25 C40.4463856,25 40,24.5561352 40,24 Z M40,28 C40,27.4477153 40.4530363,27 40.9970301,27 L47.0029699,27 C47.5536144,27 48,27.4438648 48,28 C48,28.5522847 47.5469637,29 47.0029699,29 L40.9970301,29 C40.4463856,29 40,28.5561352 40,28 Z M40,32 C40,31.4477153 40.4530363,31 40.9970301,31 L47.0029699,31 C47.5536144,31 48,31.4438648 48,32 C48,32.5522847 47.5469637,33 47.0029699,33 L40.9970301,33 C40.4463856,33 40,32.5561352 40,32 Z M57,16 C57,15.4477153 57.4530363,15 57.9970301,15 L64.0029699,15 C64.5536144,15 65,15.4438648 65,16 C65,16.5522847 64.5469637,17 64.0029699,17 L57.9970301,17 C57.4463856,17 57,16.5561352 57,16 Z M57,20 C57,19.4477153 57.4530363,19 57.9970301,19 L64.0029699,19 C64.5536144,19 65,19.4438648 65,20 C65,20.5522847 64.5469637,21 64.0029699,21 L57.9970301,21 C57.4463856,21 57,20.5561352 57,20 Z M57,24 C57,23.4477153 57.4530363,23 57.9970301,23 L64.0029699,23 C64.5536144,23 65,23.4438648 65,24 C65,24.5522847 64.5469637,25 64.0029699,25 L57.9970301,25 C57.4463856,25 57,24.5561352 57,24 Z M57,28 C57,27.4477153 57.4530363,27 57.9970301,27 L64.0029699,27 C64.5536144,27 65,27.4438648 65,28 C65,28.5522847 64.5469637,29 64.0029699,29 L57.9970301,29 C57.4463856,29 57,28.5561352 57,28 Z M57,32 C57,31.4477153 57.4530363,31 57.9970301,31 L64.0029699,31 C64.5536144,31 65,31.4438648 65,32 C65,32.5522847 64.5469637,33 64.0029699,33 L57.9970301,33 C57.4463856,33 57,32.5561352 57,32 Z M67,16 C67,15.4477153 67.4530363,15 67.9970301,15 L74.0029699,15 C74.5536144,15 75,15.4438648 75,16 C75,16.5522847 74.5469637,17 74.0029699,17 L67.9970301,17 C67.4463856,17 67,16.5561352 67,16 Z M67,20 C67,19.4477153 67.4530363,19 67.9970301,19 L74.0029699,19 C74.5536144,19 75,19.4438648 75,20 C75,20.5522847 74.5469637,21 74.0029699,21 L67.9970301,21 C67.4463856,21 67,20.5561352 67,20 Z M67,24 C67,23.4477153 67.4530363,23 67.9970301,23 L74.0029699,23 C74.5536144,23 75,23.4438648 75,24 C75,24.5522847 74.5469637,25 74.0029699,25 L67.9970301,25 C67.4463856,25 67,24.5561352 67,24 Z M67,28 C67,27.4477153 67.4530363,27 67.9970301,27 L74.0029699,27 C74.5536144,27 75,27.4438648 75,28 C75,28.5522847 74.5469637,29 74.0029699,29 L67.9970301,29 C67.4463856,29 67,28.5561352 67,28 Z M67,32 C67,31.4477153 67.4530363,31 67.9970301,31 L74.0029699,31 C74.5536144,31 75,31.4438648 75,32 C75,32.5522847 74.5469637,33 74.0029699,33 L67.9970301,33 C67.4463856,33 67,32.5561352 67,32 Z M77,16 C77,15.4477153 77.4530363,15 77.9970301,15 L84.0029699,15 C84.5536144,15 85,15.4438648 85,16 C85,16.5522847 84.5469637,17 84.0029699,17 L77.9970301,17 C77.4463856,17 77,16.5561352 77,16 Z M77,20 C77,19.4477153 77.4530363,19 77.9970301,19 L84.0029699,19 C84.5536144,19 85,19.4438648 85,20 C85,20.5522847 84.5469637,21 84.0029699,21 L77.9970301,21 C77.4463856,21 77,20.5561352 77,20 Z M77,24 C77,23.4477153 77.4530363,23 77.9970301,23 L84.0029699,23 C84.5536144,23 85,23.4438648 85,24 C85,24.5522847 84.5469637,25 84.0029699,25 L77.9970301,25 C77.4463856,25 77,24.5561352 77,24 Z M77,28 C77,27.4477153 77.4530363,27 77.9970301,27 L84.0029699,27 C84.5536144,27 85,27.4438648 85,28 C85,28.5522847 84.5469637,29 84.0029699,29 L77.9970301,29 C77.4463856,29 77,28.5561352 77,28 Z M77,32 C77,31.4477153 77.4530363,31 77.9970301,31 L84.0029699,31 C84.5536144,31 85,31.4438648 85,32 C85,32.5522847 84.5469637,33 84.0029699,33 L77.9970301,33 C77.4463856,33 77,32.5561352 77,32 Z" id="Combined-Shape" fill="#768082"></path>
                    <rect id="Rectangle-2" fill="#9DA8AA" x="10" y="0" width="37" height="4"></rect>
                </g>
                <g id="device-copy" transform="translate(35.000000, 82.000000)">
                    <path d="M103,53.8911091 C103,52.7872 102.548919,51.1194735 101.9955,50.1713064 L98.0030963,43.3311669 C97.4483262,42.3806857 96.9987257,40.7232926 96.9988871,39.6189353 L97,32 L100,32 L100,38.6318957 C100,39.7379224 100.441194,41.419891 100.977357,42.3742988 L105.022643,49.57519 C105.562422,50.5360354 106,52.2115674 106,53.3140481 L106,59 L103,59 L103,53.8911091 Z" id="Combined-Shape" fill="#6C7577"></path>
                    <polygon id="Rectangle-11" fill="#5E6668" points="97 32 100 32 100 34 97 35"></polygon>
                    <rect id="Rectangle-3" fill="#9DA8AA" x="95" y="14" width="8" height="18"></rect>
                    <rect id="Rectangle" fill="#CAD2D6" x="0" y="4" width="95" height="55"></rect>
                    <circle id="Oval" fill="#E6EFF3" cx="90.5" cy="47.5" r="2.5"></circle>
                    <circle id="Oval-Copy" fill="#768082" cx="90.5" cy="47.5" r="1.5"></circle>
                    <rect id="Rectangle-14" fill="#768082" x="60" y="40" width="6" height="8" rx="1"></rect>
                    <rect id="Rectangle-13" fill="#E6EFF3" x="38" y="44" width="11" height="6" rx="1"></rect>
                    <rect id="Rectangle-12" fill="#768082" x="2" y="46" width="15" height="4" rx="1"></rect>
                    <rect id="Rectangle-10" fill="#B1B8BC" x="55" y="13" width="32" height="22" rx="2"></rect>
                    <rect id="Rectangle-4" fill="#B2B9BC" x="19" y="37" width="1" height="16" rx="0.5"></rect>
                    <rect id="Rectangle-4-Copy" fill="#B2B9BC" x="35" y="37" width="1" height="16" rx="0.5"></rect>
                    <rect id="Rectangle-4-Copy-2" fill="#B2B9BC" x="68" y="37" width="1" height="16" rx="0.5"></rect>
                    <rect id="Rectangle-4-Copy-3" fill="#B2B9BC" x="83" y="37" width="1" height="16" rx="0.5"></rect>
                    <rect id="Rectangle-7" fill="#B1B8BC" x="0" y="37" width="95" height="1" rx="0.5"></rect>
                    <rect id="Rectangle-7-Copy-2" fill="#B1B8BC" x="0" y="52" width="95" height="1" rx="0.5"></rect>
                    <rect id="Rectangle-10" fill="#B1B8BC" x="8" y="13" width="42" height="22" rx="2"></rect>
                    <rect id="Rectangle-7-Copy" fill="#B1B8BC" x="0" y="10" width="95" height="1" rx="0.5"></rect>
                    <rect id="Rectangle-4" fill="#B2B9BC" x="52" y="10" width="1" height="28" rx="0.5"></rect>
                    <path d="M10,16 C10,15.4477153 10.4530363,15 10.9970301,15 L17.0029699,15 C17.5536144,15 18,15.4438648 18,16 C18,16.5522847 17.5469637,17 17.0029699,17 L10.9970301,17 C10.4463856,17 10,16.5561352 10,16 Z M10,20 C10,19.4477153 10.4530363,19 10.9970301,19 L17.0029699,19 C17.5536144,19 18,19.4438648 18,20 C18,20.5522847 17.5469637,21 17.0029699,21 L10.9970301,21 C10.4463856,21 10,20.5561352 10,20 Z M10,24 C10,23.4477153 10.4530363,23 10.9970301,23 L17.0029699,23 C17.5536144,23 18,23.4438648 18,24 C18,24.5522847 17.5469637,25 17.0029699,25 L10.9970301,25 C10.4463856,25 10,24.5561352 10,24 Z M10,28 C10,27.4477153 10.4530363,27 10.9970301,27 L17.0029699,27 C17.5536144,27 18,27.4438648 18,28 C18,28.5522847 17.5469637,29 17.0029699,29 L10.9970301,29 C10.4463856,29 10,28.5561352 10,28 Z M10,32 C10,31.4477153 10.4530363,31 10.9970301,31 L17.0029699,31 C17.5536144,31 18,31.4438648 18,32 C18,32.5522847 17.5469637,33 17.0029699,33 L10.9970301,33 C10.4463856,33 10,32.5561352 10,32 Z M20,16 C20,15.4477153 20.4530363,15 20.9970301,15 L27.0029699,15 C27.5536144,15 28,15.4438648 28,16 C28,16.5522847 27.5469637,17 27.0029699,17 L20.9970301,17 C20.4463856,17 20,16.5561352 20,16 Z M20,20 C20,19.4477153 20.4530363,19 20.9970301,19 L27.0029699,19 C27.5536144,19 28,19.4438648 28,20 C28,20.5522847 27.5469637,21 27.0029699,21 L20.9970301,21 C20.4463856,21 20,20.5561352 20,20 Z M20,24 C20,23.4477153 20.4530363,23 20.9970301,23 L27.0029699,23 C27.5536144,23 28,23.4438648 28,24 C28,24.5522847 27.5469637,25 27.0029699,25 L20.9970301,25 C20.4463856,25 20,24.5561352 20,24 Z M20,28 C20,27.4477153 20.4530363,27 20.9970301,27 L27.0029699,27 C27.5536144,27 28,27.4438648 28,28 C28,28.5522847 27.5469637,29 27.0029699,29 L20.9970301,29 C20.4463856,29 20,28.5561352 20,28 Z M20,32 C20,31.4477153 20.4530363,31 20.9970301,31 L27.0029699,31 C27.5536144,31 28,31.4438648 28,32 C28,32.5522847 27.5469637,33 27.0029699,33 L20.9970301,33 C20.4463856,33 20,32.5561352 20,32 Z M30,16 C30,15.4477153 30.4530363,15 30.9970301,15 L37.0029699,15 C37.5536144,15 38,15.4438648 38,16 C38,16.5522847 37.5469637,17 37.0029699,17 L30.9970301,17 C30.4463856,17 30,16.5561352 30,16 Z M30,20 C30,19.4477153 30.4530363,19 30.9970301,19 L37.0029699,19 C37.5536144,19 38,19.4438648 38,20 C38,20.5522847 37.5469637,21 37.0029699,21 L30.9970301,21 C30.4463856,21 30,20.5561352 30,20 Z M30,24 C30,23.4477153 30.4530363,23 30.9970301,23 L37.0029699,23 C37.5536144,23 38,23.4438648 38,24 C38,24.5522847 37.5469637,25 37.0029699,25 L30.9970301,25 C30.4463856,25 30,24.5561352 30,24 Z M30,28 C30,27.4477153 30.4530363,27 30.9970301,27 L37.0029699,27 C37.5536144,27 38,27.4438648 38,28 C38,28.5522847 37.5469637,29 37.0029699,29 L30.9970301,29 C30.4463856,29 30,28.5561352 30,28 Z M30,32 C30,31.4477153 30.4530363,31 30.9970301,31 L37.0029699,31 C37.5536144,31 38,31.4438648 38,32 C38,32.5522847 37.5469637,33 37.0029699,33 L30.9970301,33 C30.4463856,33 30,32.5561352 30,32 Z M40,16 C40,15.4477153 40.4530363,15 40.9970301,15 L47.0029699,15 C47.5536144,15 48,15.4438648 48,16 C48,16.5522847 47.5469637,17 47.0029699,17 L40.9970301,17 C40.4463856,17 40,16.5561352 40,16 Z M40,20 C40,19.4477153 40.4530363,19 40.9970301,19 L47.0029699,19 C47.5536144,19 48,19.4438648 48,20 C48,20.5522847 47.5469637,21 47.0029699,21 L40.9970301,21 C40.4463856,21 40,20.5561352 40,20 Z M40,24 C40,23.4477153 40.4530363,23 40.9970301,23 L47.0029699,23 C47.5536144,23 48,23.4438648 48,24 C48,24.5522847 47.5469637,25 47.0029699,25 L40.9970301,25 C40.4463856,25 40,24.5561352 40,24 Z M40,28 C40,27.4477153 40.4530363,27 40.9970301,27 L47.0029699,27 C47.5536144,27 48,27.4438648 48,28 C48,28.5522847 47.5469637,29 47.0029699,29 L40.9970301,29 C40.4463856,29 40,28.5561352 40,28 Z M40,32 C40,31.4477153 40.4530363,31 40.9970301,31 L47.0029699,31 C47.5536144,31 48,31.4438648 48,32 C48,32.5522847 47.5469637,33 47.0029699,33 L40.9970301,33 C40.4463856,33 40,32.5561352 40,32 Z M57,16 C57,15.4477153 57.4530363,15 57.9970301,15 L64.0029699,15 C64.5536144,15 65,15.4438648 65,16 C65,16.5522847 64.5469637,17 64.0029699,17 L57.9970301,17 C57.4463856,17 57,16.5561352 57,16 Z M57,20 C57,19.4477153 57.4530363,19 57.9970301,19 L64.0029699,19 C64.5536144,19 65,19.4438648 65,20 C65,20.5522847 64.5469637,21 64.0029699,21 L57.9970301,21 C57.4463856,21 57,20.5561352 57,20 Z M57,24 C57,23.4477153 57.4530363,23 57.9970301,23 L64.0029699,23 C64.5536144,23 65,23.4438648 65,24 C65,24.5522847 64.5469637,25 64.0029699,25 L57.9970301,25 C57.4463856,25 57,24.5561352 57,24 Z M57,28 C57,27.4477153 57.4530363,27 57.9970301,27 L64.0029699,27 C64.5536144,27 65,27.4438648 65,28 C65,28.5522847 64.5469637,29 64.0029699,29 L57.9970301,29 C57.4463856,29 57,28.5561352 57,28 Z M57,32 C57,31.4477153 57.4530363,31 57.9970301,31 L64.0029699,31 C64.5536144,31 65,31.4438648 65,32 C65,32.5522847 64.5469637,33 64.0029699,33 L57.9970301,33 C57.4463856,33 57,32.5561352 57,32 Z M67,16 C67,15.4477153 67.4530363,15 67.9970301,15 L74.0029699,15 C74.5536144,15 75,15.4438648 75,16 C75,16.5522847 74.5469637,17 74.0029699,17 L67.9970301,17 C67.4463856,17 67,16.5561352 67,16 Z M67,20 C67,19.4477153 67.4530363,19 67.9970301,19 L74.0029699,19 C74.5536144,19 75,19.4438648 75,20 C75,20.5522847 74.5469637,21 74.0029699,21 L67.9970301,21 C67.4463856,21 67,20.5561352 67,20 Z M67,24 C67,23.4477153 67.4530363,23 67.9970301,23 L74.0029699,23 C74.5536144,23 75,23.4438648 75,24 C75,24.5522847 74.5469637,25 74.0029699,25 L67.9970301,25 C67.4463856,25 67,24.5561352 67,24 Z M67,28 C67,27.4477153 67.4530363,27 67.9970301,27 L74.0029699,27 C74.5536144,27 75,27.4438648 75,28 C75,28.5522847 74.5469637,29 74.0029699,29 L67.9970301,29 C67.4463856,29 67,28.5561352 67,28 Z M67,32 C67,31.4477153 67.4530363,31 67.9970301,31 L74.0029699,31 C74.5536144,31 75,31.4438648 75,32 C75,32.5522847 74.5469637,33 74.0029699,33 L67.9970301,33 C67.4463856,33 67,32.5561352 67,32 Z M77,16 C77,15.4477153 77.4530363,15 77.9970301,15 L84.0029699,15 C84.5536144,15 85,15.4438648 85,16 C85,16.5522847 84.5469637,17 84.0029699,17 L77.9970301,17 C77.4463856,17 77,16.5561352 77,16 Z M77,20 C77,19.4477153 77.4530363,19 77.9970301,19 L84.0029699,19 C84.5536144,19 85,19.4438648 85,20 C85,20.5522847 84.5469637,21 84.0029699,21 L77.9970301,21 C77.4463856,21 77,20.5561352 77,20 Z M77,24 C77,23.4477153 77.4530363,23 77.9970301,23 L84.0029699,23 C84.5536144,23 85,23.4438648 85,24 C85,24.5522847 84.5469637,25 84.0029699,25 L77.9970301,25 C77.4463856,25 77,24.5561352 77,24 Z M77,28 C77,27.4477153 77.4530363,27 77.9970301,27 L84.0029699,27 C84.5536144,27 85,27.4438648 85,28 C85,28.5522847 84.5469637,29 84.0029699,29 L77.9970301,29 C77.4463856,29 77,28.5561352 77,28 Z M77,32 C77,31.4477153 77.4530363,31 77.9970301,31 L84.0029699,31 C84.5536144,31 85,31.4438648 85,32 C85,32.5522847 84.5469637,33 84.0029699,33 L77.9970301,33 C77.4463856,33 77,32.5561352 77,32 Z" id="Combined-Shape" fill="#768082"></path>
                    <rect id="Rectangle-2" fill="#9DA8AA" x="10" y="0" width="37" height="4"></rect>
                </g>
                <g id="message_1" transform="translate(161.000000, 283.000000)">
                    <path d="M0,0 L253.995434,0 C263.939081,0 272,8.06752443 272,17.9996699 L272,50.0003301 C272,59.9412733 263.933376,68 253.995434,68 L18.0045656,68 C8.06091858,68 0,59.9324756 0,50.0003301 L0,0 Z" id="box_1" fill="#7FCFB6"></path>
                    <path d="M30.192,30.104 C30.192,30.648 30.64,31.08 31.184,31.08 C31.728,31.08 32.176,30.648 32.176,30.104 L32.176,21.624 L34.912,21.624 C35.408,21.624 35.808,21.208 35.808,20.712 C35.808,20.216 35.408,19.8 34.912,19.8 L27.472,19.8 C26.96,19.8 26.56,20.216 26.56,20.712 C26.56,21.208 26.96,21.624 27.472,21.624 L30.192,21.624 L30.192,30.104 Z M44.298,23.432 C44.298,22.888 43.85,22.456 43.322,22.456 C42.778,22.456 42.346,22.888 42.346,23.432 L42.346,27.32 C42.346,28.632 41.562,29.4 40.442,29.4 C39.29,29.4 38.634,28.664 38.634,27.352 L38.634,23.432 C38.634,22.888 38.202,22.456 37.658,22.456 C37.13,22.456 36.698,22.888 36.698,23.432 L36.698,27.928 C36.698,29.896 37.802,31.176 39.706,31.176 C41.018,31.176 41.802,30.488 42.346,29.688 L42.346,30.12 C42.346,30.664 42.794,31.08 43.322,31.08 C43.866,31.08 44.298,30.648 44.298,30.12 L44.298,23.432 Z M46.964,30.12 C46.964,30.664 47.396,31.08 47.924,31.08 C48.468,31.08 48.9,30.648 48.9,30.12 L48.9,27.624 C48.9,25.624 49.844,24.568 51.22,24.328 C51.652,24.248 51.988,23.912 51.988,23.4 C51.988,22.84 51.636,22.44 51.028,22.44 C50.18,22.44 49.348,23.24 48.9,24.296 L48.9,23.432 C48.9,22.888 48.468,22.456 47.924,22.456 C47.38,22.456 46.964,22.888 46.964,23.432 L46.964,30.12 Z M53.822,30.12 C53.822,30.664 54.254,31.08 54.782,31.08 C55.326,31.08 55.758,30.664 55.758,30.12 L55.758,26.232 C55.758,24.92 56.542,24.136 57.662,24.136 C58.814,24.136 59.47,24.888 59.47,26.2 L59.47,30.12 C59.47,30.664 59.902,31.08 60.446,31.08 C60.99,31.08 61.406,30.664 61.406,30.12 L61.406,25.608 C61.406,23.656 60.302,22.376 58.398,22.376 C57.086,22.376 56.302,23.064 55.758,23.848 L55.758,23.432 C55.758,22.888 55.326,22.456 54.782,22.456 C54.238,22.456 53.822,22.888 53.822,23.432 L53.822,30.12 Z M63.96,20.376 C63.96,20.952 64.44,21.336 65.064,21.336 C65.688,21.336 66.168,20.952 66.168,20.376 L66.168,20.28 C66.168,19.704 65.688,19.336 65.064,19.336 C64.44,19.336 63.96,19.704 63.96,20.28 L63.96,20.376 Z M64.104,30.12 C64.104,30.664 64.536,31.08 65.064,31.08 C65.608,31.08 66.04,30.664 66.04,30.12 L66.04,23.432 C66.04,22.888 65.608,22.456 65.064,22.456 C64.52,22.456 64.104,22.888 64.104,23.432 L64.104,30.12 Z M68.818,30.12 C68.818,30.664 69.25,31.08 69.778,31.08 C70.322,31.08 70.754,30.664 70.754,30.12 L70.754,26.232 C70.754,24.92 71.538,24.136 72.658,24.136 C73.81,24.136 74.466,24.888 74.466,26.2 L74.466,30.12 C74.466,30.664 74.898,31.08 75.442,31.08 C75.986,31.08 76.402,30.664 76.402,30.12 L76.402,25.608 C76.402,23.656 75.298,22.376 73.394,22.376 C72.082,22.376 71.298,23.064 70.754,23.848 L70.754,23.432 C70.754,22.888 70.322,22.456 69.778,22.456 C69.234,22.456 68.818,22.888 68.818,23.432 L68.818,30.12 Z M82.748,33.592 C84.268,33.592 85.452,33.224 86.22,32.456 C86.924,31.752 87.292,30.696 87.292,29.272 L87.292,23.432 C87.292,22.888 86.86,22.456 86.316,22.456 C85.788,22.456 85.356,22.888 85.356,23.416 L85.356,23.816 C84.7,23.032 83.82,22.376 82.396,22.376 C80.428,22.376 78.556,23.848 78.556,26.344 L78.556,26.376 C78.556,28.856 80.412,30.328 82.396,30.328 C83.788,30.328 84.668,29.688 85.372,28.776 L85.372,29.432 C85.372,31.128 84.428,32.024 82.7,32.024 C81.724,32.024 80.876,31.784 80.108,31.352 C80.012,31.304 79.9,31.272 79.756,31.272 C79.308,31.272 78.94,31.64 78.94,32.072 C78.94,32.44 79.148,32.712 79.484,32.84 C80.508,33.336 81.564,33.592 82.748,33.592 Z M82.908,28.68 C81.58,28.68 80.508,27.736 80.508,26.36 L80.508,26.328 C80.508,24.936 81.564,24.008 82.908,24.008 C84.252,24.008 85.388,24.952 85.388,26.328 L85.388,26.36 C85.388,27.736 84.252,28.68 82.908,28.68 Z M98.928,31.192 C100.336,31.192 101.248,30.712 102,29.992 C102.176,29.848 102.272,29.64 102.272,29.384 C102.272,28.92 101.904,28.536 101.44,28.536 C101.216,28.536 101.024,28.648 100.912,28.744 C100.384,29.192 99.792,29.496 99.024,29.496 C97.536,29.496 96.496,28.296 96.496,26.792 L96.496,26.76 C96.496,25.288 97.536,24.072 98.944,24.072 C99.712,24.072 100.256,24.376 100.752,24.792 C100.88,24.888 101.088,24.984 101.328,24.984 C101.824,24.984 102.224,24.6 102.224,24.104 C102.224,23.784 102.048,23.544 101.92,23.432 C101.2,22.808 100.288,22.376 98.96,22.376 C96.416,22.376 94.56,24.392 94.56,26.792 L94.56,26.824 C94.56,29.224 96.416,31.192 98.928,31.192 Z M108.186,31.192 C110.794,31.192 112.714,29.192 112.714,26.792 L112.714,26.76 C112.714,24.344 110.81,22.376 108.218,22.376 C105.626,22.376 103.706,24.376 103.706,26.792 L103.706,26.824 C103.706,29.224 105.61,31.192 108.186,31.192 Z M108.218,29.496 C106.714,29.496 105.642,28.264 105.642,26.792 L105.642,26.76 C105.642,25.288 106.634,24.072 108.186,24.072 C109.706,24.072 110.778,25.304 110.778,26.792 L110.778,26.824 C110.778,28.28 109.786,29.496 108.218,29.496 Z M118.948,31.192 C121.556,31.192 123.476,29.192 123.476,26.792 L123.476,26.76 C123.476,24.344 121.572,22.376 118.98,22.376 C116.388,22.376 114.468,24.376 114.468,26.792 L114.468,26.824 C114.468,29.224 116.372,31.192 118.948,31.192 Z M118.98,29.496 C117.476,29.496 116.404,28.264 116.404,26.792 L116.404,26.76 C116.404,25.288 117.396,24.072 118.948,24.072 C120.468,24.072 121.54,25.304 121.54,26.792 L121.54,26.824 C121.54,28.28 120.548,29.496 118.98,29.496 Z M125.806,30.12 C125.806,30.664 126.238,31.08 126.766,31.08 C127.31,31.08 127.742,30.664 127.742,30.12 L127.742,20.2 C127.742,19.672 127.31,19.24 126.766,19.24 C126.222,19.24 125.806,19.672 125.806,20.2 L125.806,30.12 Z M130.488,20.376 C130.488,20.952 130.968,21.336 131.592,21.336 C132.216,21.336 132.696,20.952 132.696,20.376 L132.696,20.28 C132.696,19.704 132.216,19.336 131.592,19.336 C130.968,19.336 130.488,19.704 130.488,20.28 L130.488,20.376 Z M130.632,30.12 C130.632,30.664 131.064,31.08 131.592,31.08 C132.136,31.08 132.568,30.664 132.568,30.12 L132.568,23.432 C132.568,22.888 132.136,22.456 131.592,22.456 C131.048,22.456 130.632,22.888 130.632,23.432 L130.632,30.12 Z M135.346,30.12 C135.346,30.664 135.778,31.08 136.306,31.08 C136.85,31.08 137.282,30.664 137.282,30.12 L137.282,26.232 C137.282,24.92 138.066,24.136 139.186,24.136 C140.338,24.136 140.994,24.888 140.994,26.2 L140.994,30.12 C140.994,30.664 141.426,31.08 141.97,31.08 C142.514,31.08 142.93,30.664 142.93,30.12 L142.93,25.608 C142.93,23.656 141.826,22.376 139.922,22.376 C138.61,22.376 137.826,23.064 137.282,23.848 L137.282,23.432 C137.282,22.888 136.85,22.456 136.306,22.456 C135.762,22.456 135.346,22.888 135.346,23.432 L135.346,30.12 Z M149.276,33.592 C150.796,33.592 151.98,33.224 152.748,32.456 C153.452,31.752 153.82,30.696 153.82,29.272 L153.82,23.432 C153.82,22.888 153.388,22.456 152.844,22.456 C152.316,22.456 151.884,22.888 151.884,23.416 L151.884,23.816 C151.228,23.032 150.348,22.376 148.924,22.376 C146.956,22.376 145.084,23.848 145.084,26.344 L145.084,26.376 C145.084,28.856 146.94,30.328 148.924,30.328 C150.316,30.328 151.196,29.688 151.9,28.776 L151.9,29.432 C151.9,31.128 150.956,32.024 149.228,32.024 C148.252,32.024 147.404,31.784 146.636,31.352 C146.54,31.304 146.428,31.272 146.284,31.272 C145.836,31.272 145.468,31.64 145.468,32.072 C145.468,32.44 145.676,32.712 146.012,32.84 C147.036,33.336 148.092,33.592 149.276,33.592 Z M149.436,28.68 C148.108,28.68 147.036,27.736 147.036,26.36 L147.036,26.328 C147.036,24.936 148.092,24.008 149.436,24.008 C150.78,24.008 151.916,24.952 151.916,26.328 L151.916,26.36 C151.916,27.736 150.78,28.68 149.436,28.68 Z M169.056,23.432 C169.056,22.888 168.608,22.456 168.08,22.456 C167.536,22.456 167.104,22.888 167.104,23.432 L167.104,27.32 C167.104,28.632 166.32,29.4 165.2,29.4 C164.048,29.4 163.392,28.664 163.392,27.352 L163.392,23.432 C163.392,22.888 162.96,22.456 162.416,22.456 C161.888,22.456 161.456,22.888 161.456,23.432 L161.456,27.928 C161.456,29.896 162.56,31.176 164.464,31.176 C165.776,31.176 166.56,30.488 167.104,29.688 L167.104,30.12 C167.104,30.664 167.552,31.08 168.08,31.08 C168.624,31.08 169.056,30.648 169.056,30.12 L169.056,23.432 Z M171.722,30.12 C171.722,30.664 172.154,31.08 172.682,31.08 C173.226,31.08 173.658,30.664 173.658,30.12 L173.658,26.232 C173.658,24.92 174.442,24.136 175.562,24.136 C176.714,24.136 177.37,24.888 177.37,26.2 L177.37,30.12 C177.37,30.664 177.802,31.08 178.346,31.08 C178.89,31.08 179.306,30.664 179.306,30.12 L179.306,25.608 C179.306,23.656 178.202,22.376 176.298,22.376 C174.986,22.376 174.202,23.064 173.658,23.848 L173.658,23.432 C173.658,22.888 173.226,22.456 172.682,22.456 C172.138,22.456 171.722,22.888 171.722,23.432 L171.722,30.12 Z M181.86,20.376 C181.86,20.952 182.34,21.336 182.964,21.336 C183.588,21.336 184.068,20.952 184.068,20.376 L184.068,20.28 C184.068,19.704 183.588,19.336 182.964,19.336 C182.34,19.336 181.86,19.704 181.86,20.28 L181.86,20.376 Z M182.004,30.12 C182.004,30.664 182.436,31.08 182.964,31.08 C183.508,31.08 183.94,30.664 183.94,30.12 L183.94,23.432 C183.94,22.888 183.508,22.456 182.964,22.456 C182.42,22.456 182.004,22.888 182.004,23.432 L182.004,30.12 Z M189.55,31.144 C190.062,31.144 190.462,31.064 190.878,30.92 C191.15,30.808 191.39,30.52 191.39,30.168 C191.39,29.72 191.006,29.368 190.574,29.368 C190.51,29.368 190.318,29.416 190.094,29.416 C189.438,29.416 189.054,29.112 189.054,28.36 L189.054,24.216 L190.574,24.216 C191.038,24.216 191.422,23.848 191.422,23.384 C191.422,22.92 191.038,22.552 190.574,22.552 L189.054,22.552 L189.054,21.112 C189.054,20.584 188.622,20.152 188.094,20.152 C187.55,20.152 187.118,20.584 187.118,21.112 L187.118,22.552 L186.798,22.552 C186.334,22.552 185.966,22.92 185.966,23.384 C185.966,23.848 186.334,24.216 186.798,24.216 L187.118,24.216 L187.118,28.664 C187.118,30.52 188.126,31.144 189.55,31.144 Z M198.05,30.168 C198.05,30.68 198.45,31.08 198.962,31.08 C199.378,31.08 199.714,30.856 199.874,30.456 L200.818,28.296 L206.258,28.296 L207.17,30.392 C207.346,30.808 207.666,31.08 208.13,31.08 C208.658,31.08 209.058,30.664 209.058,30.136 C209.058,30.008 209.026,29.864 208.946,29.72 L204.786,20.44 C204.562,19.944 204.178,19.64 203.618,19.64 L203.522,19.64 C202.962,19.64 202.562,19.944 202.338,20.44 L198.178,29.72 C198.098,29.88 198.05,30.024 198.05,30.168 Z M201.57,26.552 L203.538,22.024 L205.506,26.552 L201.57,26.552 Z M220.278,31.192 C222.886,31.192 224.806,29.192 224.806,26.792 L224.806,26.76 C224.806,24.344 222.902,22.376 220.31,22.376 C217.718,22.376 215.798,24.376 215.798,26.792 L215.798,26.824 C215.798,29.224 217.702,31.192 220.278,31.192 Z M220.31,29.496 C218.806,29.496 217.734,28.264 217.734,26.792 L217.734,26.76 C217.734,25.288 218.726,24.072 220.278,24.072 C221.798,24.072 222.87,25.304 222.87,26.792 L222.87,26.824 C222.87,28.28 221.878,29.496 220.31,29.496 Z M227.024,30.12 C227.024,30.664 227.456,31.08 227.984,31.08 C228.528,31.08 228.96,30.664 228.96,30.12 L228.96,26.232 C228.96,24.92 229.744,24.136 230.864,24.136 C232.016,24.136 232.672,24.888 232.672,26.2 L232.672,30.12 C232.672,30.664 233.104,31.08 233.648,31.08 C234.192,31.08 234.608,30.664 234.608,30.12 L234.608,25.608 C234.608,23.656 233.504,22.376 231.6,22.376 C230.288,22.376 229.504,23.064 228.96,23.848 L228.96,23.432 C228.96,22.888 228.528,22.456 227.984,22.456 C227.44,22.456 227.024,22.888 227.024,23.432 L227.024,30.12 Z M237.002,29.816 L237.002,29.976 C237.002,30.6 237.482,31.08 238.138,31.08 C238.778,31.08 239.258,30.6 239.258,29.976 L239.258,29.816 C239.258,29.192 238.778,28.712 238.138,28.712 C237.482,28.712 237.002,29.192 237.002,29.816 Z M31.36,51.16 C33.712,51.16 35.36,49.912 35.36,47.816 L35.36,47.784 C35.36,45.928 34.144,45.08 31.776,44.504 C29.616,43.992 29.104,43.608 29.104,42.744 L29.104,42.712 C29.104,41.976 29.776,41.384 30.928,41.384 C31.808,41.384 32.64,41.672 33.504,42.232 C33.664,42.328 33.824,42.376 34.016,42.376 C34.528,42.376 34.944,41.976 34.944,41.464 C34.944,41.08 34.736,40.808 34.512,40.68 C33.504,40.008 32.368,39.64 30.96,39.64 C28.736,39.64 27.136,40.968 27.136,42.888 L27.136,42.92 C27.136,44.984 28.48,45.688 30.864,46.264 C32.944,46.744 33.392,47.176 33.392,47.976 L33.392,48.008 C33.392,48.84 32.624,49.416 31.408,49.416 C30.192,49.416 29.2,49 28.272,48.264 C28.144,48.168 27.968,48.088 27.696,48.088 C27.184,48.088 26.768,48.488 26.768,49 C26.768,49.32 26.928,49.592 27.152,49.752 C28.4,50.68 29.84,51.16 31.36,51.16 Z M39.162,46.184 C39.338,44.872 40.17,43.96 41.354,43.96 C42.634,43.96 43.37,44.936 43.498,46.184 L39.162,46.184 Z M44.618,50.072 C44.762,49.928 44.874,49.72 44.874,49.48 C44.874,49.032 44.538,48.696 44.106,48.696 C43.882,48.696 43.754,48.76 43.61,48.872 C43.066,49.32 42.426,49.608 41.61,49.608 C40.362,49.608 39.386,48.84 39.178,47.464 L44.474,47.464 C44.97,47.464 45.386,47.08 45.386,46.536 C45.386,44.584 44.058,42.376 41.37,42.376 C38.954,42.376 37.242,44.36 37.242,46.776 L37.242,46.808 C37.242,49.416 39.13,51.192 41.578,51.192 C42.89,51.192 43.85,50.76 44.618,50.072 Z M50.452,51.144 C50.964,51.144 51.364,51.064 51.78,50.92 C52.052,50.808 52.292,50.52 52.292,50.168 C52.292,49.72 51.908,49.368 51.476,49.368 C51.412,49.368 51.22,49.416 50.996,49.416 C50.34,49.416 49.956,49.112 49.956,48.36 L49.956,44.216 L51.476,44.216 C51.94,44.216 52.324,43.848 52.324,43.384 C52.324,42.92 51.94,42.552 51.476,42.552 L49.956,42.552 L49.956,41.112 C49.956,40.584 49.524,40.152 48.996,40.152 C48.452,40.152 48.02,40.584 48.02,41.112 L48.02,42.552 L47.7,42.552 C47.236,42.552 46.868,42.92 46.868,43.384 C46.868,43.848 47.236,44.216 47.7,44.216 L48.02,44.216 L48.02,48.664 C48.02,50.52 49.028,51.144 50.452,51.144 Z M57.278,51.144 C57.79,51.144 58.19,51.064 58.606,50.92 C58.878,50.808 59.118,50.52 59.118,50.168 C59.118,49.72 58.734,49.368 58.302,49.368 C58.238,49.368 58.046,49.416 57.822,49.416 C57.166,49.416 56.782,49.112 56.782,48.36 L56.782,44.216 L58.302,44.216 C58.766,44.216 59.15,43.848 59.15,43.384 C59.15,42.92 58.766,42.552 58.302,42.552 L56.782,42.552 L56.782,41.112 C56.782,40.584 56.35,40.152 55.822,40.152 C55.278,40.152 54.846,40.584 54.846,41.112 L54.846,42.552 L54.526,42.552 C54.062,42.552 53.694,42.92 53.694,43.384 C53.694,43.848 54.062,44.216 54.526,44.216 L54.846,44.216 L54.846,48.664 C54.846,50.52 55.854,51.144 57.278,51.144 Z M61.24,40.376 C61.24,40.952 61.72,41.336 62.344,41.336 C62.968,41.336 63.448,40.952 63.448,40.376 L63.448,40.28 C63.448,39.704 62.968,39.336 62.344,39.336 C61.72,39.336 61.24,39.704 61.24,40.28 L61.24,40.376 Z M61.384,50.12 C61.384,50.664 61.816,51.08 62.344,51.08 C62.888,51.08 63.32,50.664 63.32,50.12 L63.32,43.432 C63.32,42.888 62.888,42.456 62.344,42.456 C61.8,42.456 61.384,42.888 61.384,43.432 L61.384,50.12 Z M66.098,50.12 C66.098,50.664 66.53,51.08 67.058,51.08 C67.602,51.08 68.034,50.664 68.034,50.12 L68.034,46.232 C68.034,44.92 68.818,44.136 69.938,44.136 C71.09,44.136 71.746,44.888 71.746,46.2 L71.746,50.12 C71.746,50.664 72.178,51.08 72.722,51.08 C73.266,51.08 73.682,50.664 73.682,50.12 L73.682,45.608 C73.682,43.656 72.578,42.376 70.674,42.376 C69.362,42.376 68.578,43.064 68.034,43.848 L68.034,43.432 C68.034,42.888 67.602,42.456 67.058,42.456 C66.514,42.456 66.098,42.888 66.098,43.432 L66.098,50.12 Z M80.028,53.592 C81.548,53.592 82.732,53.224 83.5,52.456 C84.204,51.752 84.572,50.696 84.572,49.272 L84.572,43.432 C84.572,42.888 84.14,42.456 83.596,42.456 C83.068,42.456 82.636,42.888 82.636,43.416 L82.636,43.816 C81.98,43.032 81.1,42.376 79.676,42.376 C77.708,42.376 75.836,43.848 75.836,46.344 L75.836,46.376 C75.836,48.856 77.692,50.328 79.676,50.328 C81.068,50.328 81.948,49.688 82.652,48.776 L82.652,49.432 C82.652,51.128 81.708,52.024 79.98,52.024 C79.004,52.024 78.156,51.784 77.388,51.352 C77.292,51.304 77.18,51.272 77.036,51.272 C76.588,51.272 76.22,51.64 76.22,52.072 C76.22,52.44 76.428,52.712 76.764,52.84 C77.788,53.336 78.844,53.592 80.028,53.592 Z M80.188,48.68 C78.86,48.68 77.788,47.736 77.788,46.36 L77.788,46.328 C77.788,44.936 78.844,44.008 80.188,44.008 C81.532,44.008 82.668,44.952 82.668,46.328 L82.668,46.36 C82.668,47.736 81.532,48.68 80.188,48.68 Z M95.136,51.144 C95.648,51.144 96.048,51.064 96.464,50.92 C96.736,50.808 96.976,50.52 96.976,50.168 C96.976,49.72 96.592,49.368 96.16,49.368 C96.096,49.368 95.904,49.416 95.68,49.416 C95.024,49.416 94.64,49.112 94.64,48.36 L94.64,44.216 L96.16,44.216 C96.624,44.216 97.008,43.848 97.008,43.384 C97.008,42.92 96.624,42.552 96.16,42.552 L94.64,42.552 L94.64,41.112 C94.64,40.584 94.208,40.152 93.68,40.152 C93.136,40.152 92.704,40.584 92.704,41.112 L92.704,42.552 L92.384,42.552 C91.92,42.552 91.552,42.92 91.552,43.384 C91.552,43.848 91.92,44.216 92.384,44.216 L92.704,44.216 L92.704,48.664 C92.704,50.52 93.712,51.144 95.136,51.144 Z M101.562,51.176 C102.858,51.176 103.738,50.632 104.314,49.944 L104.314,50.264 C104.314,50.696 104.698,51.08 105.258,51.08 C105.786,51.08 106.202,50.68 106.202,50.152 L106.202,45.992 C106.202,44.888 105.914,43.992 105.29,43.384 C104.698,42.776 103.754,42.44 102.49,42.44 C101.386,42.44 100.57,42.632 99.77,42.936 C99.482,43.048 99.242,43.352 99.242,43.704 C99.242,44.152 99.61,44.504 100.058,44.504 C100.154,44.504 100.25,44.488 100.362,44.456 C100.89,44.248 101.498,44.12 102.234,44.12 C103.594,44.12 104.33,44.76 104.33,45.96 L104.33,46.168 C103.674,45.96 103.002,45.816 102.058,45.816 C99.994,45.816 98.57,46.712 98.57,48.536 L98.57,48.568 C98.57,50.264 99.978,51.176 101.562,51.176 Z M102.106,49.768 C101.178,49.768 100.458,49.304 100.458,48.488 L100.458,48.456 C100.458,47.576 101.194,47.048 102.442,47.048 C103.21,47.048 103.866,47.192 104.362,47.384 L104.362,47.96 C104.362,49.032 103.386,49.768 102.106,49.768 Z M108.772,50.12 C108.772,50.664 109.204,51.08 109.732,51.08 C110.276,51.08 110.708,50.648 110.708,50.12 L110.708,47.624 C110.708,45.624 111.652,44.568 113.028,44.328 C113.46,44.248 113.796,43.912 113.796,43.4 C113.796,42.84 113.444,42.44 112.836,42.44 C111.988,42.44 111.156,43.24 110.708,44.296 L110.708,43.432 C110.708,42.888 110.276,42.456 109.732,42.456 C109.188,42.456 108.772,42.888 108.772,43.432 L108.772,50.12 Z M119.15,53.592 C120.67,53.592 121.854,53.224 122.622,52.456 C123.326,51.752 123.694,50.696 123.694,49.272 L123.694,43.432 C123.694,42.888 123.262,42.456 122.718,42.456 C122.19,42.456 121.758,42.888 121.758,43.416 L121.758,43.816 C121.102,43.032 120.222,42.376 118.798,42.376 C116.83,42.376 114.958,43.848 114.958,46.344 L114.958,46.376 C114.958,48.856 116.814,50.328 118.798,50.328 C120.19,50.328 121.07,49.688 121.774,48.776 L121.774,49.432 C121.774,51.128 120.83,52.024 119.102,52.024 C118.126,52.024 117.278,51.784 116.51,51.352 C116.414,51.304 116.302,51.272 116.158,51.272 C115.71,51.272 115.342,51.64 115.342,52.072 C115.342,52.44 115.55,52.712 115.886,52.84 C116.91,53.336 117.966,53.592 119.15,53.592 Z M119.31,48.68 C117.982,48.68 116.91,47.736 116.91,46.36 L116.91,46.328 C116.91,44.936 117.966,44.008 119.31,44.008 C120.654,44.008 121.79,44.952 121.79,46.328 L121.79,46.36 C121.79,47.736 120.654,48.68 119.31,48.68 Z M127.832,46.184 C128.008,44.872 128.84,43.96 130.024,43.96 C131.304,43.96 132.04,44.936 132.168,46.184 L127.832,46.184 Z M133.288,50.072 C133.432,49.928 133.544,49.72 133.544,49.48 C133.544,49.032 133.208,48.696 132.776,48.696 C132.552,48.696 132.424,48.76 132.28,48.872 C131.736,49.32 131.096,49.608 130.28,49.608 C129.032,49.608 128.056,48.84 127.848,47.464 L133.144,47.464 C133.64,47.464 134.056,47.08 134.056,46.536 C134.056,44.584 132.728,42.376 130.04,42.376 C127.624,42.376 125.912,44.36 125.912,46.776 L125.912,46.808 C125.912,49.416 127.8,51.192 130.248,51.192 C131.56,51.192 132.52,50.76 133.288,50.072 Z M139.122,51.144 C139.634,51.144 140.034,51.064 140.45,50.92 C140.722,50.808 140.962,50.52 140.962,50.168 C140.962,49.72 140.578,49.368 140.146,49.368 C140.082,49.368 139.89,49.416 139.666,49.416 C139.01,49.416 138.626,49.112 138.626,48.36 L138.626,44.216 L140.146,44.216 C140.61,44.216 140.994,43.848 140.994,43.384 C140.994,42.92 140.61,42.552 140.146,42.552 L138.626,42.552 L138.626,41.112 C138.626,40.584 138.194,40.152 137.666,40.152 C137.122,40.152 136.69,40.584 136.69,41.112 L136.69,42.552 L136.37,42.552 C135.906,42.552 135.538,42.92 135.538,43.384 C135.538,43.848 135.906,44.216 136.37,44.216 L136.69,44.216 L136.69,48.664 C136.69,50.52 137.698,51.144 139.122,51.144 Z M150.998,51.144 C151.51,51.144 151.91,51.064 152.326,50.92 C152.598,50.808 152.838,50.52 152.838,50.168 C152.838,49.72 152.454,49.368 152.022,49.368 C151.958,49.368 151.766,49.416 151.542,49.416 C150.886,49.416 150.502,49.112 150.502,48.36 L150.502,44.216 L152.022,44.216 C152.486,44.216 152.87,43.848 152.87,43.384 C152.87,42.92 152.486,42.552 152.022,42.552 L150.502,42.552 L150.502,41.112 C150.502,40.584 150.07,40.152 149.542,40.152 C148.998,40.152 148.566,40.584 148.566,41.112 L148.566,42.552 L148.246,42.552 C147.782,42.552 147.414,42.92 147.414,43.384 C147.414,43.848 147.782,44.216 148.246,44.216 L148.566,44.216 L148.566,48.664 C148.566,50.52 149.574,51.144 150.998,51.144 Z M158.768,51.192 C161.376,51.192 163.296,49.192 163.296,46.792 L163.296,46.76 C163.296,44.344 161.392,42.376 158.8,42.376 C156.208,42.376 154.288,44.376 154.288,46.792 L154.288,46.824 C154.288,49.224 156.192,51.192 158.768,51.192 Z M158.8,49.496 C157.296,49.496 156.224,48.264 156.224,46.792 L156.224,46.76 C156.224,45.288 157.216,44.072 158.768,44.072 C160.288,44.072 161.36,45.304 161.36,46.792 L161.36,46.824 C161.36,48.28 160.368,49.496 158.8,49.496 Z M171.54,50.2 C171.54,50.76 172.02,51.08 172.548,51.08 C172.948,51.08 173.252,50.872 173.492,50.424 L178.132,41.624 C178.292,41.32 178.404,40.968 178.404,40.68 C178.404,40.12 178.052,39.8 177.508,39.8 L171.22,39.8 C170.74,39.8 170.356,40.184 170.356,40.664 C170.356,41.144 170.74,41.528 171.22,41.528 L176.068,41.528 L171.716,49.592 C171.62,49.768 171.54,50.04 171.54,50.2 Z M179.79,50.072 C179.79,50.648 180.238,51 180.846,51 L187.198,51 C187.678,51 188.062,50.616 188.062,50.136 C188.062,49.656 187.678,49.272 187.198,49.272 L182.654,49.272 L184.958,47.352 C186.942,45.736 187.87,44.776 187.87,43.016 L187.87,42.984 C187.87,40.984 186.366,39.64 184.174,39.64 C182.414,39.64 181.374,40.312 180.462,41.448 C180.318,41.624 180.238,41.848 180.238,42.056 C180.238,42.552 180.638,42.952 181.134,42.952 C181.454,42.952 181.678,42.808 181.822,42.648 C182.51,41.816 183.134,41.4 184.03,41.4 C185.054,41.4 185.838,42.04 185.838,43.144 C185.838,44.152 185.278,44.872 183.742,46.168 L180.302,49.096 C179.966,49.368 179.79,49.688 179.79,50.072 Z M195.65,50.104 C195.65,50.648 196.082,51.08 196.642,51.08 C197.186,51.08 197.618,50.648 197.618,50.104 L197.618,46.44 L202.45,46.44 C202.946,46.44 203.346,46.04 203.346,45.544 C203.346,45.048 202.946,44.648 202.45,44.648 L197.618,44.648 L197.618,41.592 L203.17,41.592 C203.666,41.592 204.066,41.192 204.066,40.696 C204.066,40.2 203.666,39.8 203.17,39.8 L196.642,39.8 C196.082,39.8 195.65,40.232 195.65,40.792 L195.65,50.104 Z" id="Turning-cooling-unit" fill="#FFFFFF"></path>
                </g>
                <rect id="header" fill="#F6F6F6" x="0" y="0" width="620" height="40"></rect>
                <circle id="c3" fill="#A1BD70" cx="56" cy="20" r="6"></circle>
                <circle id="c2" fill="#DDC27C" cx="38" cy="20" r="6"></circle>
                <circle id="c1" fill="#C26466" cx="20" cy="20" r="6"></circle>
            </g>
        </g>
    </g>
</svg>