<svg xmlns="http://www.w3.org/2000/svg" width="152" height="190" viewBox="0 0 152 190">
    <defs>
        <linearGradient id="a" x1="50%" x2="50%" y1="0%" y2="100%">
            <stop offset="0%" stop-color="#424242"/>
            <stop offset="100%" stop-color="#7D7D7D"/>
        </linearGradient>
    </defs>
    <g fill="none" fill-rule="evenodd">
        <path fill="url(#a)" d="M21.33 82.893L76 57.535l54.67 25.358-5.76 50.013H28.706z"/>
        <path fill="#FFF" d="M125.718 93.862l-49.92 31.8v63.122c0 1.116.744 1.52 1.675.893l46.57-31.354c.925-.623 1.675-2.024 1.675-3.146V93.862z"/>
        <path fill="#EFEFEF" d="M26.282 93.862l49.92 31.8v64.137l-48.23-31.5c-.933-.61-1.69-2-1.69-3.122V93.862z"/>
        <path fill="#DDD" d="M1.02 69.939c-.782-.793-.654-1.923.278-2.52l49.766-31.845c.936-.599 2.339-.453 3.137.33l22.203 21.731L22.24 91.447 1.02 69.939z"/>
        <path fill="#DDD" d="M150.98 69.939c.782-.793.654-1.923-.278-2.52l-49.766-31.845c-.936-.599-2.34-.44-3.122.338L76 57.635l53.76 33.812 21.22-21.508zM22.24 91.246L76 125.66l-21.599 21.32c-.796.786-2.201.933-3.139.33L.898 114.88c-.938-.604-1.058-1.72-.257-2.503L22.24 91.246z"/>
        <path fill="#E5E5E5" d="M129.76 91.246L76 125.66l21.599 21.32c.796.786 2.201.933 3.139.33l50.364-32.431c.938-.604 1.058-1.72.257-2.503L129.76 91.246z"/>
        <path fill="#6EA4A7" d="M74.982.677c.606-.374 1.58-.38 2.188-.006l38.218 23.487c.603.37.613.974.02 1.352L77.471 49.613c-.592.376-1.556.377-2.157 0L36.926 25.51c-.599-.376-.605-.977.012-1.358L74.982.677z"/>
        <path fill="#73A9AC" d="M116.253 25.993c0-.703-.477-.971-1.08-.589L76.238 50.078v50.339c0 .89.597 1.212 1.343.712l37.33-25.004c.741-.497 1.342-1.614 1.342-2.509V25.993z"/>
        <path fill="#699A9D" d="M36.547 25.993c0-.703.477-.971 1.08-.589l38.935 24.674v51.148l-38.66-25.12c-.749-.487-1.355-1.595-1.355-2.49V25.993z"/>
        <path fill="#FFF" d="M71.012 76.983c0 2.765-2.24 3.553-5.004 1.76L47.004 66.411C44.24 64.617 42 60.916 42 58.156c0-2.538 1.888-3.41 4.335-2.15a9.132 9.132 0 0 1-.288-2.186c0-3.883 3.147-4.988 7.03-2.469 2.616 1.698 4.898 4.609 6.109 7.515.75.102 1.598.437 2.498 1.02 3.03 1.967 5.487 6.018 5.487 9.049 0 .228-.014.445-.041.648 2.223 1.954 3.882 5.025 3.882 7.4z"/>
    </g>
</svg>
