<svg xmlns="http://www.w3.org/2000/svg" width="144" height="170" viewBox="0 0 144 170">
    <defs>
        <linearGradient id="a" x1="50%" x2="50%" y1="0%" y2="100%">
            <stop offset="0%" stop-color="#414141"/>
            <stop offset="100%" stop-color="gray"/>
        </linearGradient>
    </defs>
    <g fill="none" fill-rule="evenodd">
        <rect width="25.6" height="18.357" x="111.556" y="37.468" fill="#DEDEDE" rx="3.2" transform="rotate(45 124.356 46.647)"/>
        <path fill="#DEDEDE" d="M61.6 13.568h20.8v22.347H61.6z"/>
        <ellipse cx="72" cy="98.169" fill="#FFF" rx="72" ry="71.831"/>
        <ellipse cx="72" cy="98.169" fill="url(#a)" rx="60" ry="59.859"/>
        <path fill="#FFF" d="M42.4 7.981A7.98 7.98 0 0 1 50.384 0h43.232c4.41 0 7.984 3.582 7.984 7.981a7.98 7.98 0 0 1-7.984 7.981H50.384c-4.41 0-7.984-3.582-7.984-7.98z"/>
        <ellipse cx="72" cy="98.169" fill="#FFF" rx="47.2" ry="47.089"/>
        <path fill="#7FCBCF" d="M116.8 100.563c.11-1.315 2.4-1.05 2.4-2.394 0-26.007-21.132-47.09-47.2-47.09-.138 0-.32.732-.4.799-.545.455.122 1.535-.8 1.596 0 0-2 .142-2 1.596v42.442c0 1.549 1.6 2.652 1.6 2.652s1.128 1.996 2.4 1.996h42.4l1.6-1.597z"/>
        <path fill="#7FCBCF" d="M72.8 102.16c-2.21 0-4-1.787-4-3.991s1.79-3.99 4-3.99 4 1.786 4 3.99-1.79 3.99-4 3.99zm42.4 0c-2.21 0-4-1.787-4-3.991s1.79-3.99 4-3.99 4 1.786 4 3.99-1.79 3.99-4 3.99zM72.8 59.06c-2.21 0-4-1.787-4-3.99 0-2.205 1.79-3.991 4-3.991s4 1.786 4 3.99-1.79 3.991-4 3.991z"/>
    </g>
</svg>
