<svg xmlns="http://www.w3.org/2000/svg" width="189" height="111" viewBox="0 0 189 111">
    <defs>
        <linearGradient id="a" x1="50%" x2="50%" y1="0%" y2="100%">
            <stop offset="0%" stop-color="#414141"/>
            <stop offset="100%" stop-color="#7F7F7F"/>
        </linearGradient>
    </defs>
    <g fill="none" fill-rule="evenodd">
        <g transform="translate(41 12)">
            <path fill="#FFF" d="M0 11.991C0 5.369 5.37 0 12 0h96c6.627 0 12 5.375 12 11.991v75.018C120 93.631 114.63 99 108 99H12C5.373 99 0 93.625 0 87.009V11.991zM12 15a3 3 0 1 0 0-6 3 3 0 0 0 0 6zm9 0a3 3 0 1 0 0-6 3 3 0 0 0 0 6zm9 0a3 3 0 1 0 0-6 3 3 0 0 0 0 6z"/>
            <rect width="102" height="66" x="9" y="24" fill="url(#a)" rx="3"/>
            <rect width="36" height="18" x="15" y="36" fill="#DEDEDE" rx="3"/>
            <rect width="36" height="18" x="15" y="60" fill="#DEDEDE" rx="3"/>
            <rect width="48" height="42" x="57" y="36" fill="#DEDEDE" rx="3"/>
        </g>
        <path fill="#7FCBCF" d="M18.333 2.592l4.087 9.86 7.294 3.315c3.022 1.374 3.02 3.598 0 4.97l-7.294 3.316-4.087 9.86c-1.269 3.063-3.322 3.058-4.589 0l-4.086-9.86-7.294-3.315c-3.022-1.374-3.02-3.598 0-4.97l7.294-3.316 4.086-9.86c1.27-3.063 3.322-3.057 4.59 0zm162.436 79.63l1.983 4.855 3.059 1.41c3.009 1.389 3.008 3.638 0 5.025l-3.059 1.41-1.983 4.856c-1.25 3.062-3.285 3.069-4.538 0l-1.983-4.855-3.059-1.41c-3.009-1.389-3.008-3.638 0-5.025l3.059-1.41 1.983-4.856c1.25-3.062 3.285-3.069 4.538 0zM25.16 41.682l1.968 5.367 2.616 1.224c3.002 1.405 3.005 3.687 0 5.093l-2.616 1.225-2.115 6.286c-1.06 3.15-2.77 3.143-3.828 0l-2.114-6.286-2.616-1.225c-3.002-1.405-3.005-3.686 0-5.093l2.616-1.224 1.967-5.367c1.137-3.103 2.984-3.107 4.123 0z"/>
    </g>
</svg>
