<svg xmlns="http://www.w3.org/2000/svg" width="128" height="166" viewBox="0 0 128 166">
    <defs>
        <linearGradient id="a" x1="100%" x2="5.329%" y1="0%" y2="90.461%">
            <stop offset="0%" stop-color="#9AC9CF"/>
            <stop offset="100%" stop-color="#C8E0E3"/>
        </linearGradient>
    </defs>
    <g fill="none" fill-rule="evenodd">
        <path fill="#7FCBCF" d="M22.456 6.176c0-5.567 3.877-7.781 8.674-4.937l67.424 39.97c4.79 2.84 8.674 9.652 8.674 15.221v64.27c0 5.566-3.877 7.78-8.674 4.937L31.13 85.667c-4.79-2.84-8.674-9.652-8.674-15.222V6.175z"/>
        <path fill="#BDE1E3" d="M11.228 44.486c0-4.325 3.019-6.055 6.763-3.853l52.72 31.01c3.735 2.197 6.763 7.497 6.763 11.809v49.799c0 4.325-3.019 6.056-6.763 3.853l-52.72-31.01c-3.735-2.196-6.763-7.497-6.763-11.808v-49.8z"/>
        <path fill="#FFF" d="M0 82.248c0-3.097 2.164-4.326 4.825-2.752l37.508 22.186c2.665 1.576 4.825 5.357 4.825 8.46v35.65c0 3.097-2.164 4.327-4.825 2.753L4.825 126.358C2.16 124.782 0 121.001 0 117.898v-35.65z"/>
        <path fill="url(#a)" d="M104.682 144.995L59.97 161.128c-.587.212-.621.633-.087.944l6.217 3.621c.529.309 1.437.387 2.016.17l43.98-16.55 6.22 3.623c.534.311 1.219.125 1.535-.413l8.008-13.613c.318-.541.076-.913-.537-.839l-27.456 3.336c-.62.076-.679.386-.147.696l4.964 2.892z"/>
    </g>
</svg>
