<svg xmlns="http://www.w3.org/2000/svg" xmlns:xlink="http://www.w3.org/1999/xlink" width="230" height="139" viewBox="0 0 230 139">
    <defs>
        <linearGradient id="a" x1="47.262%" y1="77.039%" y2="77.039%">
            <stop offset="0%" stop-color="#648E90" stop-opacity="0"/>
            <stop offset="100%" stop-color="#648E90"/>
        </linearGradient>
        <linearGradient id="b" x1="11.687%" y1="77.039%" y2="77.039%">
            <stop offset="0%" stop-color="#648E90" stop-opacity="0"/>
            <stop offset="100%" stop-color="#6FB4B7"/>
        </linearGradient>
        <rect id="d" width="113.958" height="81.752" y="44.963" rx="4.536"/>
        <filter id="c" width="124.6%" height="134.3%" x="-12.3%" y="-12.2%" filterUnits="objectBoundingBox">
            <feOffset dy="4" in="SourceAlpha" result="shadowOffsetOuter1"/>
            <feGaussianBlur in="shadowOffsetOuter1" result="shadowBlurOuter1" stdDeviation="4"/>
            <feColorMatrix in="shadowBlurOuter1" values="0 0 0 0 0 0 0 0 0 0 0 0 0 0 0 0 0 0 0.05 0"/>
        </filter>
        <filter id="e" width="116.7%" height="123.2%" x="-8.3%" y="-6.7%" filterUnits="objectBoundingBox">
            <feOffset dy="-3" in="SourceAlpha" result="shadowOffsetInner1"/>
            <feComposite in="shadowOffsetInner1" in2="SourceAlpha" k2="-1" k3="1" operator="arithmetic" result="shadowInnerInner1"/>
            <feColorMatrix in="shadowInnerInner1" values="0 0 0 0 0.870588235 0 0 0 0 0.870588235 0 0 0 0 0.870588235 0 0 0 1 0"/>
        </filter>
        <linearGradient id="f" x1="50%" x2="50%" y1="100%" y2="0%">
            <stop offset="0%" stop-color="gray"/>
            <stop offset="100%" stop-color="#424242"/>
        </linearGradient>
    </defs>
    <g fill="none" fill-rule="evenodd">
        <path fill="url(#a)" d="M0 69.246l108.747-54.17V138L0 118z" transform="matrix(-1 0 0 1 108.747 0)"/>
        <path fill="url(#b)" d="M108.747 15.377V138h-.6v-28.101l-18.025-.192V134h-.146l18.17 3.398V138L1.203 118v-.602l13.818 2.584V108.91L0 108.749v-.602l15.02.16V92.422L0 94.75v-.602l15.02-2.327V77.305L0 82.1v-.602l15.02-4.795V62.366L0 69.848v-.602l15.02-7.482v-.041l.601-.301v.043l93.126-46.39v.302zm-.6.6l-18.025 8.979v27.772l18.025-5.754V15.977zm0 31.599L90.122 53.33v26.858l18.025-2.792v-29.82zm0 30.422L90.122 80.79v28.315l18.025.192V77.998zM89.52 133.915v-24.214l-18.024-.192v21.035l18.024 3.371zm0-108.66l-18.024 8.978v24.44L89.52 52.92V25.255zm0 28.266l-18.024 5.754v23.798L89.52 80.28v-26.76zm0 27.362l-18.024 2.792v25.232l18.024.192V80.883zm-18.625 49.549v-20.93l-18.024-.191V127h-.327l18.351 3.432zm0-95.9l-18.024 8.98v21.107l18.024-5.754V34.533zm0 24.935l-18.024 5.754v20.737l18.024-2.792V59.467zm0 24.3L52.872 86.56v22.15l18.024.19V83.769zM52.271 126.95v-17.644l-18.025-.192v14.465l18.025 3.37zm0-83.138l-18.025 8.978v17.776l18.025-5.754v-21zm0 21.602l-18.025 5.754v17.676l18.025-2.792V65.413zm0 21.24l-18.025 2.791v19.067l18.025.192v-22.05zm-18.625 36.813v-14.36l-18.025-.191V120h-.506l18.53 3.466zm0-14.961V89.538L15.62 92.329v15.984l18.025.192zm0-19.57V71.36L15.62 77.113v14.614l18.025-2.791zm0-18.178V53.088L15.62 62.067V76.51l18.025-5.754z" transform="matrix(-1 0 0 1 108.747 0)"/>
        <path fill="url(#a)" d="M121 69.246l108.747-54.17V138L121 118z"/>
        <path fill="url(#b)" d="M229.747 15.377V138h-.6v-28.101l-18.025-.192V134h-.146l18.17 3.398V138l-106.944-20v-.602l13.818 2.584V108.91l-15.02-.16v-.602l15.02.16V92.422L121 94.75v-.602l15.02-2.327V77.305L121 82.1v-.602l15.02-4.795V62.366L121 69.848v-.602l15.02-7.482v-.041l.601-.301v.043l93.126-46.39v.302zm-.6.6l-18.025 8.979v27.772l18.025-5.754V15.977zm0 31.599l-18.025 5.754v26.858l18.025-2.792v-29.82zm0 30.422l-18.025 2.792v28.315l18.025.192V77.998zm-18.626 55.917v-24.214l-18.024-.192v21.035l18.024 3.371zm0-108.66l-18.024 8.978v24.44l18.024-5.753V25.255zm0 28.266l-18.024 5.754v23.798l18.024-2.792v-26.76zm0 27.362l-18.024 2.792v25.232l18.024.192V80.883zm-18.625 49.549v-20.93l-18.024-.191V127h-.327l18.351 3.432zm0-95.9l-18.024 8.98v21.107l18.024-5.754V34.533zm0 24.935l-18.024 5.754v20.737l18.024-2.792V59.467zm0 24.3l-18.024 2.793v22.15l18.024.19V83.769zm-18.625 43.182v-17.644l-18.025-.192v14.465l18.025 3.37zm0-83.138l-18.025 8.978v17.776l18.025-5.754v-21zm0 21.602l-18.025 5.754v17.676l18.025-2.792V65.413zm0 21.24l-18.025 2.791v19.067l18.025.192v-22.05zm-18.625 36.813v-14.36l-18.025-.191V120h-.506l18.53 3.466zm0-14.961V89.538l-18.025 2.791v15.984l18.025.192zm0-19.57V71.36l-18.025 5.754v14.614l18.025-2.791zm0-18.178V53.088l-18.025 8.979V76.51l18.025-5.754z"/>
        <path fill="#DDD" d="M83.598 44.963V31.34C83.598 14.03 97.676 0 115.05 0c17.37 0 31.453 14.031 31.453 31.34v13.623l.003 12.717c2.515 0-65.428.455-62.911.455l.003-13.172zm13.675-13.626v13.627h35.555V31.337c0-9.78-7.96-17.712-17.778-17.712-9.82 0-17.777 7.93-17.777 17.712z"/>
        <g transform="translate(58)">
            <use fill="#000" filter="url(#c)" xlink:href="#d"/>
            <use fill="#FFF" xlink:href="#d"/>
            <use fill="#000" filter="url(#e)" xlink:href="#d"/>
        </g>
        <path fill="url(#f)" d="M52.724 65.579c.398-.916 1.535-1.658 2.539-1.658H69.23c1.003 0 1.334.663.747 1.468l-9.452 12.97c-.591.81-.264 1.467.748 1.467h9.244c1.004 0 1.253.59.568 1.306l-24.548 25.634c-.69.721-.935.566-.543-.354l6.885-16.15c.391-.917-.11-1.66-1.112-1.66h-7.236c-1.006 0-1.5-.739-1.1-1.658l9.292-21.365z" transform="translate(58)"/>
    </g>
</svg>
