<?xml version="1.0" encoding="UTF-8"?>
<svg width="82px" height="62px" viewBox="0 0 82 62" version="1.1" xmlns="http://www.w3.org/2000/svg" xmlns:xlink="http://www.w3.org/1999/xlink">
    <!-- Generator: sketchtool 41.2 (35397) - http://www.bohemiancoding.com/sketch -->
    <title>861F04A8-C0FE-4555-9ECD-91ED1208A22D</title>
    <desc>Created with sketchtool.</desc>
    <defs>
        <filter x="-50%" y="-50%" width="200%" height="200%" filterUnits="objectBoundingBox" id="filter-1">
            <feOffset dx="0" dy="0" in="SourceAlpha" result="shadowOffsetOuter1"></feOffset>
            <feGaussianBlur stdDeviation="1" in="shadowOffsetOuter1" result="shadowBlurOuter1"></feGaussianBlur>
            <feColorMatrix values="0 0 0 0 0   0 0 0 0 0   0 0 0 0 0  0 0 0 0.0533288043 0" type="matrix" in="shadowBlurOuter1" result="shadowMatrixOuter1"></feColorMatrix>
            <feMerge>
                <feMergeNode in="shadowMatrixOuter1"></feMergeNode>
                <feMergeNode in="SourceGraphic"></feMergeNode>
            </feMerge>
        </filter>
        <linearGradient x1="100%" y1="50%" x2="1.10660968%" y2="50%" id="linearGradient-2">
            <stop stop-color="#F5F5F6" offset="0%"></stop>
            <stop stop-color="#D8D8D8" offset="80.194956%"></stop>
            <stop stop-color="#DADADA" offset="100%"></stop>
        </linearGradient>
        <linearGradient x1="98.9417251%" y1="50%" x2="1.95711097%" y2="50%" id="linearGradient-3">
            <stop stop-color="#E6E6E6" offset="0%"></stop>
            <stop stop-color="#F2F2F2" offset="100%"></stop>
        </linearGradient>
    </defs>
    <g id="Visual" stroke="none" stroke-width="1" fill="none" fill-rule="evenodd">
        <g id="States-/-Assets" transform="translate(-111.000000, -3334.000000)">
            <g id="mode_logo" transform="translate(111.000000, 3334.000000)">
                <g id="visual" transform="translate(10.000000, 0.000000)">
                    <path d="M0,4.32337741 C0,1.935642 1.94069554,0 4.31049513,0 L57.6895049,0 C60.0701256,0 62,1.92540431 62,4.32337741 L62,29.6766226 C62,32.064358 60.0593045,34 57.6895049,34 L4.31049513,34 C1.9298744,34 0,32.0745957 0,29.6766226 L0,4.32337741 Z" id="bg" fill="#7FCBCF"></path>
                    <g id="switch" filter="url(#filter-1)" transform="translate(6.275079, 7.200000)">
                        <rect id="left" fill="#FEFEFE" x="0" y="0.96" width="25.1003151" height="18"></rect>
                        <path d="M25.1003151,3.45160784 C25.1003151,1.46810963 26.718588,-0.0668184734 28.6971173,0.0224508324 L49.4765826,0.96 L49.4765826,18.96 L28.6971173,19.6929652 C26.7106583,19.7630346 25.1003151,18.2033606 25.1003151,16.2283959 L25.1003151,3.45160784 Z" id="bottom" fill="url(#linearGradient-2)" transform="translate(37.288449, 9.856992) scale(-1, 1) translate(-37.288449, -9.856992) "></path>
                        <path d="M25.1003151,3.70036592 C25.1003151,1.71608234 26.7132891,0.178719818 28.6980336,0.266351635 L44.4082497,0.96 L44.4082497,18.96 L28.6980336,19.4583651 C26.7110685,19.5213963 25.1003151,17.9630311 25.1003151,15.97963 L25.1003151,3.70036592 Z" id="top" fill="url(#linearGradient-3)" transform="translate(34.754282, 9.861498) scale(-1, 1) translate(-34.754282, -9.861498) "></path>
                        <ellipse id="dot" fill="#7ECACE" cx="12.5501575" cy="9.84" rx="3.62023775" ry="3.6"></ellipse>
                    </g>
                </g>
                <path d="M0.376,60.184 C0.376,60.712 0.784,61.12 1.288,61.12 C1.816,61.12 2.224,60.712 2.224,60.184 L2.224,47.656 L7.576,55.528 C7.792,55.84 8.056,56.008 8.392,56.008 C8.728,56.008 8.968,55.84 9.184,55.528 L14.56,47.632 L14.56,60.16 C14.56,60.664 14.992,61.12 15.52,61.12 C16.024,61.12 16.456,60.688 16.456,60.16 L16.456,45.064 C16.456,44.56 16.024,44.128 15.52,44.128 L15.304,44.128 C14.92,44.128 14.608,44.32 14.416,44.632 L8.416,53.656 L2.416,44.632 C2.224,44.344 1.936,44.128 1.528,44.128 L1.312,44.128 C0.808,44.128 0.376,44.56 0.376,45.064 L0.376,60.184 Z M31.8879999,61.288 C36.9999999,61.288 40.4799999,57.232 40.4799999,52.6 L40.4799999,52.552 C40.4799999,47.92 37.0479999,43.912 31.9359999,43.912 C26.8239999,43.912 23.3439999,47.968 23.3439999,52.6 L23.3439999,52.648 C23.3439999,57.28 26.7759999,61.288 31.8879999,61.288 Z M31.9359999,59.536 C28.0959999,59.536 25.3119999,56.416 25.3119999,52.6 L25.3119999,52.552 C25.3119999,48.736 28.0479999,45.664 31.8879999,45.664 C35.7279999,45.664 38.5119999,48.784 38.5119999,52.6 L38.5119999,52.648 C38.5119999,56.464 35.7759999,59.536 31.9359999,59.536 Z M47.3679998,60.04 C47.3679998,60.568 47.7999998,61 48.3039998,61 L53.1999998,61 C58.4799998,61 62.1279998,57.328 62.1279998,52.6 L62.1279998,52.552 C62.1279998,47.824 58.4799998,44.2 53.1999998,44.2 L48.3039998,44.2 C47.7999998,44.2 47.3679998,44.632 47.3679998,45.16 L47.3679998,60.04 Z M49.2639998,59.248 L49.2639998,45.952 L53.1999998,45.952 C57.4479998,45.952 60.1599998,48.88 60.1599998,52.6 L60.1599998,52.648 C60.1599998,56.368 57.4479998,59.248 53.1999998,59.248 L49.2639998,59.248 Z M69.9519998,61 L80.5119998,61 C80.9919998,61 81.3759998,60.616 81.3759998,60.136 C81.3759998,59.656 80.9919998,59.272 80.5119998,59.272 L70.9119998,59.272 L70.9119998,53.392 L79.3119998,53.392 C79.7919998,53.392 80.1759998,53.008 80.1759998,52.528 C80.1759998,52.072 79.7919998,51.664 79.3119998,51.664 L70.9119998,51.664 L70.9119998,45.928 L80.3919998,45.928 C80.8719998,45.928 81.2559998,45.544 81.2559998,45.064 C81.2559998,44.584 80.8719998,44.2 80.3919998,44.2 L69.9519998,44.2 C69.4479998,44.2 69.0159998,44.632 69.0159998,45.16 L69.0159998,60.04 C69.0159998,60.568 69.4479998,61 69.9519998,61 Z" id="MODE" fill="#FFFFFF"></path>
            </g>
        </g>
    </g>
</svg>